{
.appVersion = "3434";
.formatVersion = 3;
DisplayStrings = (
Ahnhesion,
Teleport,
"atàn ác̀́aaaaâ̂ă̆ã̃ả̛̉uượ̛̆/brevecomb_acutecomb/brevecomb_gravecomb/brevecomb_hookabovecomb/brevecomb_tildecomb/circumflexcomb_acutecomb/circumflexcomb_gravecomb/circumflexcomb_hookabovecomb ̂/circumflexcomb_tildecomb",
"ueoaıy
UEOAIY",
"áă/brevecomb_acutecomb ắ̆ặằẳẵâấậầẩẫạàảãđéê/circumflexcomb_acutecomb ếệ/circumflexcomb_gravecomb ề/circumflexcomb_hookabovecomb ểễẹèẻẽíı˙ịìıỉĩóôốộ̂/circumflexcomb_gravecomb ồổỗọòỏơớợờ̛ơư ƯƠởỡõúụùủưứựừửữũỵ́ỵỳỷỹ",
"UỦ",
"hơn phía Tấn Cuối Chi Vương Triều Tiên Vị Hoàng Thái việc vật nhân Kích gần Lớp thủy Nước tiến Khu cầu đĐộng chương thiên truyền kê Tuy Xem The loại gia đổ Tiểu Bình Nó cư lập chức thời ảnh ba hiệu đặt vụ đạo trí Đức Nhạc để Đại đội cấp biết bởi đoàn Đế biệt hai Ông hội địa Quốc huy Sự triển gặp đông đồ chỉnh đô dẫn mạng loài Sĩ cùng Long nguồn về Quảng phá phần ra thương ban mới trẻ dự Thanh Lỗi đối khoa cập Nhật Năm hoàn phim nội Phi La"
);
customParameters = (
{
name = vendorID;
value = TIPO;
},
{
name = panose;
value = (
2,
0,
5,
3,
8,
0,
0,
2,
0,
4
);
},
{
name = unicodeRanges;
value = (
0,
1,
2,
3,
5,
29,
31,
32,
33,
35,
38,
45,
62
);
},
{
name = fsType;
value = (
);
}
);
date = "2012-11-12 15:41:28 +0000";
familyName = "CCC-Croissant";
featurePrefixes = (
{
automatic = 1;
code = "languagesystem DFLT dflt;

languagesystem latn dflt;
languagesystem latn ROM;
languagesystem latn MOL;
languagesystem latn CAT;
";
name = Languagesystems;
}
);
features = (
{
automatic = 1;
code = "feature locl;
feature subs;
feature sinf;
feature sups;
feature frac;
feature ordn;
";
tag = aalt;
},
{
automatic = 1;
code = "lookup ccmp_DFLT_1 {
	@CombiningTopAccents = [acutecomb brevecomb circumflexcomb gravecomb hookabovecomb tildecomb];
	lookupflag UseMarkFilteringSet @CombiningTopAccents;
	sub i' @CombiningTopAccents by idotless;
} ccmp_DFLT_1;

lookup ccmp_DFLT_2 {
	lookupflag 0;
	sub brevecomb acutecomb by brevecomb_acutecomb;

glyphs = (
{
glyphname = A;
kernLeft = KO_A;
kernRight = KO_A;
lastChange = "2025-10-13 06:11:50 +0000";
layers = (
{
anchors = (
{
name = bottom;
pos = (328,0);
},
{
name = ogonek;
pos = (590,10);
},
{
name = top;
pos = (328,700);
}
);
layerId = m01;
shapes = (
{
closed = 1;
nodes = (
(37,0,l),
(98,0,l),
(147,163,l),
(419,163,l),
(467,0,l),
(630,0,l),
(420,700,l),
(218,700,l),
(218,686,l),
(237,660,l)
);
},
{
closed = 1;
nodes = (
(161,208,l),
(282,617,l),
(405,208,l),
(405,208,l)
);
}
);
width = 656;
}
);
note = A;
unicode = 65;
userData = {
KernOnName = A;
};
},
{
glyphname = Acircumflex;
kernLeft = KO_Amacron;
kernRight = KO_Aring;
lastChange = "2025-10-13 04:32:50 +0000";
layers = (
{
layerId = m01;
shapes = (
{
closed = 1;
nodes = (
(50,40,l),
(0,40,l),
(0,0,l),
(169,0,l),
(169,40,l),
(111,40,l),
(147,163,l),
(419,163,l),
(456,40,l),
(398,40,l),
(398,0,l),
(656,0,l),
(656,40,l),
(606,40,l),
(407,700,l),
(169,700,l),
(169,660,l),
(237,660,l),
(237,660,l)
);
},
{
closed = 1;
nodes = (
(161,208,l),
(282,617,l),
(405,208,l),
(405,208,l)
);
},
{
closed = 1;
nodes = (
(142,783,l),
(163,759,l),
(304,854,l),
(312,854,l),
(453,759,l),
(474,783,l),
(366,927,ls),
(347.333,952.333,o),
(328,965,o),
(308,965,cs),
(288,965,o),
(268.667,952.333,o),
(250,927,cs)
);
}
);
width = 656;
}
);
note = Acircumflex;
unicode = 194;
},
{
glyphname = Adieresis;
kernLeft = KO_Amacron;
kernRight = KO_Aring;
lastChange = "2025-10-13 06:11:50 +0000";
layers = (
{
layerId = m01;
shapes = (
{
closed = 1;
nodes = (
(50,40,l),
(0,40,l),
(0,0,l),
(169,0,l),
(169,40,l),
(111,40,l),
(147,163,l),
(419,163,l),
(456,40,l),
(398,40,l),
(398,0,l),
(656,0,l),
(656,40,l),
(606,40,l),
(407,700,l),
(169,700,l),
(169,660,l),
(237,660,l),
(237,660,l)
);
},
{
closed = 1;
nodes = (
(161,208,l),
(282,617,l),
(405,208,l),
(405,208,l)
);
},
{
closed = 1;
nodes = (
(150,816,l),
(179.512,786.488,o),
(228.488,786.488,o),
(258,816,cs),
(272.667,830.667,o),
(280,848.667,o),
(280,870,cs),
(280,912.667,o),
(246.667,946,o),
(204,946,cs),
(161.333,946,o),
(128,912.667,o),
(128,870,cs),
(128,848.667,o),
(135.333,830.667,o),
(150,816,c)
);
},
{
closed = 1;
nodes = (
(380,816,l),
(409.512,786.488,o),
(458.488,786.488,o),
(488,816,cs),
(502.667,830.667,o),
(510,848.667,o),
(510,870,cs),
(510,912.667,o),
(476.667,946,o),
(434,946,cs),
(391.333,946,o),
(358,912.667,o),
(358,870,cs),
(358,848.667,o),
(365.333,830.667,o),
(380,816,c)
);
}
);
width = 656;
}
);
note = Adieresis;
unicode = 196;
userData = {
KernOnName = Adieresis;
};
},
{
glyphname = Amacron;
kernLeft = KO_Amacron;
kernRight = KO_Aring;
lastChange = "2025-10-13 06:11:50 +0000";
layers = (
{
layerId = m01;
shapes = (
{
closed = 1;
nodes = (
(50,40,l),
(0,40,l),
(0,0,l),
(169,0,l),
(169,40,l),
(111,40,l),
(147,163,l),
(419,163,l),
(456,40,l),
(398,40,l),
(398,0,l),
(656,0,l),
(656,40,l),
(606,40,l),
(407,700,l),
(169,700,l),
(169,660,l),
(237,660,l),
(237,660,l)
);
},
{
closed = 1;
nodes = (
(161,208,l),
(282,617,l),
(405,208,l),
(405,208,l)
);
},
{
closed = 1;
nodes = (
(475,812,l),
(475,900,l),
(181,900,l),
(181,812,l),
(181,812,l)
);
}
);
width = 656;
}
);
note = Amacron;
unicode = 256;
userData = {
KernOnName = Amacron;
};
},
{
glyphname = Aogonek;
kernLeft = KO_Amacron;
kernRight = KO_Aring;
lastChange = "2025-10-13 04:32:50 +0000";
layers = (
{
layerId = m01;
shapes = (
{
closed = 1;
nodes = (
(534,-21,ls),
(498,-50.333,o),
(482,-61.833,o),
(462,-94.5,cs),
(452,-110.833,o),
(447,-127,o),
(447,-143,cs),
(447,-207,o),
(493.333,-238,o),
(556,-238,cs),
(606.667,-238,o),
(648,-218.667,o),
(680,-180,c),
(663,-151,l),
(605.298,-204.855,o),
(538,-177.021,o),
(538,-122.5,cs),
(538,-85.833,o),
(549.333,-58.667,o),
(600,-8,cs),
(608,0,l),
(656,0,l),
(656,40,l),
(606,40,l),
(407,700,l),
(169,700,l),
(169,660,l),
(237,660,l),
(50,40,l),
(0,40,l),
(0,0,l),
(169,0,l),
(169,40,l),
(111,40,l),
(147,163,l),
(419,163,l),
(456,40,l),
(398,40,l),
(398,0,l),
(560,0,l),
(560,0,l)
);
},
{
closed = 1;
nodes = (
(161,208,l),
(282,617,l),
(405,208,l),
(405,208,l)
);
}
);
width = 656;
}
);
note = Aogonek;
unicode = 260;
},
{
glyphname = Aring;
kernLeft = KO_Amacron;
kernRight = KO_Aring;
lastChange = "2025-10-13 06:11:50 +0000";
layers = (
{
layerId = m01;
shapes = (
{
closed = 1;
nodes = (
(50,40,l),
(0,40,l),
(0,0,l),
(169,0,l),
(169,40,l),
(111,40,l),
(147,163,l),
(419,163,l),
(456,40,l),
(398,40,l),
(398,0,l),
(656,0,l),
(656,40,l),
(606,40,l),
(407,700,l),
(169,700,l),
(169,660,l),
(237,660,l),
(237,660,l)
);
},
{
closed = 1;
nodes = (
(161,208,l),
(282,617,l),
(405,208,l),
(405,208,l)
);
},
{
closed = 1;
nodes = (
(308,753,l),
(381.333,753,o),
(437,799.5,o),
(437,869.5,cs),
(437,939.5,o),
(381.333,987,o),
(308,987,cs),
(234.667,987,o),
(179,939.5,o),
(179,869.5,cs),
(179,799.5,o),
(234.667,753,o),
(308,753,c)
);
},
{
closed = 1;
nodes = (
(307.5,952,l),
(307.5,952,o),
(307.5,952,o),
(307.5,952,c)
);
}
);
width = 656;
}
);
note = Aring;
unicode = 197;
userData = {
KernOnName = Aring;
};
},
{
glyphname = Aringacute;
lastChange = "2025-10-13 04:32:50 +0000";
layers = (
{
layerId = m01;
shapes = (
{
closed = 1;
nodes = (
(50,40,l),
(0,40,l),
(0,0,l),
(169,0,l),
(169,40,l),
(111,40,l),
(147,163,l),
(419,163,l),
(456,40,l),
(398,40,l),
(398,0,l),
(656,0,l),
(656,40,l),
(606,40,l),
(407,700,l),
(169,700,l),
(169,660,l),
(237,660,l),
(237,660,l)
);
},
{
closed = 1;
nodes = (
(161,208,l),
(282,617,l),
(405,208,l),
(405,208,l)
);
},
{
closed = 1;
nodes = (
(363.535,992.663,o),
(284.44,1000.562,o),
(232,954.5,cs),
(207.333,932.833,o),
(195,904.5,o),
(195,869.5,cs),
(195,799.5,o),
(250.667,753,o),
(324,753,cs),
(397.333,753,o),
(453,799.333,o),
(453,870,cs),
(453,893.333,o),
(446.667,914.667,o),
(434,934,c),
(473,959,ls),
(519.667,988.333,o),
(533,1007,o),
(533,1031,cs),
(533,1055,o),
(512.333,1071,o),
(487,1071,cs),
(461.667,1071,o),
(447.667,1057,o),
(425,1013,cs),
(400,965,l),
(400,965,l)
);
},
{
closed = 1;
nodes = (
(323.5,952,l),
(323.5,952,o),
(323.5,952,o),
(323.5,952,c)
);
}
);
width = 656;
}
);
note = Aringacute;
unicode = 506;
},
{
glyphname = AE;
kernLeft = KO_AE;
kernRight = KO_E;
lastChange = "2025-10-13 04:32:50 +0000";
layers = (
{
layerId = m01;
shapes = (
{
closed = 1;
nodes = (
(149,40,l),
(92,40,l),
(172,273,l),
(412,273,l),
(412,40,l),
(352,40,l),
(352,0,l),
(801,0,ls),
(843.833,0,o),
(862,5.915,o),
(862,42,c),
(835,200,l),
(796,200,l),
(776,111,ls),
(762.667,51,o),
(738.667,40,o),
(652,40,cs),
(562,40,l),
(562,273,l),
(792,273,l),
(792,318,l),
(562,318,l),
(562,660,l),
(632,660,ls),
(720,660,o),
(744,649,o),
(756,589,cs),
(776,490,l),
(815,490,l),
(842,658,l),
(842,694.085,o),
(823.833,700,o),
(781,700,cs),
(178,700,l),
(178,660,l),
(245,660,l),
(32,40,l),
(-20,40,l),
(-20,0,l),
(149,0,l),
(149,0,l)
);
},
{
closed = 1;
nodes = (
(303,660,l),
(412,660,l),
(412,318,l),
(187,318,l),
(187,318,l)
);
}
);
width = 912;
}
);
note = AE;
unicode = 198;
},
{
glyphname = AEacute;
kernLeft = KO_AE;
kernRight = KO_E;
lastChange = "2025-10-13 06:11:50 +0000";
layers = (
{
layerId = m01;
shapes = (
{
closed = 1;
nodes = (
(149,40,l),
(92,40,l),
(172,273,l),
(412,273,l),
(412,40,l),
(352,40,l),
(352,0,l),
(801,0,ls),
(843.833,0,o),
(862,5.915,o),
(862,42,c),
(835,200,l),
(796,200,l),
(776,111,ls),
(762.667,51,o),
(738.667,40,o),
(652,40,cs),
(562,40,l),
(562,273,l),
(792,273,l),
(792,318,l),
(562,318,l),
(562,660,l),
(632,660,ls),
(720,660,o),
(744,649,o),
(756,589,cs),
(776,490,l),
(815,490,l),
(842,658,l),
(842,694.085,o),
(823.833,700,o),
(781,700,cs),
(178,700,l),
(178,660,l),
(245,660,l),
(32,40,l),
(-20,40,l),
(-20,0,l),
(149,0,l),
(149,0,l)
);
},
{
closed = 1;
nodes = (
(303,660,l),
(412,660,l),
(412,318,l),
(187,318,l),
(187,318,l)
);
},
{
closed = 1;
nodes = (
(636.667,862.667,o),
(657,882.333,o),
(657,913,cs),
(657,943.667,o),
(630.5,965,o),
(604.5,965,cs),
(578.5,965,o),
(560.833,953.833,o),
(549.5,942.5,cs),
(543.833,936.833,o),
(535.333,927.667,o),
(524,915,cs),
(405,783,l),
(426,759,l),
(574,832,l),
(574,832,l)
);
}
);
width = 912;
}
);
note = AEacute;
unicode = 508;
userData = {
KernOnName = AEacute;
};
},
{
glyphname = B;
kernLeft = KO_H;
kernRight = KO_B;
lastChange = "2025-10-13 04:49:58 +0000";
layers = (
{
layerId = m01;
shapes = (
{
closed = 1;
nodes = (
(130,40,l),
(130,0,l),
(340,0,ls),
(538.667,0,o),
(653,59,o),
(653,179,cs),
(653,261.667,o),
(591.333,312.333,o),
(468,331,c),
(468,338,l),
(571.333,364.667,o),
(623,422,o),
(623,510,cs),
(623,636.667,o),
(518.667,700,o),
(310,700,cs),
(130,700,l),
(130,660,l),
(130,660,l)
);
},
{
closed = 1;
nodes = (
(426,313,o),
(498,262.5,o),
(498,176.5,cs),
(498,90.5,o),
(426,40,o),
(330,40,cs),
(280,40,l),
(280,313,l),
(330,313,l),
(330,313,l)
);
},
{
closed = 1;
nodes = (
(403.667,660,o),
(473,605.333,o),
(473,508,cs),
(473,410.667,o),
(403.667,351,o),
(309,351,cs),
(280,351,l),
(280,660,l),
(309,660,l),
(309,660,l)
);
}
);
width = 708;
}
);
note = B;
unicode = 66;
},
{
glyphname = C;
kernLeft = KO_O;
kernRight = KO_C;
lastChange = "2025-10-13 04:53:36 +0000";
layers = (
{
layerId = m01;
shapes = (
{
closed = 1;
nodes = (
(580,615,l),
(549,678,o),
(466,715,o),
(382,715,cs),
(174,715,o),
(50,559,o),
(50,351,cs),
(50,143,o),
(179.667,-15,o),
(365,-15,cs),
(489,-15,o),
(561,46.333,o),
(625,149,c),
(590,174,l),
(558,127.333,o),
(537,100,o),
(481,72,cs),
(453,58,o),
(422.333,51,o),
(389,51,cs),
(270.333,51,o),
(205,176.333,o),
(205,355,cs),
(205,533.667,o),
(266,668,o),
(382,668,cs),
(441,668,o),
(498,630,o),
(529,578,c)
);
}
);
width = 650;
}
);
note = C;
unicode = 67;
},
{
glyphname = Cacute;
kernLeft = KO_O;
kernRight = KO_Ccaron;
lastChange = "2025-10-13 04:32:50 +0000";
layers = (
{
layerId = m01;
shapes = (
{
closed = 1;
nodes = (
(463.333,668,o),
(519,623,o),
(519,571,cs),
(519,556.333,o),
(517.667,541,o),
(515,525,cs),
(506,463,l),
(542,452,l),
(602,568,ls),
(609.333,582.667,o),
(613,595.667,o),
(613,607,cs),
(613,665.667,o),
(490,715,o),
(382,715,cs),
(174,715,o),
(50,559,o),
(50,351,cs),
(50,143,o),
(179.667,-15,o),
(365,-15,cs),
(489,-15,o),
(561,46.333,o),
(625,149,c),
(590,174,l),
(558,127.333,o),
(537,100,o),
(481,72,cs),
(453,58,o),
(422.333,51,o),
(389,51,cs),
(270.333,51,o),
(205,176.333,o),
(205,355,cs),
(205,533.667,o),
(266,668,o),
(382,668,cs)
);
},
{
closed = 1;
nodes = (
(480.667,862.667,o),
(501,882.333,o),
(501,913,cs),
(501,943.667,o),
(474.5,965,o),
(448.5,965,cs),
(422.5,965,o),
(404.833,953.833,o),
(393.5,942.5,cs),
(387.833,936.833,o),
(379.333,927.667,o),
(368,915,cs),
(249,783,l),
(270,759,l),
(418,832,l),
(418,832,l)
);
}
);
width = 650;
}
);
note = Cacute;
unicode = 262;
},
{
glyphname = Ccaron;
kernLeft = KO_O;
kernRight = KO_Ccaron;
lastChange = "2025-10-13 04:32:50 +0000";
layers = (
{
layerId = m01;
shapes = (
{
closed = 1;
nodes = (
(463.333,668,o),
(519,623,o),
(519,571,cs),
(519,556.333,o),
(517.667,541,o),
(515,525,cs),
(506,463,l),
(542,452,l),
(602,568,ls),
(609.333,582.667,o),
(613,595.667,o),
(613,607,cs),
(613,665.667,o),
(490,715,o),
(382,715,cs),
(174,715,o),
(50,559,o),
(50,351,cs),
(50,143,o),
(179.667,-15,o),
(365,-15,cs),
(489,-15,o),
(561,46.333,o),
(625,149,c),
(590,174,l),
(558,127.333,o),
(537,100,o),
(481,72,cs),
(453,58,o),
(422.333,51,o),
(389,51,cs),
(270.333,51,o),
(205,176.333,o),
(205,355,cs),
(205,533.667,o),
(266,668,o),
(382,668,cs)
);
},
{
closed = 1;
nodes = (
(541,941,l),
(520,965,l),
(379,870,l),
(371,870,l),
(230,965,l),
(209,941,l),
(317,797,ls),
(335.667,771.667,o),
(355,759,o),
(375,759,cs),
(395,759,o),
(414.333,771.667,o),
(433,797,cs)
);
}
);
width = 650;
}
);
note = Ccaron;
unicode = 268;
},
{
glyphname = Ccedilla;
kernLeft = KO_O;
kernRight = KO_Ccaron;
lastChange = "2025-10-13 04:32:50 +0000";
layers = (
{
layerId = m01;
shapes = (
{
closed = 1;
nodes = (
(463.333,668,o),
(519,623,o),
(519,571,cs),
(519,556.333,o),
(517.667,541,o),
(515,525,cs),
(506,463,l),
(542,452,l),
(602,568,ls),
(609.333,582.667,o),
(613,595.667,o),
(613,607,cs),
(613,665.667,o),
(490,715,o),
(382,715,cs),
(174,715,o),
(50,556.5,o),
(50,358.5,cs),
(50,160.5,o),
(157.333,14.333,o),
(316,-11,c),
(278,-93,l),
(300,-110,l),
(397.629,-110,o),
(393.321,-233,o),
(309,-233,cs),
(304.333,-233,o),
(299.333,-232.333,o),
(294,-231,c),
(329.267,-205.53,o),
(308.2,-155,o),
(270.5,-155,cs),
(248.5,-155,o),
(230,-173.333,o),
(230,-196,cs),
(230,-240,o),
(276.667,-265,o),
(342,-265,cs),
(407.333,-265,o),
(460,-219.667,o),
(460,-165,cs),
(460,-110.333,o),
(417.667,-70,o),
(355,-70,cs),
(339,-70,o),
(325.333,-72.333,o),
(314,-77,c),
(345,-14,l),
(349,-14.667,o),
(355.667,-15,o),
(365,-15,cs),
(489,-15,o),
(561,46.333,o),
(625,149,c),
(590,174,l),
(558,127.333,o),
(537,100,o),
(481,72,cs),
(453,58,o),
(422.333,51,o),
(389,51,cs),
(270.333,51,o),
(205,176.333,o),
(205,355,cs),
(205,533.667,o),
(266,668,o),
(382,668,cs)
);
}
);
width = 650;
}
);
note = Ccedilla;
unicode = 199;
},
{
glyphname = Ccircumflex;
kernLeft = KO_O;
kernRight = KO_Ccaron;
lastChange = "2025-10-13 04:32:50 +0000";
layers = (
{
layerId = m01;
shapes = (
{
closed = 1;
nodes = (
(463.333,668,o),
(519,623,o),
(519,571,cs),
(519,556.333,o),
(517.667,541,o),
(515,525,cs),
(506,463,l),
(542,452,l),
(602,568,ls),
(609.333,582.667,o),
(613,595.667,o),
(613,607,cs),
(613,665.667,o),
(490,715,o),
(382,715,cs),
(174,715,o),
(50,559,o),
(50,351,cs),
(50,143,o),
(179.667,-15,o),
(365,-15,cs),
(489,-15,o),
(561,46.333,o),
(625,149,c),
(590,174,l),
(558,127.333,o),
(537,100,o),
(481,72,cs),
(453,58,o),
(422.333,51,o),
(389,51,cs),
(270.333,51,o),
(205,176.333,o),
(205,355,cs),
(205,533.667,o),
(266,668,o),
(382,668,cs)
);
},
{
closed = 1;
nodes = (
(209,783,l),
(230,759,l),
(371,854,l),
(379,854,l),
(520,759,l),
(541,783,l),
(433,927,ls),
(414.333,952.333,o),
(395,965,o),
(375,965,cs),
(355,965,o),
(335.667,952.333,o),
(317,927,cs)
);
}
);
width = 650;
}
);
note = Ccircumflex;
unicode = 264;
},
{
glyphname = Cdotaccent;
kernLeft = KO_O;
kernRight = KO_Ccaron;
lastChange = "2025-10-13 04:32:50 +0000";
layers = (
{
layerId = m01;
shapes = (
{
closed = 1;
nodes = (
(463.333,668,o),
(519,623,o),
(519,571,cs),
(519,556.333,o),
(517.667,541,o),
(515,525,cs),
(506,463,l),
(542,452,l),
(602,568,ls),
(609.333,582.667,o),
(613,595.667,o),
(613,607,cs),
(613,665.667,o),
(490,715,o),
(382,715,cs),
(174,715,o),
(50,559,o),
(50,351,cs),
(50,143,o),
(179.667,-15,o),
(365,-15,cs),
(489,-15,o),
(561,46.333,o),
(625,149,c),
(590,174,l),
(558,127.333,o),
(537,100,o),
(481,72,cs),
(453,58,o),
(422.333,51,o),
(389,51,cs),
(270.333,51,o),
(205,176.333,o),
(205,355,cs),
(205,533.667,o),
(266,668,o),
(382,668,cs)
);
},
{
closed = 1;
nodes = (
(318.5,813.5,l),
(350.006,781.994,o),
(399.994,781.994,o),
(431.5,813.5,cs),
(447.167,829.167,o),
(455,848,o),
(455,870,cs),
(455,914,o),
(419,950,o),
(375,950,cs),
(331,950,o),
(295,914,o),
(295,870,cs),
(295,848,o),
(302.833,829.167,o),
(318.5,813.5,c)
);
}
);
width = 650;
}
);
note = Cdotaccent;
unicode = 266;
},
{
glyphname = D;
kernLeft = KO_D;
kernRight = KO_D;
lastChange = "2025-10-13 04:52:37 +0000";
layers = (
{
layerId = m01;
shapes = (
{
closed = 1;
nodes = (
(150,660,l),
(150,40,l),
(150,40,l),
(150,0,l),
(340,0,ls),
(580,0,o),
(742,144.5,o),
(742,350.5,cs),
(742,556.5,o),
(580,700,o),
(340,700,cs),
(150,700,l),
(150,660,l),
(150,660,l)
);
},
{
closed = 1;
nodes = (
(494.667,660,o),
(587,540.667,o),
(587,350,cs),
(587,159.333,o),
(494.667,40,o),
(340,40,cs),
(300,40,l),
(300,660,l),
(340,660,l),
(340,660,l)
);
}
);
width = 782;
}
);
note = D;
unicode = 68;
},
{
glyphname = Dcaron;
kernRight = KO_D;
lastChange = "2025-10-13 04:32:50 +0000";
layers = (
{
layerId = m01;
shapes = (
{
closed = 1;
nodes = (
(150,660,l),
(150,40,l),
(70,40,l),
(70,0,l),
(340,0,ls),
(580,0,o),
(742,144.5,o),
(742,350.5,cs),
(742,556.5,o),
(580,700,o),
(340,700,cs),
(70,700,l),
(70,660,l),
(70,660,l)
);
},
{
closed = 1;
nodes = (
(494.667,660,o),
(587,540.667,o),
(587,350,cs),
(587,159.333,o),
(494.667,40,o),
(340,40,cs),
(300,40,l),
(300,660,l),
(340,660,l),
(340,660,l)
);
},
{
closed = 1;
nodes = (
(557,941,l),
(536,965,l),
(395,870,l),
(387,870,l),
(246,965,l),
(225,941,l),
(333,797,ls),
(351.667,771.667,o),
(371,759,o),
(391,759,cs),
(411,759,o),
(430.333,771.667,o),
(449,797,cs)
);
}
);
width = 782;
}
);
note = Dcaron;
unicode = 270;
},
{
glyphname = Dcroat;
kernRight = KO_D;
lastChange = "2025-10-13 06:16:00 +0000";
layers = (
{
layerId = m01;
shapes = (
{
closed = 1;
nodes = (
(450,273,l),
(450,318,l),
(70,318,l),
(70,273,l)
);
},
{
ref = D;
}
);
width = 782;
}
);
note = Dcroat;
unicode = 272;
},
{
glyphname = Eth;
kernRight = KO_D;
lastChange = "2025-10-13 04:32:50 +0000";
layers = (
{
layerId = m01;
shapes = (
{
closed = 1;
nodes = (
(150,40,l),
(70,40,l),
(70,0,l),
(340,0,ls),
(580,0,o),
(742,144.5,o),
(742,350.5,cs),
(742,556.5,o),
(580,700,o),
(340,700,cs),
(70,700,l),
(70,660,l),
(150,660,l),
(150,318,l),
(70,318,l),
(70,273,l),
(150,273,l),
(150,273,l)
);
},
{
closed = 1;
nodes = (
(494.667,660,o),
(587,540.667,o),
(587,350,cs),
(587,159.333,o),
(494.667,40,o),
(340,40,cs),
(300,40,l),
(300,273,l),
(450,273,l),
(450,318,l),
(300,318,l),
(300,660,l),
(340,660,l),
(340,660,l)
);
}
);
width = 782;
}
);
note = Eth;
unicode = 208;
},
{
glyphname = E;
kernLeft = KO_H;
kernRight = KO_E;
lastChange = "2025-10-13 06:07:45 +0000";
layers = (
{
anchors = (
{
name = bottom;
pos = (315,0);
},
{
name = ogonek;
pos = (567,10);
},
{
name = top;
pos = (341,700);
},
{
name = topleft;
pos = (20,700);
}
);
layerId = m01;
shapes = (
{
closed = 1;
nodes = (
(562,0,o),
(580,6,o),
(580,42,c),
(553,200,l),
(514,200,l),
(494,111,ls),
(481,51,o),
(457,40,o),
(370,40,cs),
(280,40,l),
(280,273,l),
(510,273,l),
(510,318,l),
(280,318,l),
(280,660,l),
(350,660,ls),
(438,660,o),
(462,649,o),
(474,589,cs),
(494,490,l),
(533,490,l),
(560,658,l),
(560,694,o),
(542,700,o),
(499,700,cs),
(130,700,l),
(130,660,l),
(130,660,l),
(130,40,l),
(130,40,l),
(130,0,l),
(519,0,l),
(519,0,l)
);
}
);
width = 630;
}
);
note = E;
unicode = 69;
},
{
glyphname = Ebreve;
kernLeft = KO_R;
kernRight = KO_E;
lastChange = "2025-10-13 04:32:50 +0000";
layers = (
{
layerId = m01;
shapes = (
{
closed = 1;
nodes = (
(561.833,0,o),
(580,5.915,o),
(580,42,c),
(553,200,l),
(514,200,l),
(494,111,ls),
(480.667,51,o),
(456.667,40,o),
(370,40,cs),
(280,40,l),
(280,273,l),
(510,273,l),
(510,318,l),
(280,318,l),
(280,660,l),
(350,660,ls),
(438,660,o),
(462,649,o),
(474,589,cs),
(494,490,l),
(533,490,l),
(560,658,l),
(560,694.085,o),
(541.833,700,o),
(499,700,cs),
(70,700,l),
(70,660,l),
(130,660,l),
(130,40,l),
(70,40,l),
(70,0,l),
(519,0,l),
(519,0,l)
);
},
{
closed = 1;
nodes = (
(273,888,o),
(245.667,915.333,o),
(213,960,c),
(169,931,l),
(202.333,870.333,o),
(231.333,828.167,o),
(256,804.5,cs),
(280.667,780.833,o),
(307,769,o),
(335,769,cs),
(363,769,o),
(389.333,780.833,o),
(414,804.5,cs),
(438.667,828.167,o),
(467.667,870.333,o),
(501,931,c),
(456,960,l),
(405.332,889.627,o),
(358.212,851.384,o),
(295,878,cs)
);
}
);
width = 630;
}
);
note = Ebreve;
unicode = 276;
},
{
glyphname = Ecaron;
kernLeft = KO_R;
kernRight = KO_E;
lastChange = "2025-10-13 04:32:50 +0000";
layers = (
{
layerId = m01;
shapes = (
{
closed = 1;
nodes = (
(561.833,0,o),
(580,5.915,o),
(580,42,c),
(553,200,l),
(514,200,l),
(494,111,ls),
(480.667,51,o),
(456.667,40,o),
(370,40,cs),
(280,40,l),
(280,273,l),
(510,273,l),
(510,318,l),
(280,318,l),
(280,660,l),
(350,660,ls),
(438,660,o),
(462,649,o),
(474,589,cs),
(494,490,l),
(533,490,l),
(560,658,l),
(560,694.085,o),
(541.833,700,o),
(499,700,cs),
(70,700,l),
(70,660,l),
(130,660,l),
(130,40,l),
(70,40,l),
(70,0,l),
(519,0,l),
(519,0,l)
);
},
{
closed = 1;
nodes = (
(501,941,l),
(480,965,l),
(339,870,l),
(331,870,l),
(190,965,l),
(169,941,l),
(277,797,ls),
(295.667,771.667,o),
(315,759,o),
(335,759,cs),
(355,759,o),
(374.333,771.667,o),
(393,797,cs)
);
}
);
width = 630;
}
);
note = Ecaron;
unicode = 282;
},
{
glyphname = Edieresis;
kernLeft = KO_R;
kernRight = KO_E;
lastChange = "2025-10-13 04:32:50 +0000";
layers = (
{
layerId = m01;
shapes = (
{
closed = 1;
nodes = (
(561.833,0,o),
(580,5.915,o),
(580,42,c),
(553,200,l),
(514,200,l),
(494,111,ls),
(480.667,51,o),
(456.667,40,o),
(370,40,cs),
(280,40,l),
(280,273,l),
(510,273,l),
(510,318,l),
(280,318,l),
(280,660,l),
(350,660,ls),
(438,660,o),
(462,649,o),
(474,589,cs),
(494,490,l),
(533,490,l),
(560,658,l),
(560,694.085,o),
(541.833,700,o),
(499,700,cs),
(70,700,l),
(70,660,l),
(130,660,l),
(130,40,l),
(70,40,l),
(70,0,l),
(519,0,l),
(519,0,l)
);
},
{
closed = 1;
nodes = (
(146,816,l),
(175.512,786.488,o),
(224.488,786.488,o),
(254,816,cs),
(268.667,830.667,o),
(276,848.667,o),
(276,870,cs),
(276,912.667,o),
(242.667,946,o),
(200,946,cs),
(157.333,946,o),
(124,912.667,o),
(124,870,cs),
(124,848.667,o),
(131.333,830.667,o),
(146,816,c)
);
},
{
closed = 1;
nodes = (
(376,816,l),
(405.512,786.488,o),
(454.488,786.488,o),
(484,816,cs),
(498.667,830.667,o),
(506,848.667,o),
(506,870,cs),
(506,912.667,o),
(472.667,946,o),
(430,946,cs),
(387.333,946,o),
(354,912.667,o),
(354,870,cs),
(354,848.667,o),
(361.333,830.667,o),
(376,816,c)
);
}
);
width = 630;
}
);
note = Edieresis;
unicode = 203;
},
{
glyphname = Edotaccent;
kernLeft = KO_R;
kernRight = KO_E;
lastChange = "2025-10-13 04:32:50 +0000";
layers = (
{
layerId = m01;
shapes = (
{
closed = 1;
nodes = (
(561.833,0,o),
(580,5.915,o),
(580,42,c),
(553,200,l),
(514,200,l),
(494,111,ls),
(480.667,51,o),
(456.667,40,o),
(370,40,cs),
(280,40,l),
(280,273,l),
(510,273,l),
(510,318,l),
(280,318,l),
(280,660,l),
(350,660,ls),
(438,660,o),
(462,649,o),
(474,589,cs),
(494,490,l),
(533,490,l),
(560,658,l),
(560,694.085,o),
(541.833,700,o),
(499,700,cs),
(70,700,l),
(70,660,l),
(130,660,l),
(130,40,l),
(70,40,l),
(70,0,l),
(519,0,l),
(519,0,l)
);
},
{
closed = 1;
nodes = (
(278.5,813.5,l),
(310.006,781.994,o),
(359.994,781.994,o),
(391.5,813.5,cs),
(407.167,829.167,o),
(415,848,o),
(415,870,cs),
(415,914,o),
(379,950,o),
(335,950,cs),
(291,950,o),
(255,914,o),
(255,870,cs),
(255,848,o),
(262.833,829.167,o),
(278.5,813.5,c)
);
}
);
width = 630;
}
);
note = Edotaccent;
unicode = 278;
},
{
glyphname = Emacron;
kernLeft = KO_R;
kernRight = KO_E;
lastChange = "2025-10-13 04:32:50 +0000";
layers = (
{
layerId = m01;
shapes = (
{
closed = 1;
nodes = (
(561.833,0,o),
(580,5.915,o),
(580,42,c),
(553,200,l),
(514,200,l),
(494,111,ls),
(480.667,51,o),
(456.667,40,o),
(370,40,cs),
(280,40,l),
(280,273,l),
(510,273,l),
(510,318,l),
(280,318,l),
(280,660,l),
(350,660,ls),
(438,660,o),
(462,649,o),
(474,589,cs),
(494,490,l),
(533,490,l),
(560,658,l),
(560,694.085,o),
(541.833,700,o),
(499,700,cs),
(70,700,l),
(70,660,l),
(130,660,l),
(130,40,l),
(70,40,l),
(70,0,l),
(519,0,l),
(519,0,l)
);
},
{
closed = 1;
nodes = (
(482,812,l),
(482,900,l),
(188,900,l),
(188,812,l),
(188,812,l)
);
}
);
width = 630;
}
);
note = Emacron;
unicode = 274;
},
{
glyphname = Eogonek;
kernLeft = KO_R;
kernRight = KO_E;
lastChange = "2025-10-13 04:32:50 +0000";
layers = (
{
layerId = m01;
shapes = (
{
closed = 1;
nodes = (
(561.833,0,o),
(580,5.915,o),
(580,42,c),
(553,200,l),
(514,200,l),
(494,111,ls),
(480.667,51,o),
(456.667,40,o),
(370,40,cs),
(280,40,l),
(280,273,l),
(510,273,l),
(510,318,l),
(280,318,l),
(280,660,l),
(350,660,ls),
(438,660,o),
(462,649,o),
(474,589,cs),
(494,490,l),
(533,490,l),
(560,658,l),
(560,694.085,o),
(541.833,700,o),
(499,700,cs),
(70,700,l),
(70,660,l),
(130,660,l),
(130,40,l),
(70,40,l),
(70,0,l),
(449,0,l),
(424,-21,ls),
(376,-61,o),
(347,-94.167,o),
(347,-149.5,cs),
(347,-204.833,o),
(393.333,-238,o),
(456,-238,cs),
(506.667,-238,o),
(548,-218.667,o),
(580,-180,c),
(563,-151,l),
(505.298,-204.855,o),
(438,-177.021,o),
(438,-122.5,cs),
(438,-85.833,o),
(449.333,-58.667,o),
(500,-8,cs),
(508,0,l),
(519,0,l),
(519,0,l)
);
}
);
width = 630;
}
);
note = Eogonek;
unicode = 280;
},
{
glyphname = F;
kernLeft = KO_R;
kernRight = KO_F;
lastChange = "2025-10-13 06:11:50 +0000";
layers = (
{
layerId = m01;
shapes = (
{
closed = 1;
nodes = (
(438,660,o),
(462,649,o),
(474,589,cs),
(494,490,l),
(533,490,l),
(560,658,l),
(560,694.085,o),
(541.833,700,o),
(499,700,cs),
(70,700,l),
(70,660,l),
(130,660,l),
(130,40,l),
(70,40,l),
(70,0,l),
(390,0,l),
(390,40,l),
(280,40,l),
(280,273,l),
(490,273,l),
(490,318,l),
(280,318,l),
(280,660,l),
(350,660,l),
(350,660,l)
);
}
);
width = 570;
}
);
note = F;
unicode = 70;
userData = {
KernOnName = F;
};
},
{
glyphname = G;
kernLeft = KO_O;
kernRight = KO_G;
lastChange = "2025-10-13 04:32:50 +0000";
layers = (
{
layerId = m01;
shapes = (
{
closed = 1;
nodes = (
(485,67,l),
(459.667,56.333,o),
(433.667,51,o),
(407,51,cs),
(275,51,o),
(205,175.167,o),
(205,354.5,cs),
(205,533.833,o),
(269.333,668,o),
(392,668,cs),
(473.333,668,o),
(529,623,o),
(529,571,cs),
(529,556.333,o),
(527.667,541,o),
(525,525,cs),
(520,488,l),
(556,476,l),
(612,568,l),
(619.333,582.667,o),
(623,595.667,o),
(623,607,cs),
(623,665.667,o),
(500,715,o),
(392,715,cs),
(177.333,715,o),
(50,559.667,o),
(50,349,cs),
(50,194.333,o),
(127.667,60,o),
(245,8,c),
(211,-80,ls),
(206.333,-94,o),
(204,-104.667,o),
(204,-112,cs),
(204,-189.333,o),
(303,-237,o),
(391,-237,cs),
(540.333,-237,o),
(635,-168.667,o),
(635,-22,cs),
(635,318,l),
(350,318,l),
(350,273,l),
(485,273,l),
(485,273,l)
);
},
{
closed = 1;
nodes = (
(401.667,-15,o),
(445,-6.333,o),
(485,11,c),
(485,-80,ls),
(485,-153.333,o),
(447.833,-190,o),
(396.5,-190,cs),
(370.833,-190,o),
(350.667,-186,o),
(336,-178,cs),
(304,-160,o),
(288,-113,o),
(288,-37,cs),
(288,-6,l),
(309.333,-12,o),
(331.667,-15,o),
(355,-15,cs)
);
}
);
width = 700;
}
);
note = G;
unicode = 71;
},
{
glyphname = Gbreve;
kernLeft = KO_O;
kernRight = KO_G;
lastChange = "2025-10-13 04:32:50 +0000";
layers = (
{
layerId = m01;
shapes = (
{
closed = 1;
nodes = (
(485,67,l),
(459.667,56.333,o),
(433.667,51,o),
(407,51,cs),
(275,51,o),
(205,175.167,o),
(205,354.5,cs),
(205,533.833,o),
(269.333,668,o),
(392,668,cs),
(473.333,668,o),
(529,623,o),
(529,571,cs),
(529,556.333,o),
(527.667,541,o),
(525,525,cs),
(520,488,l),
(556,476,l),
(612,568,l),
(619.333,582.667,o),
(623,595.667,o),
(623,607,cs),
(623,665.667,o),
(500,715,o),
(392,715,cs),
(177.333,715,o),
(50,559.667,o),
(50,349,cs),
(50,194.333,o),
(127.667,60,o),
(245,8,c),
(211,-80,ls),
(206.333,-94,o),
(204,-104.667,o),
(204,-112,cs),
(204,-189.333,o),
(303,-237,o),
(391,-237,cs),
(540.333,-237,o),
(635,-168.667,o),
(635,-22,cs),
(635,318,l),
(350,318,l),
(350,273,l),
(485,273,l),
(485,273,l)
);
},
{
closed = 1;
nodes = (
(401.667,-15,o),
(445,-6.333,o),
(485,11,c),
(485,-80,ls),
(485,-153.333,o),
(447.833,-190,o),
(396.5,-190,cs),
(370.833,-190,o),
(350.667,-186,o),
(336,-178,cs),
(304,-160,o),
(288,-113,o),
(288,-37,cs),
(288,-6,l),
(309.333,-12,o),
(331.667,-15,o),
(355,-15,cs)
);
},
{
closed = 1;
nodes = (
(318,888,o),
(290.667,915.333,o),
(258,960,c),
(214,931,l),
(247.333,870.333,o),
(276.333,828.167,o),
(301,804.5,cs),
(325.667,780.833,o),
(352,769,o),
(380,769,cs),
(408,769,o),
(434.333,780.833,o),
(459,804.5,cs),
(483.667,828.167,o),
(512.667,870.333,o),
(546,931,c),
(501,960,l),
(450.332,889.627,o),
(403.212,851.384,o),
(340,878,cs)
);
}
);
width = 700;
}
);
note = Gbreve;
unicode = 286;
},
{
glyphname = Gcircumflex;
kernLeft = KO_O;
kernRight = KO_G;
lastChange = "2025-10-13 04:32:50 +0000";
layers = (
{
layerId = m01;
shapes = (
{
closed = 1;
nodes = (
(485,67,l),
(459.667,56.333,o),
(433.667,51,o),
(407,51,cs),
(275,51,o),
(205,175.167,o),
(205,354.5,cs),
(205,533.833,o),
(269.333,668,o),
(392,668,cs),
(473.333,668,o),
(529,623,o),
(529,571,cs),
(529,556.333,o),
(527.667,541,o),
(525,525,cs),
(520,488,l),
(556,476,l),
(612,568,l),
(619.333,582.667,o),
(623,595.667,o),
(623,607,cs),
(623,665.667,o),
(500,715,o),
(392,715,cs),
(177.333,715,o),
(50,559.667,o),
(50,349,cs),
(50,194.333,o),
(127.667,60,o),
(245,8,c),
(211,-80,ls),
(206.333,-94,o),
(204,-104.667,o),
(204,-112,cs),
(204,-189.333,o),
(303,-237,o),
(391,-237,cs),
(540.333,-237,o),
(635,-168.667,o),
(635,-22,cs),
(635,318,l),
(350,318,l),
(350,273,l),
(485,273,l),
(485,273,l)
);
},
{
closed = 1;
nodes = (
(401.667,-15,o),
(445,-6.333,o),
(485,11,c),
(485,-80,ls),
(485,-153.333,o),
(447.833,-190,o),
(396.5,-190,cs),
(370.833,-190,o),
(350.667,-186,o),
(336,-178,cs),
(304,-160,o),
(288,-113,o),
(288,-37,cs),
(288,-6,l),
(309.333,-12,o),
(331.667,-15,o),
(355,-15,cs)
);
},
{
closed = 1;
nodes = (
(214,783,l),
(235,759,l),
(376,854,l),
(384,854,l),
(525,759,l),
(546,783,l),
(438,927,ls),
(419.333,952.333,o),
(400,965,o),
(380,965,cs),
(360,965,o),
(340.667,952.333,o),
(322,927,cs)
);
}
);
width = 700;
}
);
note = Gcircumflex;
unicode = 284;
},
{
glyphname = Gcommaaccent;
kernLeft = KO_O;
kernRight = KO_G;
lastChange = "2025-10-13 04:32:50 +0000";
layers = (
{
layerId = m01;
shapes = (
{
closed = 1;
nodes = (
(485,67,l),
(459.667,56.333,o),
(433.667,51,o),
(407,51,cs),
(275,51,o),
(205,175.167,o),
(205,354.5,cs),
(205,533.833,o),
(269.333,668,o),
(392,668,cs),
(473.333,668,o),
(529,623,o),
(529,571,cs),
(529,556.333,o),
(527.667,541,o),
(525,525,cs),
(520,488,l),
(556,476,l),
(612,568,l),
(619.333,582.667,o),
(623,595.667,o),
(623,607,cs),
(623,665.667,o),
(500,715,o),
(392,715,cs),
(177.333,715,o),
(50,558.667,o),
(50,352,cs),
(50,145.333,o),
(181.667,-15,o),
(355,-15,cs),
(431,-15,o),
(494,6.333,o),
(544,49,c),
(580,0,l),
(635,0,l),
(635,318,l),
(350,318,l),
(350,273,l),
(485,273,l),
(485,273,l)
);
},
{
closed = 1;
nodes = (
(334,-258,o),
(319.333,-288,o),
(290,-322,c),
(312,-344,l),
(378.667,-284,o),
(417,-203,o),
(417,-143,cs),
(417,-83,o),
(388.5,-54,o),
(350.5,-54,cs),
(312.5,-54,o),
(283,-83.5,o),
(283,-121.5,cs),
(283,-140.5,o),
(291.5,-159.833,o),
(308.5,-179.5,cs),
(325.5,-199.167,o),
(334,-216.667,o),
(334,-232,cs)
);
}
);
width = 700;
}
);
note = uni0122;
unicode = 290;
},
{
glyphname = Gdotaccent;
kernLeft = KO_O;
kernRight = KO_G;
lastChange = "2025-10-13 04:32:50 +0000";
layers = (
{
layerId = m01;
shapes = (
{
closed = 1;
nodes = (
(485,67,l),
(459.667,56.333,o),
(433.667,51,o),
(407,51,cs),
(275,51,o),
(205,175.167,o),
(205,354.5,cs),
(205,533.833,o),
(269.333,668,o),
(392,668,cs),
(473.333,668,o),
(529,623,o),
(529,571,cs),
(529,556.333,o),
(527.667,541,o),
(525,525,cs),
(520,488,l),
(556,476,l),
(612,568,l),
(619.333,582.667,o),
(623,595.667,o),
(623,607,cs),
(623,665.667,o),
(500,715,o),
(392,715,cs),
(177.333,715,o),
(50,559.667,o),
(50,349,cs),
(50,194.333,o),
(127.667,60,o),
(245,8,c),
(211,-80,ls),
(206.333,-94,o),
(204,-104.667,o),
(204,-112,cs),
(204,-189.333,o),
(303,-237,o),
(391,-237,cs),
(540.333,-237,o),
(635,-168.667,o),
(635,-22,cs),
(635,318,l),
(350,318,l),
(350,273,l),
(485,273,l),
(485,273,l)
);
},
{
closed = 1;
nodes = (
(401.667,-15,o),
(445,-6.333,o),
(485,11,c),
(485,-80,ls),
(485,-153.333,o),
(447.833,-190,o),
(396.5,-190,cs),
(370.833,-190,o),
(350.667,-186,o),
(336,-178,cs),
(304,-160,o),
(288,-113,o),
(288,-37,cs),
(288,-6,l),
(309.333,-12,o),
(331.667,-15,o),
(355,-15,cs)
);
},
{
closed = 1;
nodes = (
(323.5,813.5,l),
(355.006,781.994,o),
(404.994,781.994,o),
(436.5,813.5,cs),
(452.167,829.167,o),
(460,848,o),
(460,870,cs),
(460,914,o),
(424,950,o),
(380,950,cs),
(336,950,o),
(300,914,o),
(300,870,cs),
(300,848,o),
(307.833,829.167,o),
(323.5,813.5,c)
);
}
);
width = 700;
}
);
note = Gdotaccent;
unicode = 288;
},
{
glyphname = H;
kernLeft = KO_H;
kernRight = KO_H;
lastChange = "2025-10-13 04:55:20 +0000";
layers = (
{
layerId = m01;
shapes = (
{
closed = 1;
nodes = (
(680,700,l),
(530,700,l),
(530,660,l),
(530,660,l),
(530,318,l),
(280,318,l),
(280,660,l),
(280,660,l),
(280,700,l),
(130,700,l),
(130,660,l),
(130,660,l),
(130,40,l),
(130,40,l),
(130,0,l),
(280,0,l),
(280,40,l),
(280,40,l),
(280,273,l),
(530,273,l),
(530,40,l),
(530,40,l),
(530,0,l),
(680,0,l),
(680,40,l),
(680,40,l),
(680,660,l),
(680,660,l),
(680,660,l)
);
}
);
width = 810;
}
);
note = H;
unicode = 72;
},
{
glyphname = Hbar;
lastChange = "2025-10-13 04:32:50 +0000";
layers = (
{
layerId = m01;
shapes = (
{
closed = 1;
nodes = (
(130,40,l),
(70,40,l),
(70,0,l),
(340,0,l),
(340,40,l),
(280,40,l),
(280,273,l),
(530,273,l),
(530,40,l),
(470,40,l),
(470,0,l),
(740,0,l),
(740,40,l),
(680,40,l),
(680,455,l),
(775,455,l),
(775,500,l),
(680,500,l),
(680,660,l),
(740,660,l),
(740,700,l),
(470,700,l),
(470,660,l),
(530,660,l),
(530,500,l),
(280,500,l),
(280,660,l),
(340,660,l),
(340,700,l),
(70,700,l),
(70,660,l),
(130,660,l),
(130,500,l),
(25,500,l),
(25,455,l),
(130,455,l),
(130,455,l)
);
},
{
closed = 1;
nodes = (
(530,455,l),
(530,318,l),
(280,318,l),
(280,455,l),
(280,455,l)
);
}
);
width = 810;
}
);
note = Hbar;
unicode = 294;
},
{
glyphname = Hcircumflex;
kernLeft = KO_R;
kernRight = KO_Iacute;
lastChange = "2025-10-13 04:32:50 +0000";
layers = (
{
layerId = m01;
shapes = (
{
closed = 1;
nodes = (
(740,700,l),
(470,700,l),
(470,660,l),
(530,660,l),
(530,318,l),
(280,318,l),
(280,660,l),
(340,660,l),
(340,700,l),
(70,700,l),
(70,660,l),
(130,660,l),
(130,40,l),
(70,40,l),
(70,0,l),
(340,0,l),
(340,40,l),
(280,40,l),
(280,273,l),
(530,273,l),
(530,40,l),
(470,40,l),
(470,0,l),
(740,0,l),
(740,40,l),
(680,40,l),
(680,660,l),
(740,660,l),
(740,660,l)
);
},
{
closed = 1;
nodes = (
(239,783,l),
(260,759,l),
(401,854,l),
(409,854,l),
(550,759,l),
(571,783,l),
(463,927,ls),
(444.333,952.333,o),
(425,965,o),
(405,965,cs),
(385,965,o),
(365.667,952.333,o),
(347,927,cs)
);
}
);
width = 810;
}
);
note = Hcircumflex;
unicode = 292;
},
{
glyphname = I;
kernLeft = KO_H;
kernRight = KO_H;
lastChange = "2025-10-13 05:48:39 +0000";
layers = (
{
anchors = (
{
name = bottom;
pos = (205,0);
},
{
name = ogonek;
pos = (369,10);
},
{
name = top;
pos = (205,700);
},
{
name = topleft;
pos = (20,700);
}
);
layerId = m01;
shapes = (
{
closed = 1;
nodes = (
(130,40,l),
(130,40,l),
(130,0,l),
(280,0,l),
(280,40,l),
(280,40,l),
(280,660,l),
(280,660,l),
(280,700,l),
(130,700,l),
(130,660,l),
(130,660,l),
(130,660,l)
);
}
);
width = 410;
}
);
note = I;
unicode = 73;
},
{
glyphname = IJ;
kernLeft = KO_Iacute;
lastChange = "2025-10-13 04:32:50 +0000";
layers = (
{
layerId = m01;
shapes = (
{
closed = 1;
nodes = (
(130,40,l),
(60,40,l),
(60,0,l),
(350,0,l),
(350,40,l),
(280,40,l),
(280,660,l),
(350,660,l),
(350,700,l),
(60,700,l),
(60,660,l),
(130,660,l),
(130,660,l)
);
},
{
closed = 1;
nodes = (
(885,700,l),
(580,700,l),
(580,660,l),
(675,660,l),
(675,132,ls),
(675,65.333,o),
(642.167,32,o),
(593.5,32,cs),
(544.833,32,o),
(514,67.667,o),
(514,109,cs),
(514,129.667,o),
(515.333,151.667,o),
(518,175,cs),
(527,237,l),
(491,248,l),
(431,132,ls),
(423.667,117.333,o),
(420,104.333,o),
(420,93,cs),
(420,34.333,o),
(509.667,-15,o),
(591,-15,cs),
(733.667,-15,o),
(825,50,o),
(825,190,cs),
(825,660,l),
(885,660,l),
(885,660,l)
);
}
);
width = 945;
}
);
note = IJ;
unicode = 306;
},
{
glyphname = Iacute;
kernLeft = KO_Iacute;
kernRight = KO_Iacute;
lastChange = "2025-10-13 04:32:50 +0000";
layers = (
{
layerId = m01;
shapes = (
{
closed = 1;
nodes = (
(130,40,l),
(60,40,l),
(60,0,l),
(350,0,l),
(350,40,l),
(280,40,l),
(280,660,l),
(350,660,l),
(350,700,l),
(60,700,l),
(60,660,l),
(130,660,l),
(130,660,l)
);
},
{
closed = 1;
nodes = (
(330.667,862.667,o),
(351,882.333,o),
(351,913,cs),
(351,943.667,o),
(324.5,965,o),
(298.5,965,cs),
(272.5,965,o),
(254.833,953.833,o),
(243.5,942.5,cs),
(237.833,936.833,o),
(229.333,927.667,o),
(218,915,cs),
(99,783,l),
(120,759,l),
(268,832,l),
(268,832,l)
);
}
);
width = 410;
}
);
note = Iacute;
unicode = 205;
},
{
glyphname = Ibreve;
kernLeft = KO_Iacute;
kernRight = KO_Iacute;
lastChange = "2025-10-13 04:32:50 +0000";
layers = (
{
layerId = m01;
shapes = (
{
closed = 1;
nodes = (
(130,40,l),
(60,40,l),
(60,0,l),
(350,0,l),
(350,40,l),
(280,40,l),
(280,660,l),
(350,660,l),
(350,700,l),
(60,700,l),
(60,660,l),
(130,660,l),
(130,660,l)
);
},
{
closed = 1;
nodes = (
(143,888,o),
(115.667,915.333,o),
(83,960,c),
(39,931,l),
(72.333,870.333,o),
(101.333,828.167,o),
(126,804.5,cs),
(150.667,780.833,o),
(177,769,o),
(205,769,cs),
(233,769,o),
(259.333,780.833,o),
(284,804.5,cs),
(308.667,828.167,o),
(337.667,870.333,o),
(371,931,c),
(326,960,l),
(275.332,889.627,o),
(228.212,851.384,o),
(165,878,cs)
);
}
);
width = 410;
}
);
note = Ibreve;
unicode = 300;
},
{
glyphname = Icircumflex;
kernLeft = KO_Iacute;
kernRight = KO_Iacute;
lastChange = "2025-10-13 04:32:50 +0000";
layers = (
{
layerId = m01;
shapes = (
{
closed = 1;
nodes = (
(130,40,l),
(60,40,l),
(60,0,l),
(350,0,l),
(350,40,l),
(280,40,l),
(280,660,l),
(350,660,l),
(350,700,l),
(60,700,l),
(60,660,l),
(130,660,l),
(130,660,l)
);
},
{
closed = 1;
nodes = (
(39,783,l),
(60,759,l),
(201,854,l),
(209,854,l),
(350,759,l),
(371,783,l),
(263,927,ls),
(244.333,952.333,o),
(225,965,o),
(205,965,cs),
(185,965,o),
(165.667,952.333,o),
(147,927,cs)
);
}
);
width = 410;
}
);
note = Icircumflex;
unicode = 206;
},
{
glyphname = Idieresis;
kernLeft = KO_Iacute;
kernRight = KO_Iacute;
lastChange = "2025-10-13 04:32:50 +0000";
layers = (
{
layerId = m01;
shapes = (
{
closed = 1;
nodes = (
(130,40,l),
(60,40,l),
(60,0,l),
(350,0,l),
(350,40,l),
(280,40,l),
(280,660,l),
(350,660,l),
(350,700,l),
(60,700,l),
(60,660,l),
(130,660,l),
(130,660,l)
);
},
{
closed = 1;
nodes = (
(26,816,l),
(55.512,786.488,o),
(104.488,786.488,o),
(134,816,cs),
(148.667,830.667,o),
(156,848.667,o),
(156,870,cs),
(156,912.667,o),
(122.667,946,o),
(80,946,cs),
(37.333,946,o),
(4,912.667,o),
(4,870,cs),
(4,848.667,o),
(11.333,830.667,o),
(26,816,c)
);
},
{
closed = 1;
nodes = (
(256,816,l),
(285.512,786.488,o),
(334.488,786.488,o),
(364,816,cs),
(378.667,830.667,o),
(386,848.667,o),
(386,870,cs),
(386,912.667,o),
(352.667,946,o),
(310,946,cs),
(267.333,946,o),
(234,912.667,o),
(234,870,cs),
(234,848.667,o),
(241.333,830.667,o),
(256,816,c)
);
}
);
width = 410;
}
);
note = Idieresis;
unicode = 207;
},
{
glyphname = Idotaccent;
kernLeft = KO_Iacute;
kernRight = KO_Iacute;
lastChange = "2025-10-13 04:32:50 +0000";
layers = (
{
layerId = m01;
shapes = (
{
closed = 1;
nodes = (
(130,40,l),
(60,40,l),
(60,0,l),
(350,0,l),
(350,40,l),
(280,40,l),
(280,660,l),
(350,660,l),
(350,700,l),
(60,700,l),
(60,660,l),
(130,660,l),
(130,660,l)
);
},
{
closed = 1;
nodes = (
(148.5,813.5,l),
(180.006,781.994,o),
(229.994,781.994,o),
(261.5,813.5,cs),
(277.167,829.167,o),
(285,848,o),
(285,870,cs),
(285,914,o),
(249,950,o),
(205,950,cs),
(161,950,o),
(125,914,o),
(125,870,cs),
(125,848,o),
(132.833,829.167,o),
(148.5,813.5,c)
);
}
);
width = 410;
}
);
note = Idotaccent;
unicode = 304;
},
{
glyphname = Igrave;
kernLeft = KO_Iacute;
kernRight = KO_Iacute;
lastChange = "2025-10-13 04:32:50 +0000";
layers = (
{
layerId = m01;
shapes = (
{
closed = 1;
nodes = (
(130,40,l),
(60,40,l),
(60,0,l),
(350,0,l),
(350,40,l),
(280,40,l),
(280,660,l),
(350,660,l),
(350,700,l),
(60,700,l),
(60,660,l),
(130,660,l),
(130,660,l)
);
},
{
closed = 1;
nodes = (
(189.333,940.333,o),
(182.5,948.667,o),
(164.5,958,cs),
(155.5,962.667,o),
(144.5,965,o),
(131.5,965,cs),
(105.5,965,o),
(79,943.667,o),
(79,913,cs),
(79,882.333,o),
(99.333,862.667,o),
(162,832,cs),
(310,759,l),
(331,783,l),
(212,915,l),
(212,915,l)
);
}
);
width = 410;
}
);
note = Igrave;
unicode = 204;
},
{
glyphname = Imacron;
kernLeft = KO_Iacute;
kernRight = KO_Iacute;
lastChange = "2025-10-13 04:32:50 +0000";
layers = (
{
layerId = m01;
shapes = (
{
closed = 1;
nodes = (
(130,40,l),
(60,40,l),
(60,0,l),
(350,0,l),
(350,40,l),
(280,40,l),
(280,660,l),
(350,660,l),
(350,700,l),
(60,700,l),
(60,660,l),
(130,660,l),
(130,660,l)
);
},
{
closed = 1;
nodes = (
(352,812,l),
(352,900,l),
(58,900,l),
(58,812,l),
(58,812,l)
);
}
);
width = 410;
}
);
note = Imacron;
unicode = 298;
},
{
glyphname = Iogonek;
kernLeft = KO_Iacute;
kernRight = KO_Iacute;
lastChange = "2025-10-13 04:32:50 +0000";
layers = (
{
layerId = m01;
shapes = (
{
closed = 1;
nodes = (
(187,-21,ls),
(151,-50.333,o),
(135,-61.833,o),
(115,-94.5,cs),
(105,-110.833,o),
(100,-127,o),
(100,-143,cs),
(100,-207,o),
(146.333,-238,o),
(209,-238,cs),
(259.667,-238,o),
(301,-218.667,o),
(333,-180,c),
(316,-151,l),
(258.298,-204.855,o),
(191,-177.021,o),
(191,-122.5,cs),
(191,-85.833,o),
(202.333,-58.667,o),
(253,-8,cs),
(261,0,l),
(350,0,l),
(350,40,l),
(280,40,l),
(280,660,l),
(350,660,l),
(350,700,l),
(60,700,l),
(60,660,l),
(130,660,l),
(130,40,l),
(60,40,l),
(60,0,l),
(213,0,l),
(213,0,l)
);
}
);
width = 410;
}
);
note = Iogonek;
unicode = 302;
},
{
glyphname = Itilde;
kernLeft = KO_Iacute;
kernRight = KO_Iacute;
lastChange = "2025-10-13 04:32:50 +0000";
layers = (
{
layerId = m01;
shapes = (
{
closed = 1;
nodes = (
(130,40,l),
(60,40,l),
(60,0,l),
(350,0,l),
(350,40,l),
(280,40,l),
(280,660,l),
(350,660,l),
(350,700,l),
(60,700,l),
(60,660,l),
(130,660,l),
(130,660,l)
);
},
{
closed = 1;
nodes = (
(381.509,919.037,o),
(326.046,1000.621,o),
(229,943,cs),
(144,895,ls),
(136.667,890.333,o),
(129,888,o),
(121,888,cs),
(102.333,888,o),
(93,901,o),
(93,927,cs),
(93,942,l),
(57,942,l),
(29.491,831.963,o),
(84.954,750.379,o),
(182,808,cs),
(267,856,ls),
(274.333,860.667,o),
(282,863,o),
(290,863,cs),
(308.667,863,o),
(318,850,o),
(318,824,cs),
(318,809,l),
(354,809,l),
(354,809,l)
);
}
);
width = 410;
}
);
note = Itilde;
unicode = 296;
},
{
glyphname = J;
kernLeft = KO_J;
kernRight = KO_J;
lastChange = "2025-10-13 06:11:50 +0000";
layers = (
{
layerId = m01;
shapes = (
{
closed = 1;
nodes = (
(415,700,l),
(265,700,l),
(265,660,l),
(265,660,l),
(265,132,ls),
(265,65.333,o),
(232.167,32,o),
(183.5,32,cs),
(134.833,32,o),
(104,67.667,o),
(104,109,cs),
(104,129.667,o),
(105.333,151.667,o),
(108,175,cs),
(117,237,l),
(81,248,l),
(21,132,ls),
(13.667,117.333,o),
(10,104.333,o),
(10,93,cs),
(10,34.333,o),
(99.667,-15,o),
(181,-15,cs),
(323.667,-15,o),
(415,50,o),
(415,190,cs),
(415,660,l),
(415,660,l),
(415,660,l)
);
}
);
width = 535;
}
);
note = J;
unicode = 74;
userData = {
KernOnName = J;
};
},
{
glyphname = Jcircumflex;
kernLeft = KO_J;
lastChange = "2025-10-13 04:32:50 +0000";
layers = (
{
layerId = m01;
shapes = (
{
closed = 1;
nodes = (
(475,700,l),
(170,700,l),
(170,660,l),
(265,660,l),
(265,132,ls),
(265,65.333,o),
(232.167,32,o),
(183.5,32,cs),
(134.833,32,o),
(104,67.667,o),
(104,109,cs),
(104,129.667,o),
(105.333,151.667,o),
(108,175,cs),
(117,237,l),
(81,248,l),
(21,132,ls),
(13.667,117.333,o),
(10,104.333,o),
(10,93,cs),
(10,34.333,o),
(99.667,-15,o),
(181,-15,cs),
(323.667,-15,o),
(415,50,o),
(415,190,cs),
(415,660,l),
(475,660,l),
(475,660,l)
);
},
{
closed = 1;
nodes = (
(157,783,l),
(178,759,l),
(319,854,l),
(327,854,l),
(468,759,l),
(489,783,l),
(381,927,ls),
(362.333,952.333,o),
(343,965,o),
(323,965,cs),
(303,965,o),
(283.667,952.333,o),
(265,927,cs)
);
}
);
width = 535;
}
);
note = Jcircumflex;
unicode = 308;
},
{
glyphname = K;
kernLeft = KO_H;
kernRight = KO_K;
lastChange = "2025-10-13 04:56:47 +0000";
layers = (
{
layerId = m01;
shapes = (
{
closed = 1;
nodes = (
(655,61,l),
(615,41,o),
(584,53,o),
(571,98,cs),
(529,238,ls),
(509.667,302.667,o),
(457.333,335,o),
(372,335,cs),
(307,335,l),
(597,660,l),
(597,700,l),
(493,700,l),
(280,355,l),
(280,660,l),
(280,660,l),
(280,700,l),
(130,700,l),
(130,660,l),
(130,660,l),
(130,660,l),
(130,40,l),
(130,40,l),
(130,0,l),
(280,0,l),
(280,40,l),
(280,40,l),
(280,303,l),
(333.333,300.333,o),
(351.333,288.333,o),
(362,251,cs),
(421,57,ls),
(437,3.667,o),
(473.667,-15,o),
(535,-15,cs),
(582,-15,o),
(628,0,o),
(671,31,c)
);
}
);
width = 685;
}
);
note = K;
unicode = 75;
},
{
glyphname = Kcommaaccent;
kernLeft = KO_R;
lastChange = "2025-10-13 04:32:50 +0000";
layers = (
{
layerId = m01;
shapes = (
{
closed = 1;
nodes = (
(130,40,l),
(70,40,l),
(70,0,l),
(340,0,l),
(340,40,l),
(280,40,l),
(280,303,l),
(333.333,300.333,o),
(351.333,288.333,o),
(362,251,cs),
(421,57,ls),
(437,3.667,o),
(473.667,-15,o),
(535,-15,cs),
(595,-15,o),
(651.667,9.333,o),
(705,58,c),
(687,82,l),
(632.285,36.665,o),
(586.776,41.657,o),
(571,98,cs),
(529,238,ls),
(509.667,302.667,o),
(457.333,335,o),
(372,335,cs),
(307,335,l),
(597,660,l),
(652,660,l),
(652,700,l),
(493,700,l),
(280,355,l),
(280,660,l),
(340,660,l),
(340,700,l),
(70,700,l),
(70,660,l),
(130,660,l),
(130,660,l)
);
},
{
closed = 1;
nodes = (
(367,-258,o),
(352.333,-288,o),
(323,-322,c),
(345,-344,l),
(411.667,-284,o),
(450,-203,o),
(450,-143,cs),
(450,-83,o),
(421.5,-54,o),
(383.5,-54,cs),
(345.5,-54,o),
(316,-83.5,o),
(316,-121.5,cs),
(316,-140.5,o),
(324.5,-159.833,o),
(341.5,-179.5,cs),
(358.5,-199.167,o),
(367,-216.667,o),
(367,-232,cs)
);
}
);
width = 685;
}
);
note = uni0136;
unicode = 310;
},
{
glyphname = L;
kernLeft = KO_H;
kernRight = KO_L;
lastChange = "2025-10-13 06:11:50 +0000";
layers = (
{
layerId = m01;
shapes = (
{
closed = 1;
nodes = (
(130,40,l),
(130,40,l),
(130,0,l),
(499,0,ls),
(542,0,o),
(560,5.915,o),
(560,42,c),
(533,210,l),
(494,210,l),
(474,111,ls),
(462,51,o),
(438,40,o),
(350,40,cs),
(280,40,l),
(280,660,l),
(280,660,l),
(280,700,l),
(130,700,l),
(130,660,l),
(130,660,l),
(130,660,l)
);
}
);
width = 570;
}
);
note = L;
unicode = 76;
userData = {
KernOnName = L;
};
},
{
glyphname = Lacute;
kernLeft = KO_R;
kernRight = KO_L;
lastChange = "2025-10-13 04:32:50 +0000";
layers = (
{
layerId = m01;
shapes = (
{
closed = 1;
nodes = (
(130,40,l),
(70,40,l),
(70,0,l),
(499,0,ls),
(541.833,0,o),
(560,5.915,o),
(560,42,c),
(533,210,l),
(494,210,l),
(474,111,ls),
(462,51,o),
(438,40,o),
(350,40,cs),
(280,40,l),
(280,660,l),
(340,660,l),
(340,700,l),
(70,700,l),
(70,660,l),
(130,660,l),
(130,660,l)
);
},
{
closed = 1;
nodes = (
(319.667,862.667,o),
(340,882.333,o),
(340,913,cs),
(340,943.667,o),
(313.5,965,o),
(287.5,965,cs),
(261.5,965,o),
(243.833,953.833,o),
(232.5,942.5,cs),
(226.833,936.833,o),
(218.333,927.667,o),
(207,915,cs),
(88,783,l),
(109,759,l),
(257,832,l),
(257,832,l)
);
}
);
width = 570;
}
);
note = Lacute;
unicode = 313;
},
{
glyphname = Lcaron;
kernLeft = KO_R;
lastChange = "2025-10-13 04:32:50 +0000";
layers = (
{
layerId = m01;
shapes = (
{
closed = 1;
nodes = (
(130,40,l),
(70,40,l),
(70,0,l),
(499,0,ls),
(541.833,0,o),
(560,5.915,o),
(560,42,c),
(533,210,l),
(494,210,l),
(474,111,ls),
(462,51,o),
(438,40,o),
(350,40,cs),
(280,40,l),
(280,660,l),
(340,660,l),
(340,700,l),
(70,700,l),
(70,660,l),
(130,660,l),
(130,660,l)
);
},
{
closed = 1;
nodes = (
(437,586,o),
(422.333,556,o),
(393,522,c),
(415,500,l),
(481.667,560,o),
(520,641,o),
(520,701,cs),
(520,761,o),
(491.5,790,o),
(453.5,790,cs),
(415.5,790,o),
(386,760.5,o),
(386,722.5,cs),
(386,703.5,o),
(394.5,684.167,o),
(411.5,664.5,cs),
(428.5,644.833,o),
(437,627.333,o),
(437,612,cs)
);
}
);
width = 570;
}
);
note = Lcaron;
unicode = 317;
},
{
glyphname = Lcommaaccent;
kernLeft = KO_R;
kernRight = KO_L;
lastChange = "2025-10-13 04:32:50 +0000";
layers = (
{
layerId = m01;
shapes = (
{
closed = 1;
nodes = (
(130,40,l),
(70,40,l),
(70,0,l),
(499,0,ls),
(541.833,0,o),
(560,5.915,o),
(560,42,c),
(533,210,l),
(494,210,l),
(474,111,ls),
(462,51,o),
(438,40,o),
(350,40,cs),
(280,40,l),
(280,660,l),
(340,660,l),
(340,700,l),
(70,700,l),
(70,660,l),
(130,660,l),
(130,660,l)
);
},
{
closed = 1;
nodes = (
(190,-258,o),
(175.333,-288,o),
(146,-322,c),
(168,-344,l),
(234.667,-284,o),
(273,-203,o),
(273,-143,cs),
(273,-83,o),
(244.5,-54,o),
(206.5,-54,cs),
(168.5,-54,o),
(139,-83.5,o),
(139,-121.5,cs),
(139,-140.5,o),
(147.5,-159.833,o),
(164.5,-179.5,cs),
(181.5,-199.167,o),
(190,-216.667,o),
(190,-232,cs)
);
}
);
width = 570;
}
);
note = uni013B;
unicode = 315;
},
{
glyphname = Ldot;
kernLeft = KO_R;
lastChange = "2025-10-13 06:11:45 +0000";
layers = (
{
layerId = m01;
shapes = (
{
closed = 1;
nodes = (
(130,40,l),
(70,40,l),
(70,0,l),
(499,0,ls),
(541.833,0,o),
(560,5.915,o),
(560,42,c),
(533,210,l),
(494,210,l),
(474,111,ls),
(462,51,o),
(438,40,o),
(350,40,cs),
(280,40,l),
(280,660,l),
(340,660,l),
(340,700,l),
(70,700,l),
(70,660,l),
(130,660,l),
(130,660,l)
);
},
{
closed = 1;
nodes = (
(376.5,357.5,l),
(406.702,327.298,o),
(455.298,327.298,o),
(485.5,357.5,cs),
(500.5,372.5,o),
(508,390.667,o),
(508,412,cs),
(508,454.667,o),
(473.667,489,o),
(431,489,cs),
(388.333,489,o),
(354,454.667,o),
(354,412,cs),
(354,390.667,o),
(361.5,372.5,o),
(376.5,357.5,c)
);
}
);
width = 570;
}
);
note = Ldot;
unicode = 319;
userData = {
KernOnSpecialSpacing = {
R = NoKerning;
};
};
},
{
glyphname = Lslash;
kernRight = KO_L;
lastChange = "2025-10-13 04:32:50 +0000";
layers = (
{
layerId = m01;
shapes = (
{
closed = 1;
nodes = (
(34,331,l),
(53,293,l),
(130,332,l),
(130,40,l),
(70,40,l),
(70,0,l),
(499,0,ls),
(541.833,0,o),
(560,5.915,o),
(560,42,c),
(533,210,l),
(494,210,l),
(474,111,ls),
(462,51,o),
(438,40,o),
(350,40,cs),
(280,40,l),
(280,408,l),
(377,458,l),
(358,496,l),
(280,456,l),
(280,660,l),
(340,660,l),
(340,700,l),
(70,700,l),
(70,660,l),
(130,660,l),
(130,380,l),
(130,380,l)
);
}
);
width = 570;
}
);
note = Lslash;
unicode = 321;
},
{
glyphname = M;
kernLeft = KO_M;
kernRight = KO_M;
lastChange = "2025-10-13 04:57:51 +0000";
layers = (
{
layerId = m01;
shapes = (
{
closed = 1;
nodes = (
(80,0,l),
(140,0,l),
(168,534,l),
(331,0,l),
(482,0,l),
(636,535,l),
(671,0,l),
(822,0,l),
(780,700,l),
(601,700,l),
(601,681,l),
(608,646,l),
(451,101,l),
(269,700,l),
(98,700,l),
(98,681,l),
(115,660,l),
(115,660,l)
);
}
);
width = 908;
}
);
note = M;
unicode = 77;
},
{
glyphname = N;
kernLeft = KO_N;
kernRight = KO_N;
lastChange = "2025-10-13 04:58:21 +0000";
layers = (
{
layerId = m01;
shapes = (
{
closed = 1;
nodes = (
(190,0,l),
(190,592,l),
(491,0,l),
(650,0,l),
(650,700,l),
(580,700,l),
(580,137,l),
(294,700,l),
(101,700,l),
(101,683,l),
(120,660,l),
(120,0,l)
);
}
);
width = 770;
}
);
note = N;
unicode = 78;
},
{
glyphname = Nacute;
kernLeft = KO_Eng;
kernRight = KO_Eng;
lastChange = "2025-10-13 04:32:50 +0000";
layers = (
{
layerId = m01;
shapes = (
{
closed = 1;
nodes = (
(250,40,l),
(190,40,l),
(190,592,l),
(491,0,l),
(650,0,l),
(650,660,l),
(710,660,l),
(710,700,l),
(520,700,l),
(520,660,l),
(580,660,l),
(580,137,l),
(294,700,l),
(60,700,l),
(60,660,l),
(120,660,l),
(120,40,l),
(60,40,l),
(60,0,l),
(250,0,l),
(250,0,l)
);
},
{
closed = 1;
nodes = (
(540.667,862.667,o),
(561,882.333,o),
(561,913,cs),
(561,943.667,o),
(534.5,965,o),
(508.5,965,cs),
(482.5,965,o),
(464.833,953.833,o),
(453.5,942.5,cs),
(447.833,936.833,o),
(439.333,927.667,o),
(428,915,cs),
(309,783,l),
(330,759,l),
(478,832,l),
(478,832,l)
);
}
);
width = 770;
}
);
note = Nacute;
unicode = 323;
},
{
glyphname = Ncaron;
kernLeft = KO_Eng;
kernRight = KO_Eng;
lastChange = "2025-10-13 04:32:50 +0000";
layers = (
{
layerId = m01;
shapes = (
{
closed = 1;
nodes = (
(250,40,l),
(190,40,l),
(190,592,l),
(491,0,l),
(650,0,l),
(650,660,l),
(710,660,l),
(710,700,l),
(520,700,l),
(520,660,l),
(580,660,l),
(580,137,l),
(294,700,l),
(60,700,l),
(60,660,l),
(120,660,l),
(120,40,l),
(60,40,l),
(60,0,l),
(250,0,l),
(250,0,l)
);
},
{
closed = 1;
nodes = (
(567,941,l),
(546,965,l),
(405,870,l),
(397,870,l),
(256,965,l),
(235,941,l),
(343,797,ls),
(361.667,771.667,o),
(381,759,o),
(401,759,cs),
(421,759,o),
(440.333,771.667,o),
(459,797,cs)
);
}
);
width = 770;
}
);
note = Ncaron;
unicode = 327;
},
{
glyphname = Ncommaaccent;
kernLeft = KO_Eng;
kernRight = KO_Eng;
lastChange = "2025-10-13 04:32:50 +0000";
layers = (
{
layerId = m01;
shapes = (
{
closed = 1;
nodes = (
(250,40,l),
(190,40,l),
(190,592,l),
(491,0,l),
(650,0,l),
(650,660,l),
(710,660,l),
(710,700,l),
(520,700,l),
(520,660,l),
(580,660,l),
(580,137,l),
(294,700,l),
(60,700,l),
(60,660,l),
(120,660,l),
(120,40,l),
(60,40,l),
(60,0,l),
(250,0,l),
(250,0,l)
);
},
{
closed = 1;
nodes = (
(369,-258,o),
(354.333,-288,o),
(325,-322,c),
(347,-344,l),
(413.667,-284,o),
(452,-203,o),
(452,-143,cs),
(452,-83,o),
(423.5,-54,o),
(385.5,-54,cs),
(347.5,-54,o),
(318,-83.5,o),
(318,-121.5,cs),
(318,-140.5,o),
(326.5,-159.833,o),
(343.5,-179.5,cs),
(360.5,-199.167,o),
(369,-216.667,o),
(369,-232,cs)
);
}
);
width = 770;
}
);
note = uni0145;
unicode = 325;
},
{
glyphname = Ntilde;
kernLeft = KO_Eng;
kernRight = KO_Eng;
lastChange = "2025-10-13 04:32:50 +0000";
layers = (
{
layerId = m01;
shapes = (
{
closed = 1;
nodes = (
(250,40,l),
(190,40,l),
(190,592,l),
(491,0,l),
(650,0,l),
(650,660,l),
(710,660,l),
(710,700,l),
(520,700,l),
(520,660,l),
(580,660,l),
(580,137,l),
(294,700,l),
(60,700,l),
(60,660,l),
(120,660,l),
(120,40,l),
(60,40,l),
(60,0,l),
(250,0,l),
(250,0,l)
);
},
{
closed = 1;
nodes = (
(573.509,919.037,o),
(518.046,1000.621,o),
(421,943,cs),
(336,895,ls),
(328.667,890.333,o),
(321,888,o),
(313,888,cs),
(294.333,888,o),
(285,901,o),
(285,927,cs),
(285,942,l),
(249,942,l),
(221.491,831.963,o),
(276.954,750.379,o),
(374,808,cs),
(459,856,ls),
(466.333,860.667,o),
(474,863,o),
(482,863,cs),
(500.667,863,o),
(510,850,o),
(510,824,cs),
(510,809,l),
(546,809,l),
(546,809,l)
);
}
);
width = 770;
}
);
note = Ntilde;
unicode = 209;
},
{
glyphname = Eng;
kernLeft = KO_Eng;
kernRight = KO_Eng;
lastChange = "2025-10-13 04:32:50 +0000";
layers = (
{
layerId = m01;
shapes = (
{
closed = 1;
nodes = (
(250,40,l),
(190,40,l),
(190,592,l),
(492,0,ls),
(510,-36,o),
(519,-71.333,o),
(519,-106,cs),
(519,-172,o),
(484.667,-205,o),
(416,-205,cs),
(377.333,-205,o),
(343.667,-192.667,o),
(315,-168,c),
(293,-199,l),
(331.667,-239,o),
(394.667,-265,o),
(460,-265,cs),
(593.333,-265,o),
(650,-192.333,o),
(650,-87,cs),
(650,660,l),
(710,660,l),
(710,700,l),
(520,700,l),
(520,660,l),
(580,660,l),
(580,137,l),
(294,700,l),
(60,700,l),
(60,660,l),
(120,660,l),
(120,40,l),
(60,40,l),
(60,0,l),
(250,0,l),
(250,0,l)
);
}
);
width = 770;
}
);
note = Eng;
unicode = 330;
},
{
glyphname = O;
kernLeft = KO_O;
kernRight = KO_O;
lastChange = "2025-10-13 05:48:36 +0000";
layers = (
{
anchors = (
{
name = bottom;
pos = (384,0);
},
{
name = center;
pos = (384,350);
},
{
name = ogonek;
pos = (691,10);
},
{
name = top;
pos = (384,700);
},
{
name = topleft;
pos = (20,700);
},
{
name = topright;
pos = (748,700);
}
);
layerId = m01;
shapes = (
{
closed = 1;
nodes = (
(50,349,l),
(50,137,o),
(169.5,-15,o),
(383.5,-15,cs),
(597.5,-15,o),
(718,136.833,o),
(718,349.5,cs),
(718,562.167,o),
(597.5,715,o),
(383.5,715,cs),
(169.5,715,o),
(50,561,o),
(50,349,c)
);
},
{
closed = 1;
nodes = (
(498.667,668,o),
(563,527.5,o),
(563,349.5,cs),
(563,171.5,o),
(498.667,32,o),
(384,32,cs),
(345.333,32,o),
(312,47.333,o),
(284,78,cs),
(231.333,134.667,o),
(205,225,o),
(205,349,cs),
(205,473.667,o),
(231.333,564.667,o),
(284,622,cs),
(311.333,652.667,o),
(344.667,668,o),
(384,668,cs)
);
}
);
width = 768;
}
);
note = O;
unicode = 79;
},
{
glyphname = Obreve;
kernLeft = KO_O;
kernRight = KO_O;
lastChange = "2025-10-13 04:32:50 +0000";
layers = (
{
layerId = m01;
shapes = (
{
closed = 1;
nodes = (
(50,349,l),
(50,137,o),
(169.5,-15,o),
(383.5,-15,cs),
(597.5,-15,o),
(718,136.833,o),
(718,349.5,cs),
(718,562.167,o),
(597.5,715,o),
(383.5,715,cs),
(169.5,715,o),
(50,561,o),
(50,349,c)
);
},
{
closed = 1;
nodes = (
(498.667,668,o),
(563,527.5,o),
(563,349.5,cs),
(563,171.5,o),
(498.667,32,o),
(384,32,cs),
(345.333,32,o),
(312,47.333,o),
(284,78,cs),
(231.333,134.667,o),
(205,225,o),
(205,349,cs),
(205,473.667,o),
(231.333,564.667,o),
(284,622,cs),
(311.333,652.667,o),
(344.667,668,o),
(384,668,cs)
);
},
{
closed = 1;
nodes = (
(322,888,o),
(294.667,915.333,o),
(262,960,c),
(218,931,l),
(251.333,870.333,o),
(280.333,828.167,o),
(305,804.5,cs),
(329.667,780.833,o),
(356,769,o),
(384,769,cs),
(412,769,o),
(438.333,780.833,o),
(463,804.5,cs),
(487.667,828.167,o),
(516.667,870.333,o),
(550,931,c),
(505,960,l),
(454.332,889.627,o),
(407.212,851.384,o),
(344,878,cs)
);
}
);
width = 768;
}
);
note = Obreve;
unicode = 334;
},
{
glyphname = Odieresis;
kernLeft = KO_O;
kernRight = KO_O;
lastChange = "2025-10-13 04:32:50 +0000";
layers = (
{
layerId = m01;
shapes = (
{
closed = 1;
nodes = (
(50,349,l),
(50,137,o),
(169.5,-15,o),
(383.5,-15,cs),
(597.5,-15,o),
(718,136.833,o),
(718,349.5,cs),
(718,562.167,o),
(597.5,715,o),
(383.5,715,cs),
(169.5,715,o),
(50,561,o),
(50,349,c)
);
},
{
closed = 1;
nodes = (
(498.667,668,o),
(563,527.5,o),
(563,349.5,cs),
(563,171.5,o),
(498.667,32,o),
(384,32,cs),
(345.333,32,o),
(312,47.333,o),
(284,78,cs),
(231.333,134.667,o),
(205,225,o),
(205,349,cs),
(205,473.667,o),
(231.333,564.667,o),
(284,622,cs),
(311.333,652.667,o),
(344.667,668,o),
(384,668,cs)
);
},
{
closed = 1;
nodes = (
(215.5,816,l),
(245.704,786.467,o),
(292.296,786.467,o),
(322.5,816,cs),
(337.5,830.667,o),
(345,848.667,o),
(345,870,cs),
(345,912.667,o),
(310.333,946,o),
(269,946,cs),
(227.667,946,o),
(193,912.667,o),
(193,870,cs),
(193,848.667,o),
(200.5,830.667,o),
(215.5,816,c)
);
},
{
closed = 1;
nodes = (
(445.5,816,l),
(475.704,786.467,o),
(522.296,786.467,o),
(552.5,816,cs),
(567.5,830.667,o),
(575,848.667,o),
(575,870,cs),
(575,912.667,o),
(540.333,946,o),
(499,946,cs),
(457.667,946,o),
(423,912.667,o),
(423,870,cs),
(423,848.667,o),
(430.5,830.667,o),
(445.5,816,c)
);
}
);
width = 768;
}
);
note = Odieresis;
unicode = 214;
},
{
glyphname = Ohungarumlaut;
kernLeft = KO_O;
kernRight = KO_O;
lastChange = "2025-10-13 04:32:50 +0000";
layers = (
{
layerId = m01;
shapes = (
{
closed = 1;
nodes = (
(50,349,l),
(50,137,o),
(169.5,-15,o),
(383.5,-15,cs),
(597.5,-15,o),
(718,136.833,o),
(718,349.5,cs),
(718,562.167,o),
(597.5,715,o),
(383.5,715,cs),
(169.5,715,o),
(50,561,o),
(50,349,c)
);
},
{
closed = 1;
nodes = (
(498.667,668,o),
(563,527.5,o),
(563,349.5,cs),
(563,171.5,o),
(498.667,32,o),
(384,32,cs),
(345.333,32,o),
(312,47.333,o),
(284,78,cs),
(231.333,134.667,o),
(205,225,o),
(205,349,cs),
(205,473.667,o),
(231.333,564.667,o),
(284,622,cs),
(311.333,652.667,o),
(344.667,668,o),
(384,668,cs)
);
},
{
closed = 1;
nodes = (
(230,782,l),
(254,759,l),
(379,850,ls),
(411,873.333,o),
(427,896.333,o),
(427,919,cs),
(427,963.994,o),
(355.75,1000.846,o),
(303,910,cs)
);
},
{
closed = 1;
nodes = (
(420,782,l),
(444,759,l),
(569,850,ls),
(601,873.333,o),
(617,896.333,o),
(617,919,cs),
(617,963.994,o),
(545.75,1000.846,o),
(493,910,cs)
);
}
);
width = 768;
}
);
note = Ohungarumlaut;
unicode = 336;
},
{
glyphname = Omacron;
kernLeft = KO_O;
kernRight = KO_O;
lastChange = "2025-10-13 04:32:50 +0000";
layers = (
{
layerId = m01;
shapes = (
{
closed = 1;
nodes = (
(50,349,l),
(50,137,o),
(169.5,-15,o),
(383.5,-15,cs),
(597.5,-15,o),
(718,136.833,o),
(718,349.5,cs),
(718,562.167,o),
(597.5,715,o),
(383.5,715,cs),
(169.5,715,o),
(50,561,o),
(50,349,c)
);
},
{
closed = 1;
nodes = (
(498.667,668,o),
(563,527.5,o),
(563,349.5,cs),
(563,171.5,o),
(498.667,32,o),
(384,32,cs),
(345.333,32,o),
(312,47.333,o),
(284,78,cs),
(231.333,134.667,o),
(205,225,o),
(205,349,cs),
(205,473.667,o),
(231.333,564.667,o),
(284,622,cs),
(311.333,652.667,o),
(344.667,668,o),
(384,668,cs)
);
},
{
closed = 1;
nodes = (
(531,812,l),
(531,900,l),
(237,900,l),
(237,812,l),
(237,812,l)
);
}
);
width = 768;
}
);
note = Omacron;
unicode = 332;
},
{
glyphname = Oslash;
kernLeft = KO_O;
kernRight = KO_O;
lastChange = "2025-10-13 04:32:50 +0000";
layers = (
{
layerId = m01;
shapes = (
{
closed = 1;
nodes = (
(718,517,o),
(642,650.333,o),
(502,697,c),
(525,779,l),
(475,779,l),
(456,708,l),
(429.333,712.667,o),
(405,715,o),
(383,715,cs),
(169.667,715,o),
(50,561,o),
(50,349,cs),
(50,182.333,o),
(126.333,48.333,o),
(265,3,c),
(243,-80,l),
(292,-80,l),
(311,-8,l),
(337.667,-12.667,o),
(361.667,-15,o),
(383,-15,cs),
(597.667,-15,o),
(718,137,o),
(718,349,cs)
);
},
{
closed = 1;
nodes = (
(563,171.667,o),
(498.667,32,o),
(384,32,cs),
(362,32,o),
(342.667,36.333,o),
(326,45,c),
(482,624,l),
(536,566.667,o),
(563,475,o),
(563,349,cs)
);
},
{
closed = 1;
nodes = (
(403.333,668,o),
(422.333,663.667,o),
(441,655,c),
(285,76,l),
(231.667,132,o),
(205,222.667,o),
(205,348,cs),
(205,473.333,o),
(231.333,564.667,o),
(284,622,cs),
(311.333,652.667,o),
(344.667,668,o),
(384,668,cs)
);
}
);
width = 768;
}
);
note = Oslash;
unicode = 216;
},
{
glyphname = Oslashacute;
kernLeft = KO_O;
kernRight = KO_O;
lastChange = "2025-10-13 04:32:50 +0000";
layers = (
{
layerId = m01;
shapes = (
{
closed = 1;
nodes = (
(718,517,o),
(642,650.333,o),
(502,697,c),
(525,779,l),
(475,779,l),
(456,708,l),
(429.333,712.667,o),
(405,715,o),
(383,715,cs),
(169.667,715,o),
(50,561,o),
(50,349,cs),
(50,182.333,o),
(126.333,48.333,o),
(265,3,c),
(243,-80,l),
(292,-80,l),
(311,-8,l),
(337.667,-12.667,o),
(361.667,-15,o),
(383,-15,cs),
(597.667,-15,o),
(718,137,o),
(718,349,cs)
);
},
{
closed = 1;
nodes = (
(563,171.667,o),
(498.667,32,o),
(384,32,cs),
(362,32,o),
(342.667,36.333,o),
(326,45,c),
(482,624,l),
(536,566.667,o),
(563,475,o),
(563,349,cs)
);
},
{
closed = 1;
nodes = (
(403.333,668,o),
(422.333,663.667,o),
(441,655,c),
(285,76,l),
(231.667,132,o),
(205,222.667,o),
(205,348,cs),
(205,473.333,o),
(231.333,564.667,o),
(284,622,cs),
(311.333,652.667,o),
(344.667,668,o),
(384,668,cs)
);
},
{
closed = 1;
nodes = (
(519.667,862.667,o),
(540,882.333,o),
(540,913,cs),
(540,943.667,o),
(513.5,965,o),
(487.5,965,cs),
(461.5,965,o),
(443.833,953.833,o),
(432.5,942.5,cs),
(426.833,936.833,o),
(418.333,927.667,o),
(407,915,cs),
(288,783,l),
(309,759,l),
(457,832,l),
(457,832,l)
);
}
);
width = 768;
}
);
note = Oslashacute;
unicode = 510;
},
{
glyphname = OE;
kernRight = KO_E;
lastChange = "2025-10-13 04:32:50 +0000";
layers = (
{
layerId = m01;
shapes = (
{
closed = 1;
nodes = (
(853,318,l),
(623,318,l),
(623,660,l),
(693,660,ls),
(781,660,o),
(805,649,o),
(817,589,cs),
(837,490,l),
(876,490,l),
(903,658,l),
(903,694.085,o),
(884.833,700,o),
(842,700,cs),
(413,700,ls),
(179.667,700,o),
(50,552.833,o),
(50,349.5,cs),
(50,146.167,o),
(179.667,0,o),
(413,0,cs),
(862,0,ls),
(904.833,0,o),
(923,5.915,o),
(923,42,c),
(896,200,l),
(857,200,l),
(837,111,ls),
(823.667,51,o),
(799.667,40,o),
(713,40,cs),
(623,40,l),
(623,273,l),
(853,273,l),
(853,273,l)
);
},
{
closed = 1;
nodes = (
(367,40,o),
(328,54.667,o),
(296,84,cs),
(235.333,138.667,o),
(205,227,o),
(205,349,cs),
(205,527.667,o),
(277,660,o),
(413,660,cs),
(473,660,l),
(473,40,l),
(413,40,l),
(413,40,l)
);
}
);
width = 973;
}
);
note = OE;
unicode = 338;
},
{
glyphname = P;
kernLeft = KO_H;
kernRight = KO_P;
lastChange = "2025-10-13 06:11:50 +0000";
layers = (
{
layerId = m01;
shapes = (
{
closed = 1;
nodes = (
(130,40,l),
(130,40,l),
(130,0,l),
(280,0,l),
(280,40,l),
(280,40,l),
(280,240,l),
(290,240,ls),
(389.333,240,o),
(468.333,255.667,o),
(527,287,cs),
(589.667,320.333,o),
(623,382,o),
(623,470,cs),
(623,514,o),
(614.667,551.333,o),
(598,582,cs),
(556.667,660.667,o),
(454,700,o),
(290,700,cs),
(130,700,l),
(130,660,l),
(130,660,l),
(130,660,l)
);
},
{
closed = 1;
nodes = (
(395.333,660,o),
(473,590,o),
(473,470,cs),
(473,350,o),
(395.333,280,o),
(290,280,cs),
(280,280,l),
(280,660,l),
(290,660,l),
(290,660,l)
);
}
);
width = 658;
}
);
note = P;
unicode = 80;
userData = {
KernOnName = P;
};
},
{
glyphname = Thorn;
kernLeft = KO_R;
lastChange = "2025-10-13 04:32:50 +0000";
layers = (
{
layerId = m01;
shapes = (
{
closed = 1;
nodes = (
(130,40,l),
(70,40,l),
(70,0,l),
(340,0,l),
(340,40,l),
(280,40,l),
(280,130,l),
(290,130,ls),
(389.333,130,o),
(468.333,145,o),
(527,175,cs),
(589.667,207,o),
(623,266,o),
(623,350,cs),
(623,392,o),
(614.667,427.667,o),
(598,457,cs),
(556.667,532.333,o),
(454,570,o),
(290,570,cs),
(280,570,l),
(280,660,l),
(340,660,l),
(340,700,l),
(70,700,l),
(70,660,l),
(130,660,l),
(130,660,l)
);
},
{
closed = 1;
nodes = (
(395.333,530,o),
(473,463.333,o),
(473,350,cs),
(473,236.667,o),
(395.333,170,o),
(290,170,cs),
(280,170,l),
(280,530,l),
(290,530,l),
(290,530,l)
);
}
);
width = 673;
}
);
note = Thorn;
unicode = 222;
},
{
glyphname = Q;
kernLeft = KO_O;
kernRight = KO_O;
lastChange = "2025-10-13 04:32:50 +0000";
layers = (
{
layerId = m01;
shapes = (
{
closed = 1;
nodes = (
(718,562.333,o),
(597.5,715,o),
(383.5,715,cs),
(169.5,715,o),
(50,559.833,o),
(50,352.5,cs),
(50,145.167,o),
(160.667,-2,o),
(358,-14,c),
(365,-50,ls),
(383,-148,o),
(432.667,-197,o),
(514,-197,cs),
(554,-197,o),
(595.333,-175,o),
(618,-155,cs),
(629.333,-145,o),
(642.667,-131.333,o),
(658,-114,c),
(631,-90,l),
(602.333,-116,o),
(579,-129,o),
(561,-129,cs),
(527.667,-129,o),
(507.667,-109.667,o),
(501,-71,cs),
(488,-1,l),
(636,40.333,o),
(718,175.667,o),
(718,349,cs)
);
},
{
closed = 1;
nodes = (
(498.667,668,o),
(563,527.667,o),
(563,349,cs),
(563,229,o),
(532.333,122.333,o),
(475,69,c),
(467,114,ls),
(449,212,o),
(404.333,261,o),
(333,261,cs),
(292.333,261,o),
(254,246,o),
(218,216,c),
(209.333,255.333,o),
(205,299.667,o),
(205,349,cs),
(205,473.667,o),
(231.333,564.667,o),
(284,622,cs),
(311.333,652.667,o),
(344.667,668,o),
(384,668,cs)
);
},
{
closed = 1;
nodes = (
(281.545,214.408,o),
(323.854,183.233,o),
(331,135,cs),
(349,36,l),
(294.333,51.333,o),
(254.333,97.667,o),
(229,175,c)
);
}
);
width = 768;
}
);
note = Q;
unicode = 81;
},
{
glyphname = R;
kernLeft = KO_R;
kernRight = KO_R;
lastChange = "2025-10-13 04:32:50 +0000";
layers = (
{
layerId = m01;
shapes = (
{
closed = 1;
nodes = (
(130,40,l),
(70,40,l),
(70,0,l),
(360,0,l),
(360,40,l),
(280,40,l),
(280,263,l),
(342.667,261.667,o),
(362,249.667,o),
(374,211,cs),
(421,57,ls),
(437,3.667,o),
(473.667,-15,o),
(535,-15,cs),
(595,-15,o),
(651.667,9.333,o),
(705,58,c),
(687,82,l),
(632.285,36.665,o),
(586.776,41.657,o),
(571,98,cs),
(541,198,ls),
(527,242,o),
(499,271,o),
(457,285,c),
(567.667,318.333,o),
(623,383.667,o),
(623,481,cs),
(623,523,o),
(614.667,558.667,o),
(598,588,cs),
(554.667,662.667,o),
(452,700,o),
(290,700,cs),
(70,700,l),
(70,660,l),
(130,660,l),
(130,660,l)
);
},
{
closed = 1;
nodes = (
(395.333,660,o),
(473,594.333,o),
(473,481,cs),
(473,367.667,o),
(395.333,303,o),
(290,303,cs),
(280,303,l),
(280,660,l),
(290,660,l),
(290,660,l)
);
}
);
width = 695;
}
);
note = R;
unicode = 82;
},
{
glyphname = Racute;
kernLeft = KO_R;
kernRight = KO_R;
lastChange = "2025-10-13 04:32:50 +0000";
layers = (
{
layerId = m01;
shapes = (
{
closed = 1;
nodes = (
(130,40,l),
(70,40,l),
(70,0,l),
(360,0,l),
(360,40,l),
(280,40,l),
(280,263,l),
(342.667,261.667,o),
(362,249.667,o),
(374,211,cs),
(421,57,ls),
(437,3.667,o),
(473.667,-15,o),
(535,-15,cs),
(595,-15,o),
(651.667,9.333,o),
(705,58,c),
(687,82,l),
(632.285,36.665,o),
(586.776,41.657,o),
(571,98,cs),
(541,198,ls),
(527,242,o),
(499,271,o),
(457,285,c),
(567.667,318.333,o),
(623,383.667,o),
(623,481,cs),
(623,523,o),
(614.667,558.667,o),
(598,588,cs),
(554.667,662.667,o),
(452,700,o),
(290,700,cs),
(70,700,l),
(70,660,l),
(130,660,l),
(130,660,l)
);
},
{
closed = 1;
nodes = (
(395.333,660,o),
(473,594.333,o),
(473,481,cs),
(473,367.667,o),
(395.333,303,o),
(290,303,cs),
(280,303,l),
(280,660,l),
(290,660,l),
(290,660,l)
);
},
{
closed = 1;
nodes = (
(452.667,862.667,o),
(473,882.333,o),
(473,913,cs),
(473,943.667,o),
(446.5,965,o),
(420.5,965,cs),
(394.5,965,o),
(376.833,953.833,o),
(365.5,942.5,cs),
(359.833,936.833,o),
(351.333,927.667,o),
(340,915,cs),
(221,783,l),
(242,759,l),
(390,832,l),
(390,832,l)
);
}
);
width = 695;
}
);
note = Racute;
unicode = 340;
},
{
glyphname = Rcaron;
kernLeft = KO_R;
kernRight = KO_R;
lastChange = "2025-10-13 04:32:50 +0000";
layers = (
{
layerId = m01;
shapes = (
{
closed = 1;
nodes = (
(130,40,l),
(70,40,l),
(70,0,l),
(360,0,l),
(360,40,l),
(280,40,l),
(280,263,l),
(342.667,261.667,o),
(362,249.667,o),
(374,211,cs),
(421,57,ls),
(437,3.667,o),
(473.667,-15,o),
(535,-15,cs),
(595,-15,o),
(651.667,9.333,o),
(705,58,c),
(687,82,l),
(632.285,36.665,o),
(586.776,41.657,o),
(571,98,cs),
(541,198,ls),
(527,242,o),
(499,271,o),
(457,285,c),
(567.667,318.333,o),
(623,383.667,o),
(623,481,cs),
(623,523,o),
(614.667,558.667,o),
(598,588,cs),
(554.667,662.667,o),
(452,700,o),
(290,700,cs),
(70,700,l),
(70,660,l),
(130,660,l),
(130,660,l)
);
},
{
closed = 1;
nodes = (
(395.333,660,o),
(473,594.333,o),
(473,481,cs),
(473,367.667,o),
(395.333,303,o),
(290,303,cs),
(280,303,l),
(280,660,l),
(290,660,l),
(290,660,l)
);
},
{
closed = 1;
nodes = (
(513,941,l),
(492,965,l),
(351,870,l),
(343,870,l),
(202,965,l),
(181,941,l),
(289,797,ls),
(307.667,771.667,o),
(327,759,o),
(347,759,cs),
(367,759,o),
(386.333,771.667,o),
(405,797,cs)
);
}
);
width = 695;
}
);
note = Rcaron;
unicode = 344;
},
{
glyphname = Rcommaaccent;
kernLeft = KO_R;
kernRight = KO_R;
lastChange = "2025-10-13 04:32:50 +0000";
layers = (
{
layerId = m01;
shapes = (
{
closed = 1;
nodes = (
(130,40,l),
(70,40,l),
(70,0,l),
(360,0,l),
(360,40,l),
(280,40,l),
(280,263,l),
(342.667,261.667,o),
(362,249.667,o),
(374,211,cs),
(421,57,ls),
(437,3.667,o),
(473.667,-15,o),
(535,-15,cs),
(595,-15,o),
(651.667,9.333,o),
(705,58,c),
(687,82,l),
(632.285,36.665,o),
(586.776,41.657,o),
(571,98,cs),
(541,198,ls),
(527,242,o),
(499,271,o),
(457,285,c),
(567.667,318.333,o),
(623,383.667,o),
(623,481,cs),
(623,523,o),
(614.667,558.667,o),
(598,588,cs),
(554.667,662.667,o),
(452,700,o),
(290,700,cs),
(70,700,l),
(70,660,l),
(130,660,l),
(130,660,l)
);
},
{
closed = 1;
nodes = (
(395.333,660,o),
(473,594.333,o),
(473,481,cs),
(473,367.667,o),
(395.333,303,o),
(290,303,cs),
(280,303,l),
(280,660,l),
(290,660,l),
(290,660,l)
);
},
{
closed = 1;
nodes = (
(343,-258,o),
(328.333,-288,o),
(299,-322,c),
(321,-344,l),
(387.667,-284,o),
(426,-203,o),
(426,-143,cs),
(426,-83,o),
(397.5,-54,o),
(359.5,-54,cs),
(321.5,-54,o),
(292,-83.5,o),
(292,-121.5,cs),
(292,-140.5,o),
(300.5,-159.833,o),
(317.5,-179.5,cs),
(334.5,-199.167,o),
(343,-216.667,o),
(343,-232,cs)
);
}
);
width = 695;
}
);
note = uni0156;
unicode = 342;
},
{
glyphname = S;
kernLeft = KO_S;
kernRight = KO_S;
lastChange = "2025-10-13 04:32:50 +0000";
layers = (
{
layerId = m01;
shapes = (
{
closed = 1;
nodes = (
(104,224,l),
(56,132,ls),
(48.667,117.333,o),
(45,104.333,o),
(45,93,cs),
(45,34.333,o),
(168,-15,o),
(276,-15,cs),
(420,-15,o),
(525,49.667,o),
(525,175,cs),
(525,257.667,o),
(476.667,324.333,o),
(380,375,cs),
(253,442,ls),
(203.667,468,o),
(179,508.333,o),
(179,563,cs),
(179,617.667,o),
(218.833,668,o),
(291.5,668,cs),
(364.167,668,o),
(425,631,o),
(425,571,cs),
(425,487,l),
(460,476,l),
(508,568,ls),
(515.333,582.667,o),
(519,595.667,o),
(519,607,cs),
(519,665.667,o),
(401.667,715,o),
(295,715,cs),
(136.333,715,o),
(56,624.333,o),
(56,515,cs),
(56,429.667,o),
(98.667,364,o),
(184,318,cs),
(332,239,ls),
(380.667,212.333,o),
(405,178.667,o),
(405,138,cs),
(405,74,o),
(355,32,o),
(275,32,cs),
(195,32,o),
(139,77,o),
(139,129,cs),
(139,213,l),
(139,213,l)
);
}
);
width = 570;
}
);
note = S;
unicode = 83;
},
{
glyphname = Sacute;
kernLeft = KO_S;
kernRight = KO_S;
lastChange = "2025-10-13 04:32:50 +0000";
layers = (
{
layerId = m01;
shapes = (
{
closed = 1;
nodes = (
(104,224,l),
(56,132,ls),
(48.667,117.333,o),
(45,104.333,o),
(45,93,cs),
(45,34.333,o),
(168,-15,o),
(276,-15,cs),
(420,-15,o),
(525,49.667,o),
(525,175,cs),
(525,257.667,o),
(476.667,324.333,o),
(380,375,cs),
(253,442,ls),
(203.667,468,o),
(179,508.333,o),
(179,563,cs),
(179,617.667,o),
(218.833,668,o),
(291.5,668,cs),
(364.167,668,o),
(425,631,o),
(425,571,cs),
(425,487,l),
(460,476,l),
(508,568,ls),
(515.333,582.667,o),
(519,595.667,o),
(519,607,cs),
(519,665.667,o),
(401.667,715,o),
(295,715,cs),
(136.333,715,o),
(56,624.333,o),
(56,515,cs),
(56,429.667,o),
(98.667,364,o),
(184,318,cs),
(332,239,ls),
(380.667,212.333,o),
(405,178.667,o),
(405,138,cs),
(405,74,o),
(355,32,o),
(275,32,cs),
(195,32,o),
(139,77,o),
(139,129,cs),
(139,213,l),
(139,213,l)
);
},
{
closed = 1;
nodes = (
(403.667,862.667,o),
(424,882.333,o),
(424,913,cs),
(424,943.667,o),
(397.5,965,o),
(371.5,965,cs),
(345.5,965,o),
(327.833,953.833,o),
(316.5,942.5,cs),
(310.833,936.833,o),
(302.333,927.667,o),
(291,915,cs),
(172,783,l),
(193,759,l),
(341,832,l),
(341,832,l)
);
}
);
width = 570;
}
);
note = Sacute;
unicode = 346;
},
{
glyphname = Scaron;
kernLeft = KO_S;
kernRight = KO_S;
lastChange = "2025-10-13 04:32:50 +0000";
layers = (
{
layerId = m01;
shapes = (
{
closed = 1;
nodes = (
(104,224,l),
(56,132,ls),
(48.667,117.333,o),
(45,104.333,o),
(45,93,cs),
(45,34.333,o),
(168,-15,o),
(276,-15,cs),
(420,-15,o),
(525,49.667,o),
(525,175,cs),
(525,257.667,o),
(476.667,324.333,o),
(380,375,cs),
(253,442,ls),
(203.667,468,o),
(179,508.333,o),
(179,563,cs),
(179,617.667,o),
(218.833,668,o),
(291.5,668,cs),
(364.167,668,o),
(425,631,o),
(425,571,cs),
(425,487,l),
(460,476,l),
(508,568,ls),
(515.333,582.667,o),
(519,595.667,o),
(519,607,cs),
(519,665.667,o),
(401.667,715,o),
(295,715,cs),
(136.333,715,o),
(56,624.333,o),
(56,515,cs),
(56,429.667,o),
(98.667,364,o),
(184,318,cs),
(332,239,ls),
(380.667,212.333,o),
(405,178.667,o),
(405,138,cs),
(405,74,o),
(355,32,o),
(275,32,cs),
(195,32,o),
(139,77,o),
(139,129,cs),
(139,213,l),
(139,213,l)
);
},
{
closed = 1;
nodes = (
(451,941,l),
(430,965,l),
(289,870,l),
(281,870,l),
(140,965,l),
(119,941,l),
(227,797,ls),
(245.667,771.667,o),
(265,759,o),
(285,759,cs),
(305,759,o),
(324.333,771.667,o),
(343,797,cs)
);
}
);
width = 570;
}
);
note = Scaron;
unicode = 352;
},
{
glyphname = Scedilla;
kernLeft = KO_S;
kernRight = KO_S;
lastChange = "2025-10-13 04:32:50 +0000";
layers = (
{
layerId = m01;
shapes = (
{
closed = 1;
nodes = (
(104,224,l),
(56,132,ls),
(48.667,117.333,o),
(45,104.333,o),
(45,93,cs),
(45,38.333,o),
(148,-6,o),
(252,-14,c),
(215,-93,l),
(237,-110,l),
(334.629,-110,o),
(330.321,-233,o),
(246,-233,cs),
(241.333,-233,o),
(236.333,-232.333,o),
(231,-231,c),
(266.267,-205.53,o),
(245.2,-155,o),
(207.5,-155,cs),
(185.5,-155,o),
(167,-173.333,o),
(167,-196,cs),
(167,-240,o),
(213.667,-265,o),
(279,-265,cs),
(344.333,-265,o),
(397,-219.667,o),
(397,-165,cs),
(397,-110.333,o),
(354.667,-70,o),
(292,-70,cs),
(276,-70,o),
(262.333,-72.333,o),
(251,-77,c),
(281,-15,l),
(422.333,-12.333,o),
(525,52.333,o),
(525,175,cs),
(525,257.667,o),
(476.667,324.333,o),
(380,375,cs),
(253,442,ls),
(203.667,468,o),
(179,508.333,o),
(179,563,cs),
(179,617.667,o),
(218.833,668,o),
(291.5,668,cs),
(364.167,668,o),
(425,631,o),
(425,571,cs),
(425,487,l),
(460,476,l),
(508,568,ls),
(515.333,582.667,o),
(519,595.667,o),
(519,607,cs),
(519,665.667,o),
(401.667,715,o),
(295,715,cs),
(136.333,715,o),
(56,624.333,o),
(56,515,cs),
(56,429.667,o),
(98.667,364,o),
(184,318,cs),
(332,239,ls),
(380.667,212.333,o),
(405,178.667,o),
(405,138,cs),
(405,74,o),
(355,32,o),
(275,32,cs),
(195,32,o),
(139,77,o),
(139,129,cs),
(139,213,l),
(139,213,l)
);
}
);
width = 570;
}
);
note = Scedilla;
unicode = 350;
},
{
glyphname = Scircumflex;
kernLeft = KO_S;
kernRight = KO_S;
lastChange = "2025-10-13 04:32:50 +0000";
layers = (
{
layerId = m01;
shapes = (
{
closed = 1;
nodes = (
(104,224,l),
(56,132,ls),
(48.667,117.333,o),
(45,104.333,o),
(45,93,cs),
(45,34.333,o),
(168,-15,o),
(276,-15,cs),
(420,-15,o),
(525,49.667,o),
(525,175,cs),
(525,257.667,o),
(476.667,324.333,o),
(380,375,cs),
(253,442,ls),
(203.667,468,o),
(179,508.333,o),
(179,563,cs),
(179,617.667,o),
(218.833,668,o),
(291.5,668,cs),
(364.167,668,o),
(425,631,o),
(425,571,cs),
(425,487,l),
(460,476,l),
(508,568,ls),
(515.333,582.667,o),
(519,595.667,o),
(519,607,cs),
(519,665.667,o),
(401.667,715,o),
(295,715,cs),
(136.333,715,o),
(56,624.333,o),
(56,515,cs),
(56,429.667,o),
(98.667,364,o),
(184,318,cs),
(332,239,ls),
(380.667,212.333,o),
(405,178.667,o),
(405,138,cs),
(405,74,o),
(355,32,o),
(275,32,cs),
(195,32,o),
(139,77,o),
(139,129,cs),
(139,213,l),
(139,213,l)
);
},
{
closed = 1;
nodes = (
(129,783,l),
(150,759,l),
(291,854,l),
(299,854,l),
(440,759,l),
(461,783,l),
(353,927,ls),
(334.333,952.333,o),
(315,965,o),
(295,965,cs),
(275,965,o),
(255.667,952.333,o),
(237,927,cs)
);
}
);
width = 570;
}
);
note = Scircumflex;
unicode = 348;
},
{
glyphname = Scommaaccent;
kernLeft = KO_S;
kernRight = KO_S;
lastChange = "2025-10-13 04:32:50 +0000";
layers = (
{
layerId = m01;
shapes = (
{
closed = 1;
nodes = (
(104,224,l),
(56,132,ls),
(48.667,117.333,o),
(45,104.333,o),
(45,93,cs),
(45,34.333,o),
(168,-15,o),
(276,-15,cs),
(420,-15,o),
(525,49.667,o),
(525,175,cs),
(525,257.667,o),
(476.667,324.333,o),
(380,375,cs),
(253,442,ls),
(203.667,468,o),
(179,508.333,o),
(179,563,cs),
(179,617.667,o),
(218.833,668,o),
(291.5,668,cs),
(364.167,668,o),
(425,631,o),
(425,571,cs),
(425,487,l),
(460,476,l),
(508,568,ls),
(515.333,582.667,o),
(519,595.667,o),
(519,607,cs),
(519,665.667,o),
(401.667,715,o),
(295,715,cs),
(136.333,715,o),
(56,624.333,o),
(56,515,cs),
(56,429.667,o),
(98.667,364,o),
(184,318,cs),
(332,239,ls),
(380.667,212.333,o),
(405,178.667,o),
(405,138,cs),
(405,74,o),
(355,32,o),
(275,32,cs),
(195,32,o),
(139,77,o),
(139,129,cs),
(139,213,l),
(139,213,l)
);
},
{
closed = 1;
nodes = (
(269,-258,o),
(254.333,-288,o),
(225,-322,c),
(247,-344,l),
(313.667,-284,o),
(352,-203,o),
(352,-143,cs),
(352,-83,o),
(323.5,-54,o),
(285.5,-54,cs),
(247.5,-54,o),
(218,-83.5,o),
(218,-121.5,cs),
(218,-140.5,o),
(226.5,-159.833,o),
(243.5,-179.5,cs),
(260.5,-199.167,o),
(269,-216.667,o),
(269,-232,cs)
);
}
);
width = 570;
}
);
note = uni0218;
unicode = 536;
},
{
glyphname = T;
kernLeft = KO_T;
kernRight = KO_T;
lastChange = "2025-10-13 06:11:50 +0000";
layers = (
{
layerId = m01;
shapes = (
{
closed = 1;
nodes = (
(483,660,o),
(507,649,o),
(519,589,cs),
(539,490,l),
(578,490,l),
(605,658,l),
(605,694.085,o),
(586.833,700,o),
(544,700,cs),
(76,700,ls),
(33.167,700,o),
(15,694.085,o),
(15,658,c),
(42,490,l),
(81,490,l),
(101,589,ls),
(113,649,o),
(137,660,o),
(225,660,cs),
(235,660,l),
(235,0,l),
(385,0,l),
(385,660,l),
(395,660,l),
(395,660,l)
);
}
);
width = 620;
}
);
note = T;
unicode = 84;
userData = {
KernOnName = T;
};
},
{
glyphname = Tbar;
lastChange = "2025-10-13 06:11:50 +0000";
layers = (
{
layerId = m01;
shapes = (
{
closed = 1;
nodes = (
(235,40,l),
(135,40,l),
(135,0,l),
(485,0,l),
(485,40,l),
(385,40,l),
(385,302,l),
(498,302,l),
(498,347,l),
(385,347,l),
(385,660,l),
(395,660,ls),
(483,660,o),
(507,649,o),
(519,589,cs),
(539,490,l),
(578,490,l),
(605,658,l),
(605,694.085,o),
(586.833,700,o),
(544,700,cs),
(76,700,ls),
(33.167,700,o),
(15,694.085,o),
(15,658,c),
(42,490,l),
(81,490,l),
(101,589,ls),
(113,649,o),
(137,660,o),
(225,660,cs),
(235,660,l),
(235,347,l),
(123,347,l),
(123,302,l),
(235,302,l),
(235,302,l)
);
}
);
width = 620;
}
);
note = Tbar;
unicode = 358;
userData = {
KernOnName = Tbar;
};
},
{
glyphname = Tcaron;
kernLeft = KO_Tcaron;
kernRight = KO_Tcaron;
lastChange = "2025-10-13 06:11:50 +0000";
layers = (
{
layerId = m01;
shapes = (
{
closed = 1;
nodes = (
(483,660,o),
(507,649,o),
(519,589,cs),
(539,490,l),
(578,490,l),
(605,658,l),
(605,694.085,o),
(586.833,700,o),
(544,700,cs),
(76,700,ls),
(33.167,700,o),
(15,694.085,o),
(15,658,c),
(42,490,l),
(81,490,l),
(101,589,ls),
(113,649,o),
(137,660,o),
(225,660,cs),
(235,660,l),
(235,40,l),
(135,40,l),
(135,0,l),
(485,0,l),
(485,40,l),
(385,40,l),
(385,660,l),
(395,660,l),
(395,660,l)
);
},
{
closed = 1;
nodes = (
(476,941,l),
(455,965,l),
(314,870,l),
(306,870,l),
(165,965,l),
(144,941,l),
(252,797,ls),
(270.667,771.667,o),
(290,759,o),
(310,759,cs),
(330,759,o),
(349.333,771.667,o),
(368,797,cs)
);
}
);
width = 620;
}
);
note = Tcaron;
unicode = 356;
userData = {
KernOnName = Tcaron;
};
},
{
glyphname = Tcedilla;
kernLeft = KO_Tcaron;
kernRight = KO_Tcaron;
lastChange = "2025-10-13 04:32:50 +0000";
layers = (
{
layerId = m01;
shapes = (
{
closed = 1;
nodes = (
(483,660,o),
(507,649,o),
(519,589,cs),
(539,490,l),
(578,490,l),
(605,658,l),
(605,694.085,o),
(586.833,700,o),
(544,700,cs),
(76,700,ls),
(33.167,700,o),
(15,694.085,o),
(15,658,c),
(42,490,l),
(81,490,l),
(101,589,ls),
(113,649,o),
(137,660,o),
(225,660,cs),
(235,660,l),
(235,40,l),
(135,40,l),
(135,0,l),
(287,0,l),
(243,-93,l),
(265,-110,l),
(362.629,-110,o),
(358.321,-233,o),
(274,-233,cs),
(269.333,-233,o),
(264.333,-232.333,o),
(259,-231,c),
(294.267,-205.53,o),
(273.2,-155,o),
(235.5,-155,cs),
(213.5,-155,o),
(195,-173.333,o),
(195,-196,cs),
(195,-240,o),
(241.667,-265,o),
(307,-265,cs),
(372.333,-265,o),
(425,-219.667,o),
(425,-165,cs),
(425,-110.333,o),
(382.667,-70,o),
(320,-70,cs),
(304,-70,o),
(290.333,-72.333,o),
(279,-77,c),
(317,0,l),
(485,0,l),
(485,40,l),
(385,40,l),
(385,660,l),
(395,660,l),
(395,660,l)
);
}
);
width = 620;
}
);
note = uni0162;
unicode = 354;
},
{
glyphname = Tcommaaccent;
kernLeft = KO_Tcaron;
kernRight = KO_Tcaron;
lastChange = "2025-10-13 06:11:50 +0000";
layers = (
{
layerId = m01;
shapes = (
{
closed = 1;
nodes = (
(483,660,o),
(507,649,o),
(519,589,cs),
(539,490,l),
(578,490,l),
(605,658,l),
(605,694.085,o),
(586.833,700,o),
(544,700,cs),
(76,700,ls),
(33.167,700,o),
(15,694.085,o),
(15,658,c),
(42,490,l),
(81,490,l),
(101,589,ls),
(113,649,o),
(137,660,o),
(225,660,cs),
(235,660,l),
(235,40,l),
(135,40,l),
(135,0,l),
(485,0,l),
(485,40,l),
(385,40,l),
(385,660,l),
(395,660,l),
(395,660,l)
);
},
{
closed = 1;
nodes = (
(294,-258,o),
(279.333,-288,o),
(250,-322,c),
(272,-344,l),
(338.667,-284,o),
(377,-203,o),
(377,-143,cs),
(377,-83,o),
(348.5,-54,o),
(310.5,-54,cs),
(272.5,-54,o),
(243,-83.5,o),
(243,-121.5,cs),
(243,-140.5,o),
(251.5,-159.833,o),
(268.5,-179.5,cs),
(285.5,-199.167,o),
(294,-216.667,o),
(294,-232,cs)
);
}
);
width = 620;
}
);
note = uni021A;
unicode = 538;
userData = {
KernOnName = Tcommaaccent;
};
},
{
glyphname = U;
kernLeft = KO_U;
kernRight = KO_U;
lastChange = "2025-10-13 06:08:03 +0000";
layers = (
{
anchors = (
{
name = bottom;
pos = (350,0);
},
{
name = ogonek;
pos = (630,10);
},
{
name = top;
pos = (417,700);
},
{
name = topright;
pos = (680,700);
}
);
layerId = m01;
shapes = (
{
closed = 1;
nodes = (
(545,210,ls),
(545,107,o),
(472.5,48,o),
(390.5,48,cs),
(308.5,48,o),
(245,106,o),
(245,210,cs),
(245,700,l),
(95,700,l),
(95,242,ls),
(95,145,o),
(126,74,o),
(178,38,cs),
(226.667,2.667,o),
(286.333,-15,o),
(357,-15,cs),
(427.667,-15,o),
(486.667,2.333,o),
(534,37,cs),
(584.667,74.333,o),
(615,145,o),
(615,241,cs),
(615,700,l),
(545,700,l),
(545,700,l)
);
}
);
width = 700;
}
);
note = U;
unicode = 85;
},
{
glyphname = Ubreve;
kernLeft = KO_Udieresis;
kernRight = KO_Udieresis;
lastChange = "2025-10-13 04:32:50 +0000";
layers = (
{
layerId = m01;
shapes = (
{
closed = 1;
nodes = (
(545,210,ls),
(545,107.333,o),
(472.5,48,o),
(390.5,48,cs),
(308.5,48,o),
(245,106,o),
(245,210,cs),
(245,660,l),
(305,660,l),
(305,700,l),
(35,700,l),
(35,660,l),
(95,660,l),
(95,242,ls),
(95,144.667,o),
(126,74,o),
(178,38,cs),
(226.667,2.667,o),
(286.333,-15,o),
(357,-15,cs),
(427.667,-15,o),
(486.667,2.333,o),
(534,37,cs),
(584.667,74.333,o),
(615,145,o),
(615,241,cs),
(615,660,l),
(675,660,l),
(675,700,l),
(485,700,l),
(485,660,l),
(545,660,l),
(545,660,l)
);
},
{
closed = 1;
nodes = (
(328,888,o),
(300.667,915.333,o),
(268,960,c),
(224,931,l),
(257.333,870.333,o),
(286.333,828.167,o),
(311,804.5,cs),
(335.667,780.833,o),
(362,769,o),
(390,769,cs),
(418,769,o),
(444.333,780.833,o),
(469,804.5,cs),
(493.667,828.167,o),
(522.667,870.333,o),
(556,931,c),
(511,960,l),
(460.332,889.627,o),
(413.212,851.384,o),
(350,878,cs)
);
}
);
width = 700;
}
);
note = Ubreve;
unicode = 364;
},
{
glyphname = Ucircumflex;
kernLeft = KO_Udieresis;
kernRight = KO_Udieresis;
lastChange = "2025-10-13 04:32:50 +0000";
layers = (
{
layerId = m01;
shapes = (
{
closed = 1;
nodes = (
(545,210,ls),
(545,107.333,o),
(472.5,48,o),
(390.5,48,cs),
(308.5,48,o),
(245,106,o),
(245,210,cs),
(245,660,l),
(305,660,l),
(305,700,l),
(35,700,l),
(35,660,l),
(95,660,l),
(95,242,ls),
(95,144.667,o),
(126,74,o),
(178,38,cs),
(226.667,2.667,o),
(286.333,-15,o),
(357,-15,cs),
(427.667,-15,o),
(486.667,2.333,o),
(534,37,cs),
(584.667,74.333,o),
(615,145,o),
(615,241,cs),
(615,660,l),
(675,660,l),
(675,700,l),
(485,700,l),
(485,660,l),
(545,660,l),
(545,660,l)
);
},
{
closed = 1;
nodes = (
(204,783,l),
(225,759,l),
(366,854,l),
(374,854,l),
(515,759,l),
(536,783,l),
(428,927,ls),
(409.333,952.333,o),
(390,965,o),
(370,965,cs),
(350,965,o),
(330.667,952.333,o),
(312,927,cs)
);
}
);
width = 700;
}
);
note = Ucircumflex;
unicode = 219;
},
{
glyphname = Udieresis;
kernLeft = KO_Udieresis;
kernRight = KO_Udieresis;
lastChange = "2025-10-13 04:32:50 +0000";
layers = (
{
layerId = m01;
shapes = (
{
closed = 1;
nodes = (
(545,210,ls),
(545,107.333,o),
(472.5,48,o),
(390.5,48,cs),
(308.5,48,o),
(245,106,o),
(245,210,cs),
(245,660,l),
(305,660,l),
(305,700,l),
(35,700,l),
(35,660,l),
(95,660,l),
(95,242,ls),
(95,144.667,o),
(126,74,o),
(178,38,cs),
(226.667,2.667,o),
(286.333,-15,o),
(357,-15,cs),
(427.667,-15,o),
(486.667,2.333,o),
(534,37,cs),
(584.667,74.333,o),
(615,145,o),
(615,241,cs),
(615,660,l),
(675,660,l),
(675,700,l),
(485,700,l),
(485,660,l),
(545,660,l),
(545,660,l)
);
},
{
closed = 1;
nodes = (
(186,816,l),
(215.512,786.488,o),
(264.488,786.488,o),
(294,816,cs),
(308.667,830.667,o),
(316,848.667,o),
(316,870,cs),
(316,912.667,o),
(282.667,946,o),
(240,946,cs),
(197.333,946,o),
(164,912.667,o),
(164,870,cs),
(164,848.667,o),
(171.333,830.667,o),
(186,816,c)
);
},
{
closed = 1;
nodes = (
(416,816,l),
(445.512,786.488,o),
(494.488,786.488,o),
(524,816,cs),
(538.667,830.667,o),
(546,848.667,o),
(546,870,cs),
(546,912.667,o),
(512.667,946,o),
(470,946,cs),
(427.333,946,o),
(394,912.667,o),
(394,870,cs),
(394,848.667,o),
(401.333,830.667,o),
(416,816,c)
);
}
);
width = 700;
}
);
note = Udieresis;
unicode = 220;
},
{
glyphname = Uhungarumlaut;
kernLeft = KO_Udieresis;
kernRight = KO_Udieresis;
lastChange = "2025-10-13 04:32:50 +0000";
layers = (
{
layerId = m01;
shapes = (
{
closed = 1;
nodes = (
(545,210,ls),
(545,107.333,o),
(472.5,48,o),
(390.5,48,cs),
(308.5,48,o),
(245,106,o),
(245,210,cs),
(245,660,l),
(305,660,l),
(305,700,l),
(35,700,l),
(35,660,l),
(95,660,l),
(95,242,ls),
(95,144.667,o),
(126,74,o),
(178,38,cs),
(226.667,2.667,o),
(286.333,-15,o),
(357,-15,cs),
(427.667,-15,o),
(486.667,2.333,o),
(534,37,cs),
(584.667,74.333,o),
(615,145,o),
(615,241,cs),
(615,660,l),
(675,660,l),
(675,700,l),
(485,700,l),
(485,660,l),
(545,660,l),
(545,660,l)
);
},
{
closed = 1;
nodes = (
(216,782,l),
(240,759,l),
(365,850,ls),
(397,873.333,o),
(413,896.333,o),
(413,919,cs),
(413,963.994,o),
(341.75,1000.846,o),
(289,910,cs)
);
},
{
closed = 1;
nodes = (
(406,782,l),
(430,759,l),
(555,850,ls),
(587,873.333,o),
(603,896.333,o),
(603,919,cs),
(603,963.994,o),
(531.75,1000.846,o),
(479,910,cs)
);
}
);
width = 700;
}
);
note = Uhungarumlaut;
unicode = 368;
},
{
glyphname = Umacron;
kernLeft = KO_Udieresis;
kernRight = KO_Udieresis;
lastChange = "2025-10-13 04:32:50 +0000";
layers = (
{
layerId = m01;
shapes = (
{
closed = 1;
nodes = (
(545,210,ls),
(545,107.333,o),
(472.5,48,o),
(390.5,48,cs),
(308.5,48,o),
(245,106,o),
(245,210,cs),
(245,660,l),
(305,660,l),
(305,700,l),
(35,700,l),
(35,660,l),
(95,660,l),
(95,242,ls),
(95,144.667,o),
(126,74,o),
(178,38,cs),
(226.667,2.667,o),
(286.333,-15,o),
(357,-15,cs),
(427.667,-15,o),
(486.667,2.333,o),
(534,37,cs),
(584.667,74.333,o),
(615,145,o),
(615,241,cs),
(615,660,l),
(675,660,l),
(675,700,l),
(485,700,l),
(485,660,l),
(545,660,l),
(545,660,l)
);
},
{
closed = 1;
nodes = (
(537,812,l),
(537,900,l),
(243,900,l),
(243,812,l),
(243,812,l)
);
}
);
width = 700;
}
);
note = Umacron;
unicode = 362;
},
{
glyphname = Uogonek;
kernLeft = KO_Udieresis;
kernRight = KO_Udieresis;
lastChange = "2025-10-13 04:32:50 +0000";
layers = (
{
layerId = m01;
shapes = (
{
closed = 1;
nodes = (
(545,210,ls),
(545,107.333,o),
(472.5,48,o),
(390.5,48,cs),
(308.5,48,o),
(245,106,o),
(245,210,cs),
(245,660,l),
(305,660,l),
(305,700,l),
(35,700,l),
(35,660,l),
(95,660,l),
(95,242,ls),
(95,144.667,o),
(126,74,o),
(178,38,cs),
(226.667,2.667,o),
(286.333,-15,o),
(357,-15,cs),
(367,-15,l),
(318,-56,ls),
(298,-74.667,o),
(273,-111,o),
(273,-143,cs),
(273,-207,o),
(319.333,-238,o),
(382,-238,cs),
(432.667,-238,o),
(474,-218.667,o),
(506,-180,c),
(489,-151,l),
(431.298,-204.855,o),
(364,-177.021,o),
(364,-122.5,cs),
(364,-85.833,o),
(376,-58.333,o),
(424,-9,c),
(538.667,9.667,o),
(615,86.333,o),
(615,241,cs),
(615,660,l),
(675,660,l),
(675,700,l),
(485,700,l),
(485,660,l),
(545,660,l),
(545,660,l)
);
}
);
width = 700;
}
);
note = Uogonek;
unicode = 370;
},
{
glyphname = Uring;
kernLeft = KO_Udieresis;
kernRight = KO_Udieresis;
lastChange = "2025-10-13 04:32:50 +0000";
layers = (
{
layerId = m01;
shapes = (
{
closed = 1;
nodes = (
(545,210,ls),
(545,107.333,o),
(472.5,48,o),
(390.5,48,cs),
(308.5,48,o),
(245,106,o),
(245,210,cs),
(245,660,l),
(305,660,l),
(305,700,l),
(35,700,l),
(35,660,l),
(95,660,l),
(95,242,ls),
(95,144.667,o),
(126,74,o),
(178,38,cs),
(226.667,2.667,o),
(286.333,-15,o),
(357,-15,cs),
(427.667,-15,o),
(486.667,2.333,o),
(534,37,cs),
(584.667,74.333,o),
(615,145,o),
(615,241,cs),
(615,660,l),
(675,660,l),
(675,700,l),
(485,700,l),
(485,660,l),
(545,660,l),
(545,660,l)
);
},
{
closed = 1;
nodes = (
(390,753,l),
(463.333,753,o),
(519,799.5,o),
(519,869.5,cs),
(519,939.5,o),
(463.333,987,o),
(390,987,cs),
(316.667,987,o),
(261,939.5,o),
(261,869.5,cs),
(261,799.5,o),
(316.667,753,o),
(390,753,c)
);
},
{
closed = 1;
nodes = (
(389.5,952,l),
(389.5,952,o),
(389.5,952,o),
(389.5,952,c)
);
}
);
width = 700;
}
);
note = Uring;
unicode = 366;
},
{
glyphname = V;
kernLeft = KO_V;
kernRight = KO_V;
lastChange = "2025-10-13 06:11:50 +0000";
layers = (
{
layerId = m01;
shapes = (
{
closed = 1;
nodes = (
(236,721,o),
(114,737,o),
(23,687,c),
(41,652,l),
(54,659,o),
(69,665,o),
(86,669,c),
(115,225,ls),
(126,62,o),
(181.333,-15,o),
(328,-15,cs),
(428,-15,o),
(508.667,38.333,o),
(554,121,cs),
(601.333,205.667,o),
(625,303.333,o),
(625,414,cs),
(625,500,o),
(613.333,568.5,o),
(590,619.5,cs),
(566.667,670.5,o),
(543,701,o),
(519,711,cs),
(513,713.667,o),
(505.667,715,o),
(497,715,cs),
(488.333,715,o),
(478,714,o),
(467,710,cs),
(363,674,l),
(369,638,l),
(407,638,ls),
(471,638,o),
(507,626.333,o),
(531,573,cs),
(555,519.667,o),
(567,458.667,o),
(567,390,cs),
(567,266.667,o),
(536.333,173.667,o),
(475,111,cs),
(443.667,79,o),
(406.667,63,o),
(364,63,cs),
(306.667,63,o),
(276,97,o),
(271,165,cs),
(236,656,l)
);
}
);
width = 685;
}
);
note = V;
unicode = 86;
userData = {
KernOnName = V;
};
},
{
glyphname = W;
kernLeft = KO_V;
kernRight = KO_V;
lastChange = "2025-10-13 06:11:50 +0000";
layers = (
{
layerId = m01;
shapes = (
{
closed = 1;
nodes = (
(507,225,ls),
(509,201,o),
(510,183.667,o),
(512,173,c),
(475.333,99.667,o),
(426,63,o),
(364,63,cs),
(306.667,63,o),
(275,97,o),
(271,165,cs),
(241,656,l),
(241,721,o),
(119,737,o),
(28,687,c),
(46,652,l),
(59,659,o),
(74,665,o),
(91,669,c),
(115,225,ls),
(124,62,o),
(181.333,-15,o),
(328,-15,cs),
(412.667,-15,o),
(480.333,22.333,o),
(531,97,c),
(560.333,22.333,o),
(623.333,-15,o),
(720,-15,cs),
(813.333,-15,o),
(888,38.333,o),
(932,121,cs),
(975.333,204.333,o),
(997,302,o),
(997,414,cs),
(997,500,o),
(985.333,568.5,o),
(962,619.5,cs),
(938.667,670.5,o),
(915,701,o),
(891,711,cs),
(885,713.667,o),
(877.667,715,o),
(869,715,cs),
(860.333,715,o),
(850.333,713.333,o),
(839,710,cs),
(735,675,l),
(741,638,l),
(779,638,ls),
(843,638,o),
(879,626.333,o),
(903,573,cs),
(927,519.667,o),
(939,458.667,o),
(939,390,cs),
(939,266.667,o),
(911.333,173.667,o),
(856,111,cs),
(827.333,79,o),
(794,63,o),
(756,63,cs),
(698.667,63,o),
(668,97,o),
(663,165,cs),
(628,656,l),
(628,721,o),
(506,737,o),
(415,687,c),
(433,652,l),
(446,659,o),
(461,665,o),
(478,669,c)
);
}
);
width = 1057;
}
);
note = W;
unicode = 87;
userData = {
KernOnName = W;
};
},
{
glyphname = Wacute;
kernLeft = KO_V;
kernRight = KO_V;
lastChange = "2025-10-13 04:32:50 +0000";
layers = (
{
layerId = m01;
shapes = (
{
closed = 1;
nodes = (
(115,225,ls),
(125.667,62.333,o),
(181.333,-15,o),
(328,-15,cs),
(412.667,-15,o),
(480.333,22.333,o),
(531,97,c),
(560.333,22.333,o),
(623.333,-15,o),
(720,-15,cs),
(813.333,-15,o),
(888,38.333,o),
(932,121,cs),
(975.333,204.333,o),
(997,302,o),
(997,414,cs),
(997,500,o),
(985.333,568.5,o),
(962,619.5,cs),
(938.667,670.5,o),
(915,701,o),
(891,711,cs),
(885,713.667,o),
(877.667,715,o),
(869,715,cs),
(860.333,715,o),
(850.333,713.333,o),
(839,710,cs),
(735,675,l),
(741,638,l),
(779,638,ls),
(843,638,o),
(879,626.333,o),
(903,573,cs),
(927,519.667,o),
(939,458.667,o),
(939,390,cs),
(939,266.667,o),
(911.333,173.667,o),
(856,111,cs),
(827.333,79,o),
(794,63,o),
(756,63,cs),
(698.667,63,o),
(667.667,97,o),
(663,165,cs),
(628,700,l),
(417,700,l),
(417,660,l),
(479,660,l),
(507,225,ls),
(508.333,201,o),
(510,183.667,o),
(512,173,c),
(475.333,99.667,o),
(426,63,o),
(364,63,cs),
(306.667,63,o),
(275.667,97,o),
(271,165,cs),
(236,700,l),
(25,700,l),
(25,660,l),
(87,660,l),
(87,660,l)
);
},
{
closed = 1;
nodes = (
(653.667,862.667,o),
(674,882.333,o),
(674,913,cs),
(674,943.667,o),
(647.5,965,o),
(621.5,965,cs),
(595.5,965,o),
(577.833,953.833,o),
(566.5,942.5,cs),
(560.833,936.833,o),
(552.333,927.667,o),
(541,915,cs),
(422,783,l),
(443,759,l),
(591,832,l),
(591,832,l)
);
}
);
width = 1057;
}
);
note = Wacute;
unicode = 7810;
},
{
glyphname = Wcircumflex;
kernLeft = KO_V;
kernRight = KO_V;
lastChange = "2025-10-13 04:32:50 +0000";
layers = (
{
layerId = m01;
shapes = (
{
closed = 1;
nodes = (
(115,225,ls),
(125.667,62.333,o),
(181.333,-15,o),
(328,-15,cs),
(412.667,-15,o),
(480.333,22.333,o),
(531,97,c),
(560.333,22.333,o),
(623.333,-15,o),
(720,-15,cs),
(813.333,-15,o),
(888,38.333,o),
(932,121,cs),
(975.333,204.333,o),
(997,302,o),
(997,414,cs),
(997,500,o),
(985.333,568.5,o),
(962,619.5,cs),
(938.667,670.5,o),
(915,701,o),
(891,711,cs),
(885,713.667,o),
(877.667,715,o),
(869,715,cs),
(860.333,715,o),
(850.333,713.333,o),
(839,710,cs),
(735,675,l),
(741,638,l),
(779,638,ls),
(843,638,o),
(879,626.333,o),
(903,573,cs),
(927,519.667,o),
(939,458.667,o),
(939,390,cs),
(939,266.667,o),
(911.333,173.667,o),
(856,111,cs),
(827.333,79,o),
(794,63,o),
(756,63,cs),
(698.667,63,o),
(667.667,97,o),
(663,165,cs),
(628,700,l),
(417,700,l),
(417,660,l),
(479,660,l),
(507,225,ls),
(508.333,201,o),
(510,183.667,o),
(512,173,c),
(475.333,99.667,o),
(426,63,o),
(364,63,cs),
(306.667,63,o),
(275.667,97,o),
(271,165,cs),
(236,700,l),
(25,700,l),
(25,660,l),
(87,660,l),
(87,660,l)
);
},
{
closed = 1;
nodes = (
(372,783,l),
(393,759,l),
(534,854,l),
(542,854,l),
(683,759,l),
(704,783,l),
(596,927,ls),
(577.333,952.333,o),
(558,965,o),
(538,965,cs),
(518,965,o),
(498.667,952.333,o),
(480,927,cs)
);
}
);
width = 1057;
}
);
note = Wcircumflex;
unicode = 372;
},
{
glyphname = Wdieresis;
kernLeft = KO_V;
kernRight = KO_V;
lastChange = "2025-10-13 04:32:50 +0000";
layers = (
{
layerId = m01;
shapes = (
{
closed = 1;
nodes = (
(115,225,ls),
(125.667,62.333,o),
(181.333,-15,o),
(328,-15,cs),
(412.667,-15,o),
(480.333,22.333,o),
(531,97,c),
(560.333,22.333,o),
(623.333,-15,o),
(720,-15,cs),
(813.333,-15,o),
(888,38.333,o),
(932,121,cs),
(975.333,204.333,o),
(997,302,o),
(997,414,cs),
(997,500,o),
(985.333,568.5,o),
(962,619.5,cs),
(938.667,670.5,o),
(915,701,o),
(891,711,cs),
(885,713.667,o),
(877.667,715,o),
(869,715,cs),
(860.333,715,o),
(850.333,713.333,o),
(839,710,cs),
(735,675,l),
(741,638,l),
(779,638,ls),
(843,638,o),
(879,626.333,o),
(903,573,cs),
(927,519.667,o),
(939,458.667,o),
(939,390,cs),
(939,266.667,o),
(911.333,173.667,o),
(856,111,cs),
(827.333,79,o),
(794,63,o),
(756,63,cs),
(698.667,63,o),
(667.667,97,o),
(663,165,cs),
(628,700,l),
(417,700,l),
(417,660,l),
(479,660,l),
(507,225,ls),
(508.333,201,o),
(510,183.667,o),
(512,173,c),
(475.333,99.667,o),
(426,63,o),
(364,63,cs),
(306.667,63,o),
(275.667,97,o),
(271,165,cs),
(236,700,l),
(25,700,l),
(25,660,l),
(87,660,l),
(87,660,l)
);
},
{
closed = 1;
nodes = (
(349.5,816,l),
(379.704,786.467,o),
(426.296,786.467,o),
(456.5,816,cs),
(471.5,830.667,o),
(479,848.667,o),
(479,870,cs),
(479,912.667,o),
(444.333,946,o),
(403,946,cs),
(361.667,946,o),
(327,912.667,o),
(327,870,cs),
(327,848.667,o),
(334.5,830.667,o),
(349.5,816,c)
);
},
{
closed = 1;
nodes = (
(579.5,816,l),
(609.704,786.467,o),
(656.296,786.467,o),
(686.5,816,cs),
(701.5,830.667,o),
(709,848.667,o),
(709,870,cs),
(709,912.667,o),
(674.333,946,o),
(633,946,cs),
(591.667,946,o),
(557,912.667,o),
(557,870,cs),
(557,848.667,o),
(564.5,830.667,o),
(579.5,816,c)
);
}
);
width = 1057;
}
);
note = Wdieresis;
unicode = 7812;
},
{
glyphname = Wgrave;
kernLeft = KO_V;
kernRight = KO_V;
lastChange = "2025-10-13 04:32:50 +0000";
layers = (
{
layerId = m01;
shapes = (
{
closed = 1;
nodes = (
(115,225,ls),
(125.667,62.333,o),
(181.333,-15,o),
(328,-15,cs),
(412.667,-15,o),
(480.333,22.333,o),
(531,97,c),
(560.333,22.333,o),
(623.333,-15,o),
(720,-15,cs),
(813.333,-15,o),
(888,38.333,o),
(932,121,cs),
(975.333,204.333,o),
(997,302,o),
(997,414,cs),
(997,500,o),
(985.333,568.5,o),
(962,619.5,cs),
(938.667,670.5,o),
(915,701,o),
(891,711,cs),
(885,713.667,o),
(877.667,715,o),
(869,715,cs),
(860.333,715,o),
(850.333,713.333,o),
(839,710,cs),
(735,675,l),
(741,638,l),
(779,638,ls),
(843,638,o),
(879,626.333,o),
(903,573,cs),
(927,519.667,o),
(939,458.667,o),
(939,390,cs),
(939,266.667,o),
(911.333,173.667,o),
(856,111,cs),
(827.333,79,o),
(794,63,o),
(756,63,cs),
(698.667,63,o),
(667.667,97,o),
(663,165,cs),
(628,700,l),
(417,700,l),
(417,660,l),
(479,660,l),
(507,225,ls),
(508.333,201,o),
(510,183.667,o),
(512,173,c),
(475.333,99.667,o),
(426,63,o),
(364,63,cs),
(306.667,63,o),
(275.667,97,o),
(271,165,cs),
(236,700,l),
(25,700,l),
(25,660,l),
(87,660,l),
(87,660,l)
);
},
{
closed = 1;
nodes = (
(512.333,940.333,o),
(505.5,948.667,o),
(487.5,958,cs),
(478.5,962.667,o),
(467.5,965,o),
(454.5,965,cs),
(428.5,965,o),
(402,943.667,o),
(402,913,cs),
(402,882.333,o),
(422.333,862.667,o),
(485,832,cs),
(633,759,l),
(654,783,l),
(535,915,l),
(535,915,l)
);
}
);
width = 1057;
}
);
note = Wgrave;
unicode = 7808;
},
{
glyphname = X;
kernLeft = KO_X;
kernRight = KO_X;
lastChange = "2025-10-13 05:00:27 +0000";
layers = (
{
layerId = m01;
shapes = (
{
closed = 1;
nodes = (
(648,60,l),
(638,55,o),
(627,53,o),
(616,53,cs),
(592,53,o),
(577.333,63.333,o),
(560,98,cs),
(410,383,l),
(625,660,l),
(625,700,l),
(493,700,l),
(376,448,l),
(244,700,l),
(81,700,l),
(81,660,l),
(275,321,l),
(58,29,l),
(58,0,l),
(189,0,l),
(308,258,l),
(414,57,ls),
(442,2.333,o),
(483.333,-15,o),
(546,-15,cs),
(593,-15,o),
(634,-1,o),
(669,26,c)
);
}
);
width = 696;
}
);
note = X;
unicode = 88;
},
{
glyphname = Y;
kernLeft = KO_Y;
kernRight = KO_Y;
lastChange = "2025-10-13 06:11:50 +0000";
layers = (
{
anchors = (
{
name = bottom;
pos = (304,0);
},
{
name = top;
pos = (304,700);
},
{
name = topleft;
pos = (20,700);
}
);
layerId = m01;
shapes = (
{
closed = 1;
nodes = (
(385,0,l),
(385,250,l),
(555,660,l),
(555,700,l),
(451,700,l),
(361,308,l),
(203,700,l),
(53,700,l),
(53,660,l),
(235,250,l),
(235,0,l)
);
}
);
width = 607;
}
);
note = Y;
unicode = 89;
userData = {
KernOnName = Y;
};
},
{
glyphname = Ycircumflex;
lastChange = "2025-10-13 04:32:50 +0000";
layers = (
{
layerId = m01;
shapes = (
{
closed = 1;
nodes = (
(485,40,l),
(385,40,l),
(385,250,l),
(555,660,l),
(602,660,l),
(602,700,l),
(451,700,l),
(361,308,l),
(203,700,l),
(5,700,l),
(5,660,l),
(53,660,l),
(235,250,l),
(235,40,l),
(135,40,l),
(135,0,l),
(485,0,l),
(485,0,l)
);
},
{
closed = 1;
nodes = (
(147,783,l),
(168,759,l),
(309,854,l),
(317,854,l),
(458,759,l),
(479,783,l),
(371,927,ls),
(352.333,952.333,o),
(333,965,o),
(313,965,cs),
(293,965,o),
(273.667,952.333,o),
(255,927,cs)
);
}
);
width = 607;
}
);
note = Ycircumflex;
unicode = 374;
},
{
glyphname = Ydieresis;
lastChange = "2025-10-13 06:11:50 +0000";
layers = (
{
layerId = m01;
shapes = (
{
closed = 1;
nodes = (
(486,40,l),
(386,40,l),
(386,247,l),
(589,660,l),
(636,660,l),
(636,700,l),
(485,700,l),
(358,323,l),
(214,700,l),
(14,700,l),
(14,660,l),
(64,660,l),
(236,250,l),
(236,40,l),
(136,40,l),
(136,0,l),
(486,0,l),
(486,0,l)
);
},
{
closed = 1;
nodes = (
(398,816,l),
(427.512,786.488,o),
(476.488,786.488,o),
(506,816,cs),
(520.667,830.667,o),
(528,848.667,o),
(528,870,cs),
(528,912.667,o),
(494.667,946,o),
(452,946,cs),
(409.333,946,o),
(376,912.667,o),
(376,870,cs),
(376,848.667,o),
(383.333,830.667,o),
(398,816,c)
);
},
{
closed = 1;
nodes = (
(168,816,l),
(197.512,786.488,o),
(246.488,786.488,o),
(276,816,cs),
(290.667,830.667,o),
(298,848.667,o),
(298,870,cs),
(298,912.667,o),
(264.667,946,o),
(222,946,cs),
(179.333,946,o),
(146,912.667,o),
(146,870,cs),
(146,848.667,o),
(153.333,830.667,o),
(168,816,c)
);
}
);
width = 654;
}
);
note = Ydieresis;
unicode = 376;
userData = {
KernOnName = Ydieresis;
};
},
{
glyphname = Z;
kernLeft = KO_Z;
kernRight = KO_Z;
lastChange = "2025-10-13 04:32:50 +0000";
layers = (
{
layerId = m01;
shapes = (
{
closed = 1;
nodes = (
(541.833,0,o),
(560,5.915,o),
(560,42,c),
(533,200,l),
(494,200,l),
(474,111,ls),
(460.667,51,o),
(436.667,40,o),
(350,40,cs),
(199,40,l),
(555,660,l),
(555,700,l),
(111,700,ls),
(68.167,700,o),
(50,694.085,o),
(50,658,c),
(77,490,l),
(116,490,l),
(136,589,ls),
(148,649,o),
(172,660,o),
(260,660,cs),
(393,660,l),
(30,40,l),
(30,0,l),
(499,0,l),
(499,0,l)
);
}
);
width = 590;
}
);
note = Z;
unicode = 90;
},
{
glyphname = Zacute;
kernLeft = KO_Z;
kernRight = KO_Z;
lastChange = "2025-10-13 04:32:50 +0000";
layers = (
{
layerId = m01;
shapes = (
{
closed = 1;
nodes = (
(541.833,0,o),
(560,5.915,o),
(560,42,c),
(533,200,l),
(494,200,l),
(474,111,ls),
(460.667,51,o),
(436.667,40,o),
(350,40,cs),
(199,40,l),
(555,660,l),
(555,700,l),
(111,700,ls),
(68.167,700,o),
(50,694.085,o),
(50,658,c),
(77,490,l),
(116,490,l),
(136,589,ls),
(148,649,o),
(172,660,o),
(260,660,cs),
(393,660,l),
(30,40,l),
(30,0,l),
(499,0,l),
(499,0,l)
);
},
{
closed = 1;
nodes = (
(460.667,862.667,o),
(481,882.333,o),
(481,913,cs),
(481,943.667,o),
(454.5,965,o),
(428.5,965,cs),
(402.5,965,o),
(384.833,953.833,o),
(373.5,942.5,cs),
(367.833,936.833,o),
(359.333,927.667,o),
(348,915,cs),
(229,783,l),
(250,759,l),
(398,832,l),
(398,832,l)
);
}
);
width = 590;
}
);
note = Zacute;
unicode = 377;
},
{
glyphname = Zcaron;
kernLeft = KO_Z;
kernRight = KO_Z;
lastChange = "2025-10-13 04:32:50 +0000";
layers = (
{
layerId = m01;
shapes = (
{
closed = 1;
nodes = (
(541.833,0,o),
(560,5.915,o),
(560,42,c),
(533,200,l),
(494,200,l),
(474,111,ls),
(460.667,51,o),
(436.667,40,o),
(350,40,cs),
(199,40,l),
(555,660,l),
(555,700,l),
(111,700,ls),
(68.167,700,o),
(50,694.085,o),
(50,658,c),
(77,490,l),
(116,490,l),
(136,589,ls),
(148,649,o),
(172,660,o),
(260,660,cs),
(393,660,l),
(30,40,l),
(30,0,l),
(499,0,l),
(499,0,l)
);
},
{
closed = 1;
nodes = (
(481,941,l),
(460,965,l),
(319,870,l),
(311,870,l),
(170,965,l),
(149,941,l),
(257,797,ls),
(275.667,771.667,o),
(295,759,o),
(315,759,cs),
(335,759,o),
(354.333,771.667,o),
(373,797,cs)
);
}
);
width = 590;
}
);
note = Zcaron;
unicode = 381;
},
{
glyphname = Zdotaccent;
kernLeft = KO_Z;
kernRight = KO_Z;
lastChange = "2025-10-13 04:32:50 +0000";
layers = (
{
layerId = m01;
shapes = (
{
closed = 1;
nodes = (
(541.833,0,o),
(560,5.915,o),
(560,42,c),
(533,200,l),
(494,200,l),
(474,111,ls),
(460.667,51,o),
(436.667,40,o),
(350,40,cs),
(199,40,l),
(555,660,l),
(555,700,l),
(111,700,ls),
(68.167,700,o),
(50,694.085,o),
(50,658,c),
(77,490,l),
(116,490,l),
(136,589,ls),
(148,649,o),
(172,660,o),
(260,660,cs),
(393,660,l),
(30,40,l),
(30,0,l),
(499,0,l),
(499,0,l)
);
},
{
closed = 1;
nodes = (
(268.5,813.5,l),
(300.006,781.994,o),
(349.994,781.994,o),
(381.5,813.5,cs),
(397.167,829.167,o),
(405,848,o),
(405,870,cs),
(405,914,o),
(369,950,o),
(325,950,cs),
(281,950,o),
(245,914,o),
(245,870,cs),
(245,848,o),
(252.833,829.167,o),
(268.5,813.5,c)
);
}
);
width = 590;
}
);
note = Zdotaccent;
unicode = 379;
},
{
glyphname = a;
kernLeft = KO_a;
kernRight = KO_a;
lastChange = "2025-10-13 05:05:35 +0000";
layers = (
{
anchors = (
{
name = bottom;
pos = (355,0);
},
{
name = ogonek;
pos = (639,10);
},
{
name = top;
pos = (355,500);
}
);
layerId = m01;
shapes = (
{
closed = 1;
nodes = (
(248,402,l),
(285.764,477.528,o),
(380.477,477.493,o),
(421.5,401.5,cs),
(441.833,363.833,o),
(452,313.333,o),
(452,250,cs),
(452,123.333,o),
(410.167,42,o),
(333.5,42,cs),
(256.833,42,o),
(220,122,o),
(220,250,cs),
(220,314,o),
(229.333,364.667,o),
(248,402,c)
);
},
{
closed = 1;
nodes = (
(684,63,l),
(635,38,o),
(597,60,o),
(597,111,cs),
(597,500,l),
(447,500,l),
(447,500,l),
(447,444,l),
(415,491.333,o),
(369.333,515,o),
(310,515,cs),
(155.333,515,o),
(65,403.5,o),
(65,249.5,cs),
(65,95.5,o),
(146.667,-15,o),
(300,-15,cs),
(367.333,-15,o),
(418.333,14.667,o),
(453,74,c),
(467.667,14.667,o),
(506.667,-15,o),
(570,-15,cs),
(615,-15,o),
(653,2,o),
(698,36,c)
);
}
);
width = 710;
}
);
note = a;
unicode = 97;
},
{
glyphname = adieresis;
kernLeft = KO_adieresis;
kernRight = KO_d;
lastChange = "2025-10-13 04:32:50 +0000";
layers = (
{
layerId = m01;
shapes = (
{
closed = 1;
nodes = (
(432,444,l),
(400,491.333,o),
(354.333,515,o),
(295,515,cs),
(140.333,515,o),
(50,403.5,o),
(50,249.5,cs),
(50,95.5,o),
(131.667,-15,o),
(285,-15,cs),
(352.333,-15,o),
(403.333,14.667,o),
(438,74,c),
(452.667,14.667,o),
(491.667,-15,o),
(555,-15,cs),
(608.333,-15,o),
(661.667,9.333,o),
(715,58,c),
(697,82,l),
(635.135,30.741,o),
(582,50.953,o),
(582,111,cs),
(582,500,l),
(432,500,l),
(432,500,l)
);
},
{
closed = 1;
nodes = (
(233,402,l),
(270.764,477.528,o),
(365.477,477.493,o),
(406.5,401.5,cs),
(426.833,363.833,o),
(437,313.333,o),
(437,250,cs),
(437,123.333,o),
(395.167,42,o),
(318.5,42,cs),
(241.833,42,o),
(205,122,o),
(205,250,cs),
(205,314,o),
(214.333,364.667,o),
(233,402,c)
);
},
{
closed = 1;
nodes = (
(178,616,l),
(207.512,586.488,o),
(256.488,586.488,o),
(286,616,cs),
(300.667,630.667,o),
(308,648.667,o),
(308,670,cs),
(308,712.667,o),
(274.667,746,o),
(232,746,cs),
(189.333,746,o),
(156,712.667,o),
(156,670,cs),
(156,648.667,o),
(163.333,630.667,o),
(178,616,c)
);
},
{
closed = 1;
nodes = (
(408,616,l),
(437.512,586.488,o),
(486.488,586.488,o),
(516,616,cs),
(530.667,630.667,o),
(538,648.667,o),
(538,670,cs),
(538,712.667,o),
(504.667,746,o),
(462,746,cs),
(419.333,746,o),
(386,712.667,o),
(386,670,cs),
(386,648.667,o),
(393.333,630.667,o),
(408,616,c)
);
}
);
width = 695;
}
);
note = adieresis;
unicode = 228;
},
{
glyphname = amacron;
kernLeft = KO_a;
kernRight = KO_d;
lastChange = "2025-10-13 04:32:50 +0000";
layers = (
{
layerId = m01;
shapes = (
{
closed = 1;
nodes = (
(447,444,l),
(415,491.333,o),
(369.333,515,o),
(310,515,cs),
(155.333,515,o),
(65,403.5,o),
(65,249.5,cs),
(65,95.5,o),
(146.667,-15,o),
(300,-15,cs),
(367.333,-15,o),
(418.333,14.667,o),
(453,74,c),
(467.667,14.667,o),
(506.667,-15,o),
(570,-15,cs),
(623.333,-15,o),
(676.667,9.333,o),
(730,58,c),
(712,82,l),
(650.135,30.741,o),
(597,50.953,o),
(597,111,cs),
(597,500,l),
(447,500,l),
(447,500,l)
);
},
{
closed = 1;
nodes = (
(248,402,l),
(285.764,477.528,o),
(380.477,477.493,o),
(421.5,401.5,cs),
(441.833,363.833,o),
(452,313.333,o),
(452,250,cs),
(452,123.333,o),
(410.167,42,o),
(333.5,42,cs),
(256.833,42,o),
(220,122,o),
(220,250,cs),
(220,314,o),
(229.333,364.667,o),
(248,402,c)
);
},
{
closed = 1;
nodes = (
(502,612,l),
(502,700,l),
(208,700,l),
(208,612,l),
(208,612,l)
);
}
);
width = 710;
}
);
note = amacron;
unicode = 257;
},
{
glyphname = aogonek;
kernLeft = KO_a;
kernRight = KO_d;
lastChange = "2025-10-13 04:32:50 +0000";
layers = (
{
layerId = m01;
shapes = (
{
closed = 1;
nodes = (
(447,444,l),
(415,491.333,o),
(369.333,515,o),
(310,515,cs),
(155.333,515,o),
(65,403.5,o),
(65,249.5,cs),
(65,95.5,o),
(146.667,-15,o),
(300,-15,cs),
(367.333,-15,o),
(418.333,14.667,o),
(453,74,c),
(467.667,14.667,o),
(506.667,-15,o),
(570,-15,cs),
(576,-15,o),
(585,-14.333,o),
(597,-13,c),
(588,-21,ls),
(540,-61,o),
(511,-94.167,o),
(511,-149.5,cs),
(511,-204.833,o),
(557.333,-238,o),
(620,-238,cs),
(670.667,-238,o),
(712,-218.667,o),
(744,-180,c),
(727,-151,l),
(669.298,-204.855,o),
(602,-177.021,o),
(602,-122.5,cs),
(602,-85.833,o),
(613.333,-58.667,o),
(664,-8,cs),
(730,58,l),
(712,82,l),
(650.135,30.741,o),
(597,50.953,o),
(597,111,cs),
(597,500,l),
(447,500,l),
(447,500,l)
);
},
{
closed = 1;
nodes = (
(248,402,l),
(285.764,477.528,o),
(380.477,477.493,o),
(421.5,401.5,cs),
(441.833,363.833,o),
(452,313.333,o),
(452,250,cs),
(452,123.333,o),
(410.167,42,o),
(333.5,42,cs),
(256.833,42,o),
(220,122,o),
(220,250,cs),
(220,314,o),
(229.333,364.667,o),
(248,402,c)
);
}
);
width = 710;
}
);
note = aogonek;
unicode = 261;
},
{
glyphname = aring;
kernLeft = KO_a;
kernRight = KO_d;
lastChange = "2025-10-13 04:32:50 +0000";
layers = (
{
layerId = m01;
shapes = (
{
closed = 1;
nodes = (
(447,444,l),
(415,491.333,o),
(369.333,515,o),
(310,515,cs),
(155.333,515,o),
(65,403.5,o),
(65,249.5,cs),
(65,95.5,o),
(146.667,-15,o),
(300,-15,cs),
(367.333,-15,o),
(418.333,14.667,o),
(453,74,c),
(467.667,14.667,o),
(506.667,-15,o),
(570,-15,cs),
(623.333,-15,o),
(676.667,9.333,o),
(730,58,c),
(712,82,l),
(650.135,30.741,o),
(597,50.953,o),
(597,111,cs),
(597,500,l),
(447,500,l),
(447,500,l)
);
},
{
closed = 1;
nodes = (
(248,402,l),
(285.764,477.528,o),
(380.477,477.493,o),
(421.5,401.5,cs),
(441.833,363.833,o),
(452,313.333,o),
(452,250,cs),
(452,123.333,o),
(410.167,42,o),
(333.5,42,cs),
(256.833,42,o),
(220,122,o),
(220,250,cs),
(220,314,o),
(229.333,364.667,o),
(248,402,c)
);
},
{
closed = 1;
nodes = (
(345,553,l),
(418.333,553,o),
(474,599.5,o),
(474,669.5,cs),
(474,739.5,o),
(418.333,787,o),
(345,787,cs),
(271.667,787,o),
(216,739.5,o),
(216,669.5,cs),
(216,599.5,o),
(271.667,553,o),
(345,553,c)
);
},
{
closed = 1;
nodes = (
(344.5,752,l),
(344.5,752,o),
(344.5,752,o),
(344.5,752,c)
);
}
);
width = 710;
}
);
note = aring;
unicode = 229;
},
{
glyphname = aringacute;
lastChange = "2025-10-13 04:32:50 +0000";
layers = (
{
layerId = m01;
shapes = (
{
closed = 1;
nodes = (
(447,444,l),
(415,491.333,o),
(369.333,515,o),
(310,515,cs),
(155.333,515,o),
(65,403.5,o),
(65,249.5,cs),
(65,95.5,o),
(146.667,-15,o),
(300,-15,cs),
(367.333,-15,o),
(418.333,14.667,o),
(453,74,c),
(467.667,14.667,o),
(506.667,-15,o),
(570,-15,cs),
(623.333,-15,o),
(676.667,9.333,o),
(730,58,c),
(712,82,l),
(650.135,30.741,o),
(597,50.953,o),
(597,111,cs),
(597,500,l),
(447,500,l),
(447,500,l)
);
},
{
closed = 1;
nodes = (
(248,402,l),
(285.764,477.528,o),
(380.477,477.493,o),
(421.5,401.5,cs),
(441.833,363.833,o),
(452,313.333,o),
(452,250,cs),
(452,123.333,o),
(410.167,42,o),
(333.5,42,cs),
(256.833,42,o),
(220,122,o),
(220,250,cs),
(220,314,o),
(229.333,364.667,o),
(248,402,c)
);
},
{
closed = 1;
nodes = (
(390.535,792.663,o),
(311.44,800.562,o),
(259,754.5,cs),
(234.333,732.833,o),
(222,704.5,o),
(222,669.5,cs),
(222,599.5,o),
(277.667,553,o),
(351,553,cs),
(424.333,553,o),
(480,599.333,o),
(480,670,cs),
(480,693.333,o),
(473.667,714.667,o),
(461,734,c),
(500,759,ls),
(546.667,788.333,o),
(560,807,o),
(560,831,cs),
(560,855,o),
(539.333,871,o),
(514,871,cs),
(488.667,871,o),
(474.667,857,o),
(452,813,cs),
(427,765,l),
(427,765,l)
);
},
{
closed = 1;
nodes = (
(350.5,752,l),
(350.5,752,o),
(350.5,752,o),
(350.5,752,c)
);
}
);
width = 710;
}
);
note = aringacute;
unicode = 507;
},
{
glyphname = ae;
kernLeft = KO_ae;
kernRight = KO_ae;
lastChange = "2025-10-13 06:11:50 +0000";
layers = (
{
layerId = m01;
shapes = (
{
closed = 1;
nodes = (
(764.333,180,o),
(845,270.667,o),
(845,360,cs),
(845,449.333,o),
(776.667,515,o),
(650,515,cs),
(586.667,515,o),
(532.333,498.667,o),
(487,466,c),
(453,498.667,o),
(403.333,515,o),
(338,515,cs),
(244.667,515,o),
(185,494,o),
(105,430,c),
(125,398,l),
(183.667,433.333,o),
(236.667,451,o),
(284,451,cs),
(306.667,451,o),
(325.333,446.333,o),
(340,437,cs),
(373.333,416.333,o),
(390,362,o),
(390,274,c),
(284.756,321.284,o),
(174.688,314.632,o),
(109,260.5,cs),
(73,230.833,o),
(55,192.167,o),
(55,144.5,cs),
(55,49.167,o),
(121.333,-15,o),
(224,-15,cs),
(326.667,-15,o),
(387.667,39.667,o),
(413,117,c),
(455.667,37,o),
(532.667,-15,o),
(630,-15,cs),
(727.333,-15,o),
(803.667,32,o),
(849,104,c),
(821,122,l),
(776.333,72,o),
(722,47,o),
(658,47,cs),
(587.333,47,o),
(543,104,o),
(531,192,c),
(569,184,o),
(606.333,180,o),
(643,180,cs)
);
},
{
closed = 1;
nodes = (
(527,384.667,o),
(580,461,o),
(636,461,cs),
(692,461,o),
(717,423.5,o),
(717,357.5,cs),
(717,291.5,o),
(670.333,219,o),
(581,219,cs),
(567,219,o),
(549,221.333,o),
(527,226,c),
(527,250,l),
(527,250,l)
);
},
{
closed = 1;
nodes = (
(230,52,o),
(200,90.667,o),
(200,152,cs),
(200,213.333,o),
(231.833,258,o),
(292.5,258,cs),
(322.833,258,o),
(355.333,251.667,o),
(390,239,c),
(390,114.333,o),
(352.667,52,o),
(278,52,cs)
);
}
);
width = 904;
}
);
note = ae;
unicode = 230;
userData = {
KernOnName = ae;
};
},
{
glyphname = aeacute;
kernLeft = KO_ae;
kernRight = KO_ae;
lastChange = "2025-10-13 04:32:50 +0000";
layers = (
{
layerId = m01;
shapes = (
{
closed = 1;
nodes = (
(764.333,180,o),
(845,270.667,o),
(845,360,cs),
(845,449.333,o),
(776.667,515,o),
(650,515,cs),
(586.667,515,o),
(532.333,498.667,o),
(487,466,c),
(453,498.667,o),
(403.333,515,o),
(338,515,cs),
(244.667,515,o),
(185,494,o),
(105,430,c),
(125,398,l),
(183.667,433.333,o),
(236.667,451,o),
(284,451,cs),
(306.667,451,o),
(325.333,446.333,o),
(340,437,cs),
(373.333,416.333,o),
(390,362,o),
(390,274,c),
(284.756,321.284,o),
(174.688,314.632,o),
(109,260.5,cs),
(73,230.833,o),
(55,192.167,o),
(55,144.5,cs),
(55,49.167,o),
(121.333,-15,o),
(224,-15,cs),
(326.667,-15,o),
(387.667,39.667,o),
(413,117,c),
(455.667,37,o),
(532.667,-15,o),
(630,-15,cs),
(727.333,-15,o),
(803.667,32,o),
(849,104,c),
(821,122,l),
(776.333,72,o),
(722,47,o),
(658,47,cs),
(587.333,47,o),
(543,104,o),
(531,192,c),
(569,184,o),
(606.333,180,o),
(643,180,cs)
);
},
{
closed = 1;
nodes = (
(527,384.667,o),
(580,461,o),
(636,461,cs),
(692,461,o),
(717,423.5,o),
(717,357.5,cs),
(717,291.5,o),
(670.333,219,o),
(581,219,cs),
(567,219,o),
(549,221.333,o),
(527,226,c),
(527,250,l),
(527,250,l)
);
},
{
closed = 1;
nodes = (
(230,52,o),
(200,90.667,o),
(200,152,cs),
(200,213.333,o),
(231.833,258,o),
(292.5,258,cs),
(322.833,258,o),
(355.333,251.667,o),
(390,239,c),
(390,114.333,o),
(352.667,52,o),
(278,52,cs)
);
},
{
closed = 1;
nodes = (
(595.667,662.667,o),
(616,682.333,o),
(616,713,cs),
(616,743.667,o),
(589.5,765,o),
(563.5,765,cs),
(537.5,765,o),
(519.833,753.833,o),
(508.5,742.5,cs),
(502.833,736.833,o),
(494.333,727.667,o),
(483,715,cs),
(364,583,l),
(385,559,l),
(533,632,l),
(533,632,l)
);
}
);
width = 904;
}
);
note = aeacute;
unicode = 509;
},
{
glyphname = b;
kernLeft = KO_k;
kernRight = KO_b;
lastChange = "2025-10-13 04:35:48 +0000";
layers = (
{
layerId = m01;
shapes = (
{
closed = 1;
nodes = (
(460,98,l),
(422.236,22.472,o),
(327.523,22.507,o),
(286.5,98.5,cs),
(266.167,136.167,o),
(256,186.667,o),
(256,250,cs),
(256,376.667,o),
(297.833,458,o),
(374.5,458,cs),
(451.167,458,o),
(488,378,o),
(488,250,cs),
(488,186,o),
(478.667,135.333,o),
(460,98,c)
);
},
{
closed = 1;
nodes = (
(261,769,o),
(139,785,o),
(48,735,c),
(66,700,l),
(79,707,o),
(94,713,o),
(111,717,c),
(111,0,l),
(261,0,l),
(261,56,l),
(293,8.667,o),
(338.667,-15,o),
(398,-15,cs),
(552.667,-15,o),
(643,96.5,o),
(643,250.5,cs),
(643,404.5,o),
(561.333,515,o),
(408,515,cs),
(345.333,515,o),
(296.333,488.667,o),
(261,436,c),
(261,704,ls)
);
}
);
width = 708;
}
);
note = b;
unicode = 98;
},
{
glyphname = c;
kernLeft = KO_e;
kernRight = KO_c;
lastChange = "2025-10-13 04:47:43 +0000";
layers = (
{
layerId = m01;
shapes = (
{
closed = 1;
nodes = (
(478,91,l),
(443,62,o),
(402,47,o),
(356,47,cs),
(266.667,47,o),
(220,130.5,o),
(220,252.5,cs),
(220,374.5,o),
(266.667,463,o),
(356,463,cs),
(380,463,o),
(401.333,459,o),
(420,451,c),
(385.333,440.333,o),
(362,411,o),
(362,371,cs),
(362,331,o),
(398,294,o),
(442,294,cs),
(486,294,o),
(522,330,o),
(522,374,cs),
(522,460.667,o),
(418,515,o),
(330,515,cs),
(172.667,515,o),
(65,399.333,o),
(65,250,cs),
(65,100.667,o),
(172.333,-15,o),
(331,-15,cs),
(400,-15,o),
(460,14,o),
(505,61,c)
);
}
);
width = 562;
}
);
note = c;
unicode = 99;
},
{
glyphname = cacute;
kernLeft = KO_e;
kernRight = KO_ccaron;
lastChange = "2025-10-13 04:32:50 +0000";
layers = (
{
layerId = m01;
shapes = (
{
closed = 1;
nodes = (
(419,-15,o),
(493,32,o),
(537,104,c),
(509,122,l),
(467,72,o),
(416,47,o),
(356,47,cs),
(266.667,47,o),
(220,130.5,o),
(220,252.5,cs),
(220,374.5,o),
(266.667,463,o),
(356,463,cs),
(380,463,o),
(401.333,459,o),
(420,451,c),
(385.333,440.333,o),
(362,411,o),
(362,371,cs),
(362,331,o),
(398,294,o),
(442,294,cs),
(486,294,o),
(522,330,o),
(522,374,cs),
(522,460.667,o),
(418,515,o),
(330,515,cs),
(172.667,515,o),
(65,399.333,o),
(65,250,cs),
(65,100.667,o),
(172.333,-15,o),
(331,-15,cs)
);
},
{
closed = 1;
nodes = (
(436.667,662.667,o),
(457,682.333,o),
(457,713,cs),
(457,743.667,o),
(430.5,765,o),
(404.5,765,cs),
(378.5,765,o),
(360.833,753.833,o),
(349.5,742.5,cs),
(343.833,736.833,o),
(335.333,727.667,o),
(324,715,cs),
(205,583,l),
(226,559,l),
(374,632,l),
(374,632,l)
);
}
);
width = 562;
}
);
note = cacute;
unicode = 263;
},
{
glyphname = ccaron;
kernLeft = KO_e;
kernRight = KO_ccaron;
lastChange = "2025-10-13 04:32:50 +0000";
layers = (
{
layerId = m01;
shapes = (
{
closed = 1;
nodes = (
(419,-15,o),
(493,32,o),
(537,104,c),
(509,122,l),
(467,72,o),
(416,47,o),
(356,47,cs),
(266.667,47,o),
(220,130.5,o),
(220,252.5,cs),
(220,374.5,o),
(266.667,463,o),
(356,463,cs),
(380,463,o),
(401.333,459,o),
(420,451,c),
(385.333,440.333,o),
(362,411,o),
(362,371,cs),
(362,331,o),
(398,294,o),
(442,294,cs),
(486,294,o),
(522,330,o),
(522,374,cs),
(522,460.667,o),
(418,515,o),
(330,515,cs),
(172.667,515,o),
(65,399.333,o),
(65,250,cs),
(65,100.667,o),
(172.333,-15,o),
(331,-15,cs)
);
},
{
closed = 1;
nodes = (
(497,741,l),
(476,765,l),
(335,670,l),
(327,670,l),
(186,765,l),
(165,741,l),
(273,597,ls),
(291.667,571.667,o),
(311,559,o),
(331,559,cs),
(351,559,o),
(370.333,571.667,o),
(389,597,cs)
);
}
);
width = 562;
}
);
note = ccaron;
unicode = 269;
},
{
glyphname = ccedilla;
kernLeft = KO_e;
kernRight = KO_ccaron;
lastChange = "2025-10-13 04:32:50 +0000";
layers = (
{
layerId = m01;
shapes = (
{
closed = 1;
nodes = (
(419,-15,o),
(493,32,o),
(537,104,c),
(509,122,l),
(467,72,o),
(416,47,o),
(356,47,cs),
(266.667,47,o),
(220,130.5,o),
(220,252.5,cs),
(220,374.5,o),
(266.667,463,o),
(356,463,cs),
(380,463,o),
(401.333,459,o),
(420,451,c),
(385.333,440.333,o),
(362,411,o),
(362,371,cs),
(362,331,o),
(398,294,o),
(442,294,cs),
(486,294,o),
(522,330,o),
(522,374,cs),
(522,460.667,o),
(418,515,o),
(330,515,cs),
(172.667,515,o),
(65,397.333,o),
(65,256,cs),
(65,114.667,o),
(150,9,o),
(282,-11,c),
(244,-93,l),
(266,-110,l),
(363.629,-110,o),
(359.321,-233,o),
(275,-233,cs),
(270.333,-233,o),
(265.333,-232.333,o),
(260,-231,c),
(295.267,-205.53,o),
(274.2,-155,o),
(236.5,-155,cs),
(214.5,-155,o),
(196,-173.333,o),
(196,-196,cs),
(196,-240,o),
(242.667,-265,o),
(308,-265,cs),
(373.333,-265,o),
(426,-219.667,o),
(426,-165,cs),
(426,-110.333,o),
(383.667,-70,o),
(321,-70,cs),
(305,-70,o),
(291.333,-72.333,o),
(280,-77,c),
(311,-14,l),
(315,-14.667,o),
(321.667,-15,o),
(331,-15,cs)
);
}
);
width = 562;
}
);
note = ccedilla;
unicode = 231;
},
{
glyphname = ccircumflex;
kernLeft = KO_e;
kernRight = KO_ccaron;
lastChange = "2025-10-13 04:32:50 +0000";
layers = (
{
layerId = m01;
shapes = (
{
closed = 1;
nodes = (
(419,-15,o),
(493,32,o),
(537,104,c),
(509,122,l),
(467,72,o),
(416,47,o),
(356,47,cs),
(266.667,47,o),
(220,130.5,o),
(220,252.5,cs),
(220,374.5,o),
(266.667,463,o),
(356,463,cs),
(380,463,o),
(401.333,459,o),
(420,451,c),
(385.333,440.333,o),
(362,411,o),
(362,371,cs),
(362,331,o),
(398,294,o),
(442,294,cs),
(486,294,o),
(522,330,o),
(522,374,cs),
(522,460.667,o),
(418,515,o),
(330,515,cs),
(172.667,515,o),
(65,399.333,o),
(65,250,cs),
(65,100.667,o),
(172.333,-15,o),
(331,-15,cs)
);
},
{
closed = 1;
nodes = (
(145,583,l),
(166,559,l),
(307,654,l),
(315,654,l),
(456,559,l),
(477,583,l),
(369,727,ls),
(350.333,752.333,o),
(331,765,o),
(311,765,cs),
(291,765,o),
(271.667,752.333,o),
(253,727,cs)
);
}
);
width = 562;
}
);
note = ccircumflex;
unicode = 265;
},
{
glyphname = cdotaccent;
kernLeft = KO_e;
kernRight = KO_ccaron;
lastChange = "2025-10-13 04:32:50 +0000";
layers = (
{
layerId = m01;
shapes = (
{
closed = 1;
nodes = (
(419,-15,o),
(493,32,o),
(537,104,c),
(509,122,l),
(467,72,o),
(416,47,o),
(356,47,cs),
(266.667,47,o),
(220,130.5,o),
(220,252.5,cs),
(220,374.5,o),
(266.667,463,o),
(356,463,cs),
(380,463,o),
(401.333,459,o),
(420,451,c),
(385.333,440.333,o),
(362,411,o),
(362,371,cs),
(362,331,o),
(398,294,o),
(442,294,cs),
(486,294,o),
(522,330,o),
(522,374,cs),
(522,460.667,o),
(418,515,o),
(330,515,cs),
(172.667,515,o),
(65,399.333,o),
(65,250,cs),
(65,100.667,o),
(172.333,-15,o),
(331,-15,cs)
);
},
{
closed = 1;
nodes = (
(274.5,613.5,l),
(306.006,581.994,o),
(355.994,581.994,o),
(387.5,613.5,cs),
(403.167,629.167,o),
(411,648,o),
(411,670,cs),
(411,714,o),
(375,750,o),
(331,750,cs),
(287,750,o),
(251,714,o),
(251,670,cs),
(251,648,o),
(258.833,629.167,o),
(274.5,613.5,c)
);
}
);
width = 562;
}
);
note = cdotaccent;
unicode = 267;
},
{
glyphname = d;
kernLeft = KO_a;
kernRight = KO_d;
lastChange = "2025-10-13 06:11:50 +0000";
layers = (
{
layerId = m01;
shapes = (
{
closed = 1;
nodes = (
(248,402,l),
(285.764,477.528,o),
(380.477,477.493,o),
(421.5,401.5,cs),
(441.833,363.833,o),
(452,313.333,o),
(452,250,cs),
(452,123.333,o),
(410.167,42,o),
(333.5,42,cs),
(256.833,42,o),
(220,122,o),
(220,250,cs),
(220,314,o),
(229.333,364.667,o),
(248,402,c)
);
},
{
closed = 1;
nodes = (
(597,769,o),
(475,785,o),
(384,735,c),
(402,700,l),
(415,707,o),
(430,713,o),
(447,717,c),
(447,444,l),
(415,491.333,o),
(369.333,515,o),
(310,515,cs),
(155.333,515,o),
(65,403.5,o),
(65,249.5,cs),
(65,95.5,o),
(146.667,-15,o),
(300,-15,cs),
(367.333,-15,o),
(418.333,14.667,o),
(453,74,c),
(467.667,14.667,o),
(506.667,-15,o),
(570,-15,cs),
(623.333,-15,o),
(676.667,9.333,o),
(730,58,c),
(707,82,l),
(641.7,27.894,o),
(597,56.536,o),
(597,111,cs),
(597,704,ls)
);
}
);
width = 710;
}
);
note = d;
unicode = 100;
userData = {
KernOnName = d;
};
},
{
glyphname = dcaron;
kernLeft = KO_a;
lastChange = "2025-10-13 04:32:50 +0000";
layers = (
{
layerId = m01;
shapes = (
{
closed = 1;
nodes = (
(597,781.188,o),
(423.485,789.502,o),
(336,699,c),
(363,668,l),
(382.333,691.333,o),
(410.333,707.667,o),
(447,717,c),
(447,444,l),
(415,491.333,o),
(369.333,515,o),
(310,515,cs),
(155.333,515,o),
(65,403.5,o),
(65,249.5,cs),
(65,95.5,o),
(146.667,-15,o),
(300,-15,cs),
(367.333,-15,o),
(418.333,14.667,o),
(453,74,c),
(467.667,14.667,o),
(506.667,-15,o),
(570,-15,cs),
(623.333,-15,o),
(676.667,9.333,o),
(730,58,c),
(707,82,l),
(641.7,27.894,o),
(597,56.536,o),
(597,111,cs),
(597,704,l),
(597,704,l)
);
},
{
closed = 1;
nodes = (
(248,402,l),
(285.764,477.528,o),
(380.477,477.493,o),
(421.5,401.5,cs),
(441.833,363.833,o),
(452,313.333,o),
(452,250,cs),
(452,123.333,o),
(410.167,42,o),
(333.5,42,cs),
(256.833,42,o),
(220,122,o),
(220,250,cs),
(220,314,o),
(229.333,364.667,o),
(248,402,c)
);
},
{
closed = 1;
nodes = (
(713,586,o),
(698.333,556,o),
(669,522,c),
(691,500,l),
(757.667,560,o),
(796,641,o),
(796,701,cs),
(796,761,o),
(767.5,790,o),
(729.5,790,cs),
(691.5,790,o),
(662,760.5,o),
(662,722.5,cs),
(662,703.5,o),
(670.5,684.167,o),
(687.5,664.5,cs),
(704.5,644.833,o),
(713,627.333,o),
(713,612,cs)
);
}
);
width = 710;
}
);
note = dcaron;
unicode = 271;
},
{
glyphname = dcroat;
kernLeft = KO_a;
kernRight = KO_d;
lastChange = "2025-10-13 06:15:43 +0000";
layers = (
{
layerId = m01;
shapes = (
{
closed = 1;
nodes = (
(330,613,l),
(330,568,l),
(710,568,l),
(710,613,l)
);
},
{
ref = d;
}
);
width = 710;
}
);
note = dcroat;
unicode = 273;
},
{
glyphname = eth;
kernLeft = KO_eth;
kernRight = KO_eth;
lastChange = "2025-10-13 04:32:50 +0000";
layers = (
{
layerId = m01;
shapes = (
{
closed = 1;
nodes = (
(310.667,705,o),
(345.667,685.333,o),
(375,646,c),
(255,585,l),
(274,547,l),
(398,610,l),
(420.667,565.333,o),
(437.333,505.667,o),
(448,431,c),
(438,427,l),
(410,465.667,o),
(367.333,485,o),
(310,485,cs),
(170,485,o),
(70,388,o),
(70,240,cs),
(70,92,o),
(171.167,-15,o),
(330.5,-15,cs),
(489.833,-15,o),
(590,97,o),
(590,293,cs),
(590,447,o),
(556,568,o),
(488,656,c),
(598,712,l),
(579,750,l),
(459,689,l),
(406.333,739.667,o),
(343.667,765,o),
(271,765,cs),
(214.333,765,o),
(160,750.333,o),
(108,721,c),
(133,647,l),
(173.667,685.667,o),
(219.333,705,o),
(270,705,cs)
);
},
{
closed = 1;
nodes = (
(328.5,438,l),
(405.167,438,o),
(447,354.167,o),
(447,233.5,cs),
(447,112.833,o),
(405.167,27,o),
(328.5,27,cs),
(251.833,27,o),
(215,112.833,o),
(215,233.5,cs),
(215,354.167,o),
(251.833,438,o),
(328.5,438,c)
);
}
);
width = 673;
}
);
note = eth;
unicode = 240;
},
{
glyphname = e;
kernLeft = KO_e;
kernRight = KO_e;
lastChange = "2025-10-13 06:11:50 +0000";
layers = (
{
anchors = (
{
name = bottom;
pos = (299,0);
},
{
name = ogonek;
pos = (537,10);
},
{
name = top;
pos = (299,500);
}
);
layerId = m01;
shapes = (
{
closed = 1;
nodes = (
(485,94,l),
(447,63,o),
(402,47,o),
(351,47,cs),
(267,47,o),
(220,129.667,o),
(220,255,cs),
(220,380.333,o),
(278.833,461,o),
(331.5,461,cs),
(384.167,461,o),
(410,427.833,o),
(410,368.5,cs),
(410,309.167,o),
(360.667,239,o),
(274,231,c),
(276,207,l),
(295.333,202.333,o),
(315.333,200,o),
(336,200,cs),
(457.333,200,o),
(538,286,o),
(538,370,cs),
(538,454,o),
(467.333,515,o),
(350,515,cs),
(171.333,515,o),
(65,401,o),
(65,253,cs),
(65,105,o),
(167.333,-15,o),
(326,-15,cs),
(402,-15,o),
(467,16,o),
(513,66,c)
);
}
);
width = 597;
}
);
note = e;
unicode = 101;
userData = {
KernOnName = e;
};
},
{
glyphname = eacute;
kernLeft = KO_e;
kernRight = KO_ae;
lastChange = "2025-10-13 06:11:50 +0000";
layers = (
{
layerId = m01;
shapes = (
{
closed = 1;
nodes = (
(276,207,l),
(295.333,202.333,o),
(315.333,200,o),
(336,200,cs),
(457.333,200,o),
(538,286,o),
(538,370,cs),
(538,454,o),
(467.333,515,o),
(350,515,cs),
(171.333,515,o),
(65,401,o),
(65,253,cs),
(65,105,o),
(167.333,-15,o),
(326,-15,cs),
(419.333,-15,o),
(496.667,32,o),
(542,104,c),
(514,122,l),
(469.333,72,o),
(415,47,o),
(351,47,cs),
(267,47,o),
(220,129.667,o),
(220,255,cs),
(220,380.333,o),
(278.833,461,o),
(331.5,461,cs),
(384.167,461,o),
(410,427.833,o),
(410,368.5,cs),
(410,309.167,o),
(360.667,239,o),
(274,231,c)
);
},
{
closed = 1;
nodes = (
(441.667,662.667,o),
(462,682.333,o),
(462,713,cs),
(462,743.667,o),
(435.5,765,o),
(409.5,765,cs),
(383.5,765,o),
(365.833,753.833,o),
(354.5,742.5,cs),
(348.833,736.833,o),
(340.333,727.667,o),
(329,715,cs),
(210,583,l),
(231,559,l),
(379,632,l),
(379,632,l)
);
}
);
width = 597;
}
);
note = eacute;
unicode = 233;
userData = {
KernOnName = eacute;
};
},
{
glyphname = ebreve;
kernLeft = KO_e;
kernRight = KO_ae;
lastChange = "2025-10-13 04:32:50 +0000";
layers = (
{
layerId = m01;
shapes = (
{
closed = 1;
nodes = (
(276,207,l),
(295.333,202.333,o),
(315.333,200,o),
(336,200,cs),
(457.333,200,o),
(538,286,o),
(538,370,cs),
(538,454,o),
(467.333,515,o),
(350,515,cs),
(171.333,515,o),
(65,401,o),
(65,253,cs),
(65,105,o),
(167.333,-15,o),
(326,-15,cs),
(419.333,-15,o),
(496.667,32,o),
(542,104,c),
(514,122,l),
(469.333,72,o),
(415,47,o),
(351,47,cs),
(267,47,o),
(220,129.667,o),
(220,255,cs),
(220,380.333,o),
(278.833,461,o),
(331.5,461,cs),
(384.167,461,o),
(410,427.833,o),
(410,368.5,cs),
(410,309.167,o),
(360.667,239,o),
(274,231,c)
);
},
{
closed = 1;
nodes = (
(266,688,o),
(238.667,715.333,o),
(206,760,c),
(162,731,l),
(195.333,670.333,o),
(224.333,628.167,o),
(249,604.5,cs),
(273.667,580.833,o),
(300,569,o),
(328,569,cs),
(356,569,o),
(382.333,580.833,o),
(407,604.5,cs),
(431.667,628.167,o),
(460.667,670.333,o),
(494,731,c),
(449,760,l),
(398.332,689.627,o),
(351.212,651.384,o),
(288,678,cs)
);
}
);
width = 597;
}
);
note = ebreve;
unicode = 277;
},
{
glyphname = ecaron;
kernLeft = KO_e;
kernRight = KO_ae;
lastChange = "2025-10-13 04:32:50 +0000";
layers = (
{
layerId = m01;
shapes = (
{
closed = 1;
nodes = (
(276,207,l),
(295.333,202.333,o),
(315.333,200,o),
(336,200,cs),
(457.333,200,o),
(538,286,o),
(538,370,cs),
(538,454,o),
(467.333,515,o),
(350,515,cs),
(171.333,515,o),
(65,401,o),
(65,253,cs),
(65,105,o),
(167.333,-15,o),
(326,-15,cs),
(419.333,-15,o),
(496.667,32,o),
(542,104,c),
(514,122,l),
(469.333,72,o),
(415,47,o),
(351,47,cs),
(267,47,o),
(220,129.667,o),
(220,255,cs),
(220,380.333,o),
(278.833,461,o),
(331.5,461,cs),
(384.167,461,o),
(410,427.833,o),
(410,368.5,cs),
(410,309.167,o),
(360.667,239,o),
(274,231,c)
);
},
{
closed = 1;
nodes = (
(494,741,l),
(473,765,l),
(332,670,l),
(324,670,l),
(183,765,l),
(162,741,l),
(270,597,ls),
(288.667,571.667,o),
(308,559,o),
(328,559,cs),
(348,559,o),
(367.333,571.667,o),
(386,597,cs)
);
}
);
width = 597;
}
);
note = ecaron;
unicode = 283;
},
{
glyphname = ecircumflex;
kernLeft = KO_e;
kernRight = KO_ae;
lastChange = "2025-10-13 04:32:50 +0000";
layers = (
{
layerId = m01;
shapes = (
{
closed = 1;
nodes = (
(276,207,l),
(295.333,202.333,o),
(315.333,200,o),
(336,200,cs),
(457.333,200,o),
(538,286,o),
(538,370,cs),
(538,454,o),
(467.333,515,o),
(350,515,cs),
(171.333,515,o),
(65,401,o),
(65,253,cs),
(65,105,o),
(167.333,-15,o),
(326,-15,cs),
(419.333,-15,o),
(496.667,32,o),
(542,104,c),
(514,122,l),
(469.333,72,o),
(415,47,o),
(351,47,cs),
(267,47,o),
(220,129.667,o),
(220,255,cs),
(220,380.333,o),
(278.833,461,o),
(331.5,461,cs),
(384.167,461,o),
(410,427.833,o),
(410,368.5,cs),
(410,309.167,o),
(360.667,239,o),
(274,231,c)
);
},
{
closed = 1;
nodes = (
(142,583,l),
(163,559,l),
(304,654,l),
(312,654,l),
(453,559,l),
(474,583,l),
(366,727,ls),
(347.333,752.333,o),
(328,765,o),
(308,765,cs),
(288,765,o),
(268.667,752.333,o),
(250,727,cs)
);
}
);
width = 597;
}
);
note = ecircumflex;
unicode = 234;
},
{
glyphname = edieresis;
kernLeft = KO_e;
kernRight = KO_ae;
lastChange = "2025-10-13 04:32:50 +0000";
layers = (
{
layerId = m01;
shapes = (
{
closed = 1;
nodes = (
(276,207,l),
(295.333,202.333,o),
(315.333,200,o),
(336,200,cs),
(457.333,200,o),
(538,286,o),
(538,370,cs),
(538,454,o),
(467.333,515,o),
(350,515,cs),
(171.333,515,o),
(65,401,o),
(65,253,cs),
(65,105,o),
(167.333,-15,o),
(326,-15,cs),
(419.333,-15,o),
(496.667,32,o),
(542,104,c),
(514,122,l),
(469.333,72,o),
(415,47,o),
(351,47,cs),
(267,47,o),
(220,129.667,o),
(220,255,cs),
(220,380.333,o),
(278.833,461,o),
(331.5,461,cs),
(384.167,461,o),
(410,427.833,o),
(410,368.5,cs),
(410,309.167,o),
(360.667,239,o),
(274,231,c)
);
},
{
closed = 1;
nodes = (
(129.5,616,l),
(159.704,586.467,o),
(206.296,586.467,o),
(236.5,616,cs),
(251.5,630.667,o),
(259,648.667,o),
(259,670,cs),
(259,712.667,o),
(224.333,746,o),
(183,746,cs),
(141.667,746,o),
(107,712.667,o),
(107,670,cs),
(107,648.667,o),
(114.5,630.667,o),
(129.5,616,c)
);
},
{
closed = 1;
nodes = (
(359.5,616,l),
(389.704,586.467,o),
(436.296,586.467,o),
(466.5,616,cs),
(481.5,630.667,o),
(489,648.667,o),
(489,670,cs),
(489,712.667,o),
(454.333,746,o),
(413,746,cs),
(371.667,746,o),
(337,712.667,o),
(337,670,cs),
(337,648.667,o),
(344.5,630.667,o),
(359.5,616,c)
);
}
);
width = 597;
}
);
note = edieresis;
unicode = 235;
},
{
glyphname = edotaccent;
kernLeft = KO_e;
kernRight = KO_ae;
lastChange = "2025-10-13 04:32:50 +0000";
layers = (
{
layerId = m01;
shapes = (
{
closed = 1;
nodes = (
(276,207,l),
(295.333,202.333,o),
(315.333,200,o),
(336,200,cs),
(457.333,200,o),
(538,286,o),
(538,370,cs),
(538,454,o),
(467.333,515,o),
(350,515,cs),
(171.333,515,o),
(65,401,o),
(65,253,cs),
(65,105,o),
(167.333,-15,o),
(326,-15,cs),
(419.333,-15,o),
(496.667,32,o),
(542,104,c),
(514,122,l),
(469.333,72,o),
(415,47,o),
(351,47,cs),
(267,47,o),
(220,129.667,o),
(220,255,cs),
(220,380.333,o),
(278.833,461,o),
(331.5,461,cs),
(384.167,461,o),
(410,427.833,o),
(410,368.5,cs),
(410,309.167,o),
(360.667,239,o),
(274,231,c)
);
},
{
closed = 1;
nodes = (
(271.5,613.5,l),
(303.006,581.994,o),
(352.994,581.994,o),
(384.5,613.5,cs),
(400.167,629.167,o),
(408,648,o),
(408,670,cs),
(408,714,o),
(372,750,o),
(328,750,cs),
(284,750,o),
(248,714,o),
(248,670,cs),
(248,648,o),
(255.833,629.167,o),
(271.5,613.5,c)
);
}
);
width = 597;
}
);
note = edotaccent;
unicode = 279;
},
{
glyphname = egrave;
kernLeft = KO_e;
kernRight = KO_ae;
lastChange = "2025-10-13 04:32:50 +0000";
layers = (
{
layerId = m01;
shapes = (
{
closed = 1;
nodes = (
(276,207,l),
(295.333,202.333,o),
(315.333,200,o),
(336,200,cs),
(457.333,200,o),
(538,286,o),
(538,370,cs),
(538,454,o),
(467.333,515,o),
(350,515,cs),
(171.333,515,o),
(65,401,o),
(65,253,cs),
(65,105,o),
(167.333,-15,o),
(326,-15,cs),
(419.333,-15,o),
(496.667,32,o),
(542,104,c),
(514,122,l),
(469.333,72,o),
(415,47,o),
(351,47,cs),
(267,47,o),
(220,129.667,o),
(220,255,cs),
(220,380.333,o),
(278.833,461,o),
(331.5,461,cs),
(384.167,461,o),
(410,427.833,o),
(410,368.5,cs),
(410,309.167,o),
(360.667,239,o),
(274,231,c)
);
},
{
closed = 1;
nodes = (
(302.333,740.333,o),
(295.5,748.667,o),
(277.5,758,cs),
(268.5,762.667,o),
(257.5,765,o),
(244.5,765,cs),
(218.5,765,o),
(192,743.667,o),
(192,713,cs),
(192,682.333,o),
(212.333,662.667,o),
(275,632,cs),
(423,559,l),
(444,583,l),
(325,715,l),
(325,715,l)
);
}
);
width = 597;
}
);
note = egrave;
unicode = 232;
},
{
glyphname = emacron;
kernLeft = KO_e;
kernRight = KO_ae;
lastChange = "2025-10-13 04:32:50 +0000";
layers = (
{
layerId = m01;
shapes = (
{
closed = 1;
nodes = (
(276,207,l),
(295.333,202.333,o),
(315.333,200,o),
(336,200,cs),
(457.333,200,o),
(538,286,o),
(538,370,cs),
(538,454,o),
(467.333,515,o),
(350,515,cs),
(171.333,515,o),
(65,401,o),
(65,253,cs),
(65,105,o),
(167.333,-15,o),
(326,-15,cs),
(419.333,-15,o),
(496.667,32,o),
(542,104,c),
(514,122,l),
(469.333,72,o),
(415,47,o),
(351,47,cs),
(267,47,o),
(220,129.667,o),
(220,255,cs),
(220,380.333,o),
(278.833,461,o),
(331.5,461,cs),
(384.167,461,o),
(410,427.833,o),
(410,368.5,cs),
(410,309.167,o),
(360.667,239,o),
(274,231,c)
);
},
{
closed = 1;
nodes = (
(475,612,l),
(475,700,l),
(181,700,l),
(181,612,l),
(181,612,l)
);
}
);
width = 597;
}
);
note = emacron;
unicode = 275;
},
{
glyphname = eogonek;
kernLeft = KO_e;
kernRight = KO_ae;
lastChange = "2025-10-13 04:32:50 +0000";
layers = (
{
layerId = m01;
shapes = (
{
closed = 1;
nodes = (
(276,207,l),
(295.333,202.333,o),
(315.333,200,o),
(336,200,cs),
(457.333,200,o),
(538,286,o),
(538,370,cs),
(538,454,o),
(467.333,515,o),
(350,515,cs),
(171.333,515,o),
(65,401,o),
(65,253,cs),
(65,105,o),
(167.333,-15,o),
(326,-15,cs),
(341.333,-15,o),
(358,-13.333,o),
(376,-10,c),
(363,-21,ls),
(315,-61,o),
(286,-94.167,o),
(286,-149.5,cs),
(286,-204.833,o),
(332.333,-238,o),
(395,-238,cs),
(445.667,-238,o),
(487,-218.667,o),
(519,-180,c),
(502,-151,l),
(444.298,-204.855,o),
(377,-177.021,o),
(377,-122.5,cs),
(377,-85.833,o),
(388.333,-58.667,o),
(439,-8,cs),
(499,52,ls),
(515.667,68,o),
(530,85.333,o),
(542,104,c),
(514,122,l),
(469.333,72,o),
(415,47,o),
(351,47,cs),
(267,47,o),
(220,129.667,o),
(220,255,cs),
(220,380.333,o),
(278.833,461,o),
(331.5,461,cs),
(384.167,461,o),
(410,427.833,o),
(410,368.5,cs),
(410,309.167,o),
(360.667,239,o),
(274,231,c)
);
}
);
width = 597;
}
);
note = eogonek;
unicode = 281;
},
{
glyphname = f;
kernLeft = KO_f;
kernRight = KO_f;
lastChange = "2025-10-13 06:11:50 +0000";
layers = (
{
layerId = m01;
shapes = (
{
closed = 1;
nodes = (
(121,-132,l),
(271,-132,l),
(271,445,l),
(384,445,l),
(384,486,l),
(271,486,l),
(271,595,ls),
(271,668.333,o),
(299,705,o),
(355,705,cs),
(390.333,705,o),
(422.333,692.667,o),
(451,668,c),
(478,699,l),
(439.333,739,o),
(376.333,765,o),
(311,765,cs),
(177.667,765,o),
(121,692.333,o),
(121,587,cs),
(121,486,l),
(39,486,l),
(39,445,l),
(121,445,l),
(121,445,l)
);
}
);
width = 424;
}
);
note = f;
unicode = 102;
userData = {
KernOnName = f;
};
},
{
glyphname = g;
kernLeft = KO_g;
kernRight = KO_g;
lastChange = "2025-10-13 06:11:50 +0000";
layers = (
{
layerId = m01;
shapes = (
{
closed = 1;
nodes = (
(255.5,426,l),
(283.148,489.388,o),
(348.852,489.388,o),
(376.5,426,cs),
(390.167,394.667,o),
(397,354.333,o),
(397,305,cs),
(397,206.333,o),
(369.333,137,o),
(316,137,cs),
(262.667,137,o),
(235,206.333,o),
(235,305,cs),
(235,354.333,o),
(241.833,394.667,o),
(255.5,426,c)
);
},
{
closed = 1;
nodes = (
(421,500,o),
(372,515,o),
(315,515,cs),
(175,515,o),
(80,423.667,o),
(80,305,cs),
(80,235.667,o),
(107,181.333,o),
(161,142,c),
(111.667,86,o),
(87,35.667,o),
(87,-9,cs),
(87,-91,o),
(136,-132,o),
(234,-132,cs),
(419,-132,l),
(419,-132,l),
(473.464,-132,o),
(502.106,-176.7,o),
(448,-242,c),
(472,-265,l),
(520.667,-211.667,o),
(545,-159.333,o),
(545,-108,cs),
(545,-36,o),
(496,0,o),
(398,0,cs),
(213,0,ls),
(174.333,0,o),
(155,16.667,o),
(155,50,cs),
(155,66.667,o),
(166.667,91.333,o),
(190,124,c),
(225.333,104.667,o),
(267,95,o),
(315,95,cs),
(455,95,o),
(550,186.333,o),
(550,305,cs),
(550,372,o),
(521,427,o),
(464,471,c)
);
},
{
closed = 1;
nodes = (
(490,552,l),
(477,523,o),
(459,499,o),
(436,480,c),
(475,449,l),
(500,471,o),
(518,497,o),
(532,527,c)
);
}
);
width = 620;
}
);
note = g;
unicode = 103;
userData = {
KernOnName = g;
};
},
{
glyphname = gbreve;
kernLeft = KO_g;
kernRight = KO_g;
lastChange = "2025-10-13 04:32:50 +0000";
layers = (
{
layerId = m01;
shapes = (
{
closed = 1;
nodes = (
(473.464,-132,o),
(502.106,-176.7,o),
(448,-242,c),
(472,-265,l),
(520.667,-211.667,o),
(545,-159.333,o),
(545,-108,cs),
(545,-36,o),
(496,0,o),
(398,0,cs),
(213,0,ls),
(174.333,0,o),
(155,16.667,o),
(155,50,cs),
(155,66.667,o),
(166.667,91.333,o),
(190,124,c),
(225.333,104.667,o),
(267,95,o),
(315,95,cs),
(455,95,o),
(550,186.333,o),
(550,305,cs),
(550,364.333,o),
(527.333,414.667,o),
(482,456,c),
(514,486.667,o),
(536,525.333,o),
(548,572,c),
(509,582,l),
(498.333,540,o),
(478.667,506,o),
(450,480,c),
(410.667,503.333,o),
(365.667,515,o),
(315,515,cs),
(175,515,o),
(80,423.667,o),
(80,305,cs),
(80,235.667,o),
(107,181.333,o),
(161,142,c),
(111.667,86,o),
(87,35.667,o),
(87,-9,cs),
(87,-91,o),
(136,-132,o),
(234,-132,cs),
(419,-132,l),
(419,-132,l)
);
},
{
closed = 1;
nodes = (
(255.5,426,l),
(283.148,489.388,o),
(348.852,489.388,o),
(376.5,426,cs),
(390.167,394.667,o),
(397,354.333,o),
(397,305,cs),
(397,206.333,o),
(369.333,137,o),
(316,137,cs),
(262.667,137,o),
(235,206.333,o),
(235,305,cs),
(235,354.333,o),
(241.833,394.667,o),
(255.5,426,c)
);
},
{
closed = 1;
nodes = (
(258,688,o),
(230.667,715.333,o),
(198,760,c),
(154,731,l),
(187.333,670.333,o),
(216.333,628.167,o),
(241,604.5,cs),
(265.667,580.833,o),
(292,569,o),
(320,569,cs),
(348,569,o),
(374.333,580.833,o),
(399,604.5,cs),
(423.667,628.167,o),
(452.667,670.333,o),
(486,731,c),
(441,760,l),
(390.332,689.627,o),
(343.212,651.384,o),
(280,678,cs)
);
}
);
width = 620;
}
);
note = gbreve;
unicode = 287;
},
{
glyphname = gcircumflex;
kernLeft = KO_g;
kernRight = KO_g;
lastChange = "2025-10-13 04:32:50 +0000";
layers = (
{
layerId = m01;
shapes = (
{
closed = 1;
nodes = (
(473.464,-132,o),
(502.106,-176.7,o),
(448,-242,c),
(472,-265,l),
(520.667,-211.667,o),
(545,-159.333,o),
(545,-108,cs),
(545,-36,o),
(496,0,o),
(398,0,cs),
(213,0,ls),
(174.333,0,o),
(155,16.667,o),
(155,50,cs),
(155,66.667,o),
(166.667,91.333,o),
(190,124,c),
(225.333,104.667,o),
(267,95,o),
(315,95,cs),
(455,95,o),
(550,186.333,o),
(550,305,cs),
(550,364.333,o),
(527.333,414.667,o),
(482,456,c),
(514,486.667,o),
(536,525.333,o),
(548,572,c),
(509,582,l),
(498.333,540,o),
(478.667,506,o),
(450,480,c),
(410.667,503.333,o),
(365.667,515,o),
(315,515,cs),
(175,515,o),
(80,423.667,o),
(80,305,cs),
(80,235.667,o),
(107,181.333,o),
(161,142,c),
(111.667,86,o),
(87,35.667,o),
(87,-9,cs),
(87,-91,o),
(136,-132,o),
(234,-132,cs),
(419,-132,l),
(419,-132,l)
);
},
{
closed = 1;
nodes = (
(255.5,426,l),
(283.148,489.388,o),
(348.852,489.388,o),
(376.5,426,cs),
(390.167,394.667,o),
(397,354.333,o),
(397,305,cs),
(397,206.333,o),
(369.333,137,o),
(316,137,cs),
(262.667,137,o),
(235,206.333,o),
(235,305,cs),
(235,354.333,o),
(241.833,394.667,o),
(255.5,426,c)
);
},
{
closed = 1;
nodes = (
(154,583,l),
(175,559,l),
(316,654,l),
(324,654,l),
(465,559,l),
(486,583,l),
(378,727,ls),
(359.333,752.333,o),
(340,765,o),
(320,765,cs),
(300,765,o),
(280.667,752.333,o),
(262,727,cs)
);
}
);
width = 620;
}
);
note = gcircumflex;
unicode = 285;
},
{
glyphname = gcommaaccent;
kernLeft = KO_g;
kernRight = KO_g;
lastChange = "2025-10-13 04:32:50 +0000";
layers = (
{
layerId = m01;
shapes = (
{
closed = 1;
nodes = (
(473.464,-132,o),
(502.106,-176.7,o),
(448,-242,c),
(472,-265,l),
(520.667,-211.667,o),
(545,-159.333,o),
(545,-108,cs),
(545,-36,o),
(496,0,o),
(398,0,cs),
(213,0,ls),
(174.333,0,o),
(155,16.667,o),
(155,50,cs),
(155,66.667,o),
(166.667,91.333,o),
(190,124,c),
(225.333,104.667,o),
(267,95,o),
(315,95,cs),
(455,95,o),
(550,186.333,o),
(550,305,cs),
(550,364.333,o),
(527.333,414.667,o),
(482,456,c),
(514,486.667,o),
(536,525.333,o),
(548,572,c),
(509,582,l),
(498.333,540,o),
(478.667,506,o),
(450,480,c),
(410.667,503.333,o),
(365.667,515,o),
(315,515,cs),
(175,515,o),
(80,423.667,o),
(80,305,cs),
(80,235.667,o),
(107,181.333,o),
(161,142,c),
(111.667,86,o),
(87,35.667,o),
(87,-9,cs),
(87,-91,o),
(136,-132,o),
(234,-132,cs),
(419,-132,l),
(419,-132,l)
);
},
{
closed = 1;
nodes = (
(255.5,426,l),
(283.148,489.388,o),
(348.852,489.388,o),
(376.5,426,cs),
(390.167,394.667,o),
(397,354.333,o),
(397,305,cs),
(397,206.333,o),
(369.333,137,o),
(316,137,cs),
(262.667,137,o),
(235,206.333,o),
(235,305,cs),
(235,354.333,o),
(241.833,394.667,o),
(255.5,426,c)
);
},
{
closed = 1;
nodes = (
(326,786,o),
(340.667,816,o),
(370,850,c),
(348,872,l),
(281.333,812,o),
(243,731,o),
(243,671,cs),
(243,611,o),
(271.5,582,o),
(309.5,582,cs),
(347.5,582,o),
(377,611.5,o),
(377,649.5,cs),
(377,668.5,o),
(368.5,687.833,o),
(351.5,707.5,cs),
(334.5,727.167,o),
(326,744.667,o),
(326,760,cs)
);
}
);
width = 620;
}
);
note = uni0123;
unicode = 291;
},
{
glyphname = gdotaccent;
kernLeft = KO_g;
kernRight = KO_g;
lastChange = "2025-10-13 04:32:50 +0000";
layers = (
{
layerId = m01;
shapes = (
{
closed = 1;
nodes = (
(473.464,-132,o),
(502.106,-176.7,o),
(448,-242,c),
(472,-265,l),
(520.667,-211.667,o),
(545,-159.333,o),
(545,-108,cs),
(545,-36,o),
(496,0,o),
(398,0,cs),
(213,0,ls),
(174.333,0,o),
(155,16.667,o),
(155,50,cs),
(155,66.667,o),
(166.667,91.333,o),
(190,124,c),
(225.333,104.667,o),
(267,95,o),
(315,95,cs),
(455,95,o),
(550,186.333,o),
(550,305,cs),
(550,364.333,o),
(527.333,414.667,o),
(482,456,c),
(514,486.667,o),
(536,525.333,o),
(548,572,c),
(509,582,l),
(498.333,540,o),
(478.667,506,o),
(450,480,c),
(410.667,503.333,o),
(365.667,515,o),
(315,515,cs),
(175,515,o),
(80,423.667,o),
(80,305,cs),
(80,235.667,o),
(107,181.333,o),
(161,142,c),
(111.667,86,o),
(87,35.667,o),
(87,-9,cs),
(87,-91,o),
(136,-132,o),
(234,-132,cs),
(419,-132,l),
(419,-132,l)
);
},
{
closed = 1;
nodes = (
(255.5,426,l),
(283.148,489.388,o),
(348.852,489.388,o),
(376.5,426,cs),
(390.167,394.667,o),
(397,354.333,o),
(397,305,cs),
(397,206.333,o),
(369.333,137,o),
(316,137,cs),
(262.667,137,o),
(235,206.333,o),
(235,305,cs),
(235,354.333,o),
(241.833,394.667,o),
(255.5,426,c)
);
},
{
closed = 1;
nodes = (
(263.5,613.5,l),
(295.006,581.994,o),
(344.994,581.994,o),
(376.5,613.5,cs),
(392.167,629.167,o),
(400,648,o),
(400,670,cs),
(400,714,o),
(364,750,o),
(320,750,cs),
(276,750,o),
(240,714,o),
(240,670,cs),
(240,648,o),
(247.833,629.167,o),
(263.5,613.5,c)
);
}
);
width = 620;
}
);
note = gdotaccent;
unicode = 289;
},
{
glyphname = h;
kernLeft = KO_k;
kernRight = KO_h;
lastChange = "2025-10-13 04:49:04 +0000";
layers = (
{
layerId = m01;
shapes = (
{
closed = 1;
nodes = (
(669,64,l),
(619,38,o),
(581,60,o),
(581,111,cs),
(581,368,ls),
(581,458.667,o),
(522.833,515,o),
(439.5,515,cs),
(356.167,515,o),
(307.667,497.667,o),
(261,447,c),
(261,704,l),
(261,704,l),
(261,769,o),
(139,785,o),
(48,735,c),
(66,700,l),
(79,707,o),
(94,713,o),
(111,717,c),
(111,0,l),
(261,0,l),
(261,353,ls),
(261,413,o),
(313.667,454,o),
(359,454,cs),
(404.333,454,o),
(431,430.333,o),
(431,389,cs),
(431,132,ls),
(431,34,o),
(472,-15,o),
(554,-15,cs),
(598,-15,o),
(643,2,o),
(687,36,c)
);
}
);
width = 694;
}
);
note = h;
unicode = 104;
},
{
glyphname = hbar;
kernLeft = KO_thorn;
lastChange = "2025-10-13 04:32:50 +0000";
layers = (
{
layerId = m01;
shapes = (
{
closed = 1;
nodes = (
(111,0,l),
(261,0,l),
(261,353,ls),
(261,413,o),
(313.667,454,o),
(359,454,cs),
(404.333,454,o),
(431,430.333,o),
(431,389,cs),
(431,132,ls),
(431,34,o),
(472,-15,o),
(554,-15,cs),
(607.333,-15,o),
(660.667,9.333,o),
(714,58,c),
(696,82,l),
(634.135,30.741,o),
(581,50.953,o),
(581,111,cs),
(581,368,ls),
(581,458.667,o),
(522.833,515,o),
(439.5,515,cs),
(356.167,515,o),
(307.667,497.667,o),
(261,447,c),
(261,568,l),
(381,568,l),
(381,613,l),
(261,613,l),
(261,704,ls),
(261,781.188,o),
(87.485,789.502,o),
(0,699,c),
(27,668,l),
(46.333,691.333,o),
(74.333,707.667,o),
(111,717,c),
(111,613,l),
(1,613,l),
(1,568,l),
(111,568,l),
(111,568,l)
);
}
);
width = 694;
}
);
note = hbar;
unicode = 295;
},
{
glyphname = hcircumflex;
kernLeft = KO_thorn;
lastChange = "2025-10-13 04:32:50 +0000";
layers = (
{
layerId = m01;
shapes = (
{
closed = 1;
nodes = (
(261,781.188,o),
(87.485,789.502,o),
(0,699,c),
(27,668,l),
(46.333,691.333,o),
(74.333,707.667,o),
(111,717,c),
(111,0,l),
(261,0,l),
(261,353,ls),
(261,413,o),
(313.667,454,o),
(359,454,cs),
(404.333,454,o),
(431,430.333,o),
(431,389,cs),
(431,132,ls),
(431,34,o),
(472,-15,o),
(554,-15,cs),
(607.333,-15,o),
(660.667,9.333,o),
(714,58,c),
(696,82,l),
(634.135,30.741,o),
(581,50.953,o),
(581,111,cs),
(581,368,ls),
(581,458.667,o),
(522.833,515,o),
(439.5,515,cs),
(356.167,515,o),
(307.667,497.667,o),
(261,447,c),
(261,704,l),
(261,704,l)
);
},
{
closed = 1;
nodes = (
(19,813,l),
(40,789,l),
(181,884,l),
(189,884,l),
(330,789,l),
(351,813,l),
(243,957,ls),
(224.333,982.333,o),
(205,995,o),
(185,995,cs),
(165,995,o),
(145.667,982.333,o),
(127,957,cs)
);
}
);
width = 694;
}
);
note = hcircumflex;
unicode = 293;
},
{
glyphname = i;
kernLeft = KO_i;
kernRight = KO_i;
lastChange = "2025-10-13 04:49:14 +0000";
layers = (
{
layerId = m01;
shapes = (
{
closed = 1;
nodes = (
(154.5,613.5,l),
(186.006,581.994,o),
(235.994,581.994,o),
(267.5,613.5,cs),
(283.167,629.167,o),
(291,648,o),
(291,670,cs),
(291,714,o),
(255,750,o),
(211,750,cs),
(167,750,o),
(131,714,o),
(131,670,cs),
(131,648,o),
(138.833,629.167,o),
(154.5,613.5,c)
);
},
{
closed = 1;
nodes = (
(375,65,l),
(325,37,o),
(286,59,o),
(286,111,cs),
(286,454,ls),
(286,519,o),
(164,535,o),
(73,485,c),
(91,450,l),
(104,457,o),
(119,463,o),
(136,467,c),
(136,132,ls),
(136,34,o),
(177,-15,o),
(259,-15,cs),
(304,-15,o),
(349,2,o),
(394,37,c)
);
}
);
width = 399;
}
);
note = i;
unicode = 105;
},
{
glyphname = idotless;
kernLeft = KO_i;
kernRight = KO_i;
lastChange = "2025-10-13 06:05:09 +0000";
layers = (
{
anchors = (
{
name = bottom;
pos = (255,0);
},
{
name = ogonek;
pos = (419,0);
},
{
name = top;
pos = (200,500);
}
);
layerId = m01;
shapes = (
{
closed = 1;
nodes = (
(375,65,l),
(325,37,o),
(286,59,o),
(286,111,cs),
(286,454,ls),
(286,519,o),
(164,535,o),
(73,485,c),
(91,450,l),
(104,457,o),
(119,463,o),
(136,467,c),
(136,132,ls),
(136,34,o),
(177,-15,o),
(259,-15,cs),
(304,-15,o),
(349,2,o),
(394,37,c)
);
}
);
width = 399;
}
);
note = dotlessi;
unicode = 305;
},
{
glyphname = ibreve;
kernLeft = KO_imacron;
kernRight = KO_d;
lastChange = "2025-10-13 04:32:50 +0000";
layers = (
{
layerId = m01;
shapes = (
{
closed = 1;
nodes = (
(126.667,515,o),
(63.667,489,o),
(25,449,c),
(52,418,l),
(71.333,441.333,o),
(99.333,457.667,o),
(136,467,c),
(136,132,ls),
(136,34,o),
(177,-15,o),
(259,-15,cs),
(312.333,-15,o),
(365.667,9.333,o),
(419,58,c),
(401,82,l),
(339.135,30.741,o),
(286,50.953,o),
(286,111,cs),
(286,434,ls),
(286,488,o),
(254.667,515,o),
(192,515,cs)
);
},
{
closed = 1;
nodes = (
(137,688,o),
(109.667,715.333,o),
(77,760,c),
(33,731,l),
(66.333,670.333,o),
(95.333,628.167,o),
(120,604.5,cs),
(144.667,580.833,o),
(171,569,o),
(199,569,cs),
(227,569,o),
(253.333,580.833,o),
(278,604.5,cs),
(302.667,628.167,o),
(331.667,670.333,o),
(365,731,c),
(320,760,l),
(269.332,689.627,o),
(222.212,651.384,o),
(159,678,cs)
);
}
);
width = 399;
}
);
note = ibreve;
unicode = 301;
},
{
glyphname = icircumflex;
kernLeft = KO_imacron;
kernRight = KO_d;
lastChange = "2025-10-13 04:32:50 +0000";
layers = (
{
layerId = m01;
shapes = (
{
closed = 1;
nodes = (
(126.667,515,o),
(63.667,489,o),
(25,449,c),
(52,418,l),
(71.333,441.333,o),
(99.333,457.667,o),
(136,467,c),
(136,132,ls),
(136,34,o),
(177,-15,o),
(259,-15,cs),
(312.333,-15,o),
(365.667,9.333,o),
(419,58,c),
(401,82,l),
(339.135,30.741,o),
(286,50.953,o),
(286,111,cs),
(286,434,ls),
(286,488,o),
(254.667,515,o),
(192,515,cs)
);
},
{
closed = 1;
nodes = (
(33,583,l),
(54,559,l),
(195,654,l),
(203,654,l),
(344,559,l),
(365,583,l),
(257,727,ls),
(238.333,752.333,o),
(219,765,o),
(199,765,cs),
(179,765,o),
(159.667,752.333,o),
(141,727,cs)
);
}
);
width = 399;
}
);
note = icircumflex;
unicode = 238;
},
{
glyphname = idieresis;
kernLeft = KO_imacron;
kernRight = KO_d;
lastChange = "2025-10-13 04:32:50 +0000";
layers = (
{
layerId = m01;
shapes = (
{
closed = 1;
nodes = (
(126.667,515,o),
(63.667,489,o),
(25,449,c),
(52,418,l),
(71.333,441.333,o),
(99.333,457.667,o),
(136,467,c),
(136,132,ls),
(136,34,o),
(177,-15,o),
(259,-15,cs),
(312.333,-15,o),
(365.667,9.333,o),
(419,58,c),
(401,82,l),
(339.135,30.741,o),
(286,50.953,o),
(286,111,cs),
(286,434,ls),
(286,488,o),
(254.667,515,o),
(192,515,cs)
);
},
{
closed = 1;
nodes = (
(31.5,616,l),
(61.704,586.467,o),
(108.296,586.467,o),
(138.5,616,cs),
(153.5,630.667,o),
(161,648.667,o),
(161,670,cs),
(161,712.667,o),
(126.333,746,o),
(85,746,cs),
(43.667,746,o),
(9,712.667,o),
(9,670,cs),
(9,648.667,o),
(16.5,630.667,o),
(31.5,616,c)
);
},
{
closed = 1;
nodes = (
(261.5,616,l),
(291.704,586.467,o),
(338.296,586.467,o),
(368.5,616,cs),
(383.5,630.667,o),
(391,648.667,o),
(391,670,cs),
(391,712.667,o),
(356.333,746,o),
(315,746,cs),
(273.667,746,o),
(239,712.667,o),
(239,670,cs),
(239,648.667,o),
(246.5,630.667,o),
(261.5,616,c)
);
}
);
width = 399;
}
);
note = idieresis;
unicode = 239;
},
{
glyphname = imacron;
kernLeft = KO_imacron;
kernRight = KO_imacron;
lastChange = "2025-10-13 04:32:50 +0000";
layers = (
{
layerId = m01;
shapes = (
{
closed = 1;
nodes = (
(126.667,515,o),
(63.667,489,o),
(25,449,c),
(52,418,l),
(71.333,441.333,o),
(99.333,457.667,o),
(136,467,c),
(136,132,ls),
(136,34,o),
(177,-15,o),
(259,-15,cs),
(312.333,-15,o),
(365.667,9.333,o),
(419,58,c),
(401,82,l),
(339.135,30.741,o),
(286,50.953,o),
(286,111,cs),
(286,434,ls),
(286,488,o),
(254.667,515,o),
(192,515,cs)
);
},
{
closed = 1;
nodes = (
(319,612,l),
(319,700,l),
(25,700,l),
(25,612,l),
(25,612,l)
);
}
);
width = 246;
}
);
note = imacron;
unicode = 299;
},
{
glyphname = iogonek;
kernLeft = KO_imacron;
kernRight = KO_d;
lastChange = "2025-10-13 04:32:50 +0000";
layers = (
{
layerId = m01;
shapes = (
{
closed = 1;
nodes = (
(126.667,515,o),
(63.667,489,o),
(25,449,c),
(52,418,l),
(71.333,441.333,o),
(99.333,457.667,o),
(136,467,c),
(136,132,ls),
(136,34,o),
(177,-15,o),
(259,-15,cs),
(265,-15,o),
(274,-14.333,o),
(286,-13,c),
(277,-21,ls),
(229,-61,o),
(200,-94.167,o),
(200,-149.5,cs),
(200,-204.833,o),
(246.333,-238,o),
(309,-238,cs),
(359.667,-238,o),
(401,-218.667,o),
(433,-180,c),
(416,-151,l),
(358.298,-204.855,o),
(291,-177.021,o),
(291,-122.5,cs),
(291,-85.833,o),
(302.333,-58.667,o),
(353,-8,cs),
(419,58,l),
(401,82,l),
(339.135,30.741,o),
(286,50.953,o),
(286,111,cs),
(286,434,ls),
(286,488,o),
(254.667,515,o),
(192,515,cs)
);
},
{
closed = 1;
nodes = (
(154.5,613.5,l),
(186.006,581.994,o),
(235.994,581.994,o),
(267.5,613.5,cs),
(283.167,629.167,o),
(291,648,o),
(291,670,cs),
(291,714,o),
(255,750,o),
(211,750,cs),
(167,750,o),
(131,714,o),
(131,670,cs),
(131,648,o),
(138.833,629.167,o),
(154.5,613.5,c)
);
}
);
width = 399;
}
);
note = iogonek;
unicode = 303;
},
{
glyphname = ij;
kernLeft = KO_imacron;
kernRight = KO_j;
lastChange = "2025-10-13 04:32:50 +0000";
layers = (
{
layerId = m01;
shapes = (
{
closed = 1;
nodes = (
(154.5,613.5,l),
(186.006,581.994,o),
(235.994,581.994,o),
(267.5,613.5,cs),
(283.167,629.167,o),
(291,648,o),
(291,670,cs),
(291,714,o),
(255,750,o),
(211,750,cs),
(167,750,o),
(131,714,o),
(131,670,cs),
(131,648,o),
(138.833,629.167,o),
(154.5,613.5,c)
);
},
{
closed = 1;
nodes = (
(126.667,515,o),
(63.667,489,o),
(25,449,c),
(52,418,l),
(71.333,441.333,o),
(99.333,457.667,o),
(136,467,c),
(136,132,ls),
(136,34,o),
(177,-15,o),
(259,-15,cs),
(312.333,-15,o),
(365.667,9.333,o),
(419,58,c),
(401,82,l),
(339.135,30.741,o),
(286,50.953,o),
(286,111,cs),
(286,434,ls),
(286,488,o),
(254.667,515,o),
(192,515,cs)
);
},
{
closed = 1;
nodes = (
(689,531.188,o),
(515.485,539.502,o),
(428,449,c),
(455,418,l),
(474.333,441.333,o),
(502.333,457.667,o),
(539,467,c),
(539,-95,ls),
(539,-168.333,o),
(511,-205,o),
(455,-205,cs),
(416.333,-205,o),
(382.667,-192.667,o),
(354,-168,c),
(332,-199,l),
(370.667,-239,o),
(433.667,-265,o),
(499,-265,cs),
(632.333,-265,o),
(689,-192.333,o),
(689,-87,cs),
(689,454,l),
(689,454,l)
);
},
{
closed = 1;
nodes = (
(557.5,613.5,l),
(589.006,581.994,o),
(638.994,581.994,o),
(670.5,613.5,cs),
(686.167,629.167,o),
(694,648,o),
(694,670,cs),
(694,714,o),
(658,750,o),
(614,750,cs),
(570,750,o),
(534,714,o),
(534,670,cs),
(534,648,o),
(541.833,629.167,o),
(557.5,613.5,c)
);
}
);
width = 782;
}
);
note = ij;
unicode = 307;
},
{
glyphname = j;
kernLeft = KO_j;
kernRight = KO_j;
lastChange = "2025-10-13 04:42:25 +0000";
layers = (
{
background = {
shapes = (
{
ref = i;
}
);
};
layerId = m01;
shapes = (
{
closed = 1;
nodes = (
(158.5,613.5,l),
(190.006,581.994,o),
(239.994,581.994,o),
(271.5,613.5,cs),
(287.167,629.167,o),
(295,648,o),
(295,670,cs),
(295,714,o),
(259,750,o),
(215,750,cs),
(171,750,o),
(135,714,o),
(135,670,cs),
(135,648,o),
(142.833,629.167,o),
(158.5,613.5,c)
);
},
{
closed = 1;
nodes = (
(290,519,o),
(168,535,o),
(77,485,c),
(95,450,l),
(108,457,o),
(123,463,o),
(140,467,c),
(140,-95,ls),
(140,-168.333,o),
(112,-205,o),
(56,-205,cs),
(17.333,-205,o),
(-16.333,-192.667,o),
(-45,-168,c),
(-67,-199,l),
(-28.333,-239,o),
(34.667,-265,o),
(100,-265,cs),
(233.333,-265,o),
(290,-192.333,o),
(290,-87,cs),
(290,454,ls)
);
}
);
width = 383;
}
);
note = j;
unicode = 106;
},
{
glyphname = jcircumflex;
kernRight = KO_j;
lastChange = "2025-10-13 04:32:50 +0000";
layers = (
{
layerId = m01;
shapes = (
{
closed = 1;
nodes = (
(26,583,l),
(47,559,l),
(188,654,l),
(196,654,l),
(337,559,l),
(358,583,l),
(250,727,ls),
(231.333,752.333,o),
(212,765,o),
(192,765,cs),
(172,765,o),
(152.667,752.333,o),
(134,727,cs)
);
},
{
closed = 1;
nodes = (
(290,531.188,o),
(116.485,539.502,o),
(29,449,c),
(56,418,l),
(75.333,441.333,o),
(103.333,457.667,o),
(140,467,c),
(140,-95,ls),
(140,-168.333,o),
(112,-205,o),
(56,-205,cs),
(17.333,-205,o),
(-16.333,-192.667,o),
(-45,-168,c),
(-67,-199,l),
(-28.333,-239,o),
(34.667,-265,o),
(100,-265,cs),
(233.333,-265,o),
(290,-192.333,o),
(290,-87,cs),
(290,454,l),
(290,454,l)
);
}
);
width = 383;
}
);
note = jcircumflex;
unicode = 309;
},
{
glyphname = k;
kernLeft = KO_k;
kernRight = KO_k;
lastChange = "2025-10-13 04:47:56 +0000";
layers = (
{
layerId = m01;
shapes = (
{
closed = 1;
nodes = (
(614,65,l),
(600,57,o),
(585,53,o),
(571,53,cs),
(547,53,o),
(536.333,63.333,o),
(523,98,cs),
(463,254,l),
(529.667,286,o),
(571,337.833,o),
(571,402.5,cs),
(571,467.167,o),
(512.333,515,o),
(427,515,cs),
(352.333,515,o),
(297,491.667,o),
(261,445,c),
(261,704,ls),
(261,769,o),
(139,785,o),
(48,735,c),
(66,700,l),
(79,707,o),
(94,713,o),
(111,717,c),
(111,0,l),
(261,0,l),
(261,310,ls),
(261,399.333,o),
(300,454,o),
(364,454,cs),
(402.667,454,o),
(431,432.667,o),
(431,382,cs),
(431,331.333,o),
(376.333,266.333,o),
(303,249,c),
(378,57,ls),
(396.667,9,o),
(434.5,-15,o),
(491.5,-15,cs),
(539,-15,o),
(586,2,o),
(631,37,c)
);
}
);
width = 647;
}
);
note = k;
unicode = 107;
},
{
glyphname = kcommaaccent;
kernLeft = KO_thorn;
lastChange = "2025-10-13 04:32:50 +0000";
layers = (
{
layerId = m01;
shapes = (
{
closed = 1;
nodes = (
(261,781.188,o),
(87.485,789.502,o),
(0,699,c),
(27,668,l),
(46.333,691.333,o),
(74.333,707.667,o),
(111,717,c),
(111,0,l),
(261,0,l),
(261,310,ls),
(261,399.333,o),
(300,454,o),
(364,454,cs),
(402.667,454,o),
(431,432.667,o),
(431,382,cs),
(431,331.333,o),
(376.333,266.333,o),
(303,249,c),
(378,57,ls),
(396.667,9,o),
(434.5,-15,o),
(491.5,-15,cs),
(548.5,-15,o),
(603.667,9.333,o),
(657,58,c),
(639,82,l),
(615.667,62.667,o),
(593,53,o),
(571,53,cs),
(547,53,o),
(536.333,63.333,o),
(523,98,cs),
(463,254,l),
(529.667,286,o),
(571,337.833,o),
(571,402.5,cs),
(571,467.167,o),
(512.333,515,o),
(427,515,cs),
(352.333,515,o),
(297,491.667,o),
(261,445,c),
(261,704,l),
(261,704,l)
);
},
{
closed = 1;
nodes = (
(326,-258,o),
(311.333,-288,o),
(282,-322,c),
(304,-344,l),
(370.667,-284,o),
(409,-203,o),
(409,-143,cs),
(409,-83,o),
(380.5,-54,o),
(342.5,-54,cs),
(304.5,-54,o),
(275,-83.5,o),
(275,-121.5,cs),
(275,-140.5,o),
(283.5,-159.833,o),
(300.5,-179.5,cs),
(317.5,-199.167,o),
(326,-216.667,o),
(326,-232,cs)
);
}
);
width = 647;
}
);
note = uni0137;
unicode = 311;
},
{
glyphname = kgreenlandic;
kernLeft = KO_eng;
lastChange = "2025-10-13 04:32:50 +0000";
layers = (
{
layerId = m01;
shapes = (
{
closed = 1;
nodes = (
(90,500,o),
(58.667,494,o),
(30,482,c),
(44,445,l),
(67.333,455,o),
(94,460,o),
(124,460,c),
(124,0,l),
(274,0,l),
(274,205,ls),
(275.333,281.667,o),
(286,342.333,o),
(306,387,cs),
(326,431.667,o),
(353,454,o),
(387,454,cs),
(420.333,454,o),
(444,433.833,o),
(444,382.5,cs),
(444,331.167,o),
(389.333,266.333,o),
(316,249,c),
(391,57,ls),
(409.667,9,o),
(447.5,-15,o),
(504.5,-15,cs),
(561.5,-15,o),
(616.667,9.333,o),
(670,58,c),
(652,82,l),
(628.667,62.667,o),
(606,53,o),
(584,53,cs),
(560,53,o),
(549.333,63.333,o),
(536,98,cs),
(476,254,l),
(542.667,286,o),
(584,337.833,o),
(584,402.5,cs),
(584,467.167,o),
(525.333,515,o),
(440,515,cs),
(364.667,515,o),
(309,478.667,o),
(273,406,c),
(263.667,468.667,o),
(214,500,o),
(124,500,cs)
);
}
);
width = 660;
}
);
note = kgreenlandic;
unicode = 312;
},
{
glyphname = l;
kernLeft = KO_l;
kernRight = KO_l;
lastChange = "2025-10-13 04:48:05 +0000";
layers = (
{
layerId = m01;
shapes = (
{
closed = 1;
nodes = (
(348,63,l),
(299,38,o),
(261,60,o),
(261,111,cs),
(261,704,ls),
(261,769,o),
(139,785,o),
(48,735,c),
(66,700,l),
(79,707,o),
(94,713,o),
(111,717,c),
(111,132,ls),
(111,34,o),
(152,-15,o),
(234,-15,cs),
(278,-15,o),
(322,1,o),
(366,34,c)
);
}
);
width = 374;
}
);
note = l;
unicode = 108;
},
{
glyphname = lacute;
kernLeft = KO_ldot;
kernRight = KO_d;
lastChange = "2025-10-13 04:32:50 +0000";
layers = (
{
layerId = m01;
shapes = (
{
closed = 1;
nodes = (
(27,668,l),
(46.333,691.333,o),
(74.333,707.667,o),
(111,717,c),
(111,132,ls),
(111,34,o),
(152,-15,o),
(234,-15,cs),
(287.333,-15,o),
(340.667,9.333,o),
(394,58,c),
(376,82,l),
(314.135,30.741,o),
(261,50.953,o),
(261,111,cs),
(261,704,ls),
(261,781.188,o),
(87.485,789.502,o),
(0,699,c)
);
},
{
closed = 1;
nodes = (
(292.667,892.667,o),
(313,912.333,o),
(313,943,cs),
(313,973.667,o),
(286.5,995,o),
(260.5,995,cs),
(234.5,995,o),
(216.833,983.833,o),
(205.5,972.5,cs),
(199.833,966.833,o),
(191.333,957.667,o),
(180,945,cs),
(61,813,l),
(82,789,l),
(230,862,l),
(230,862,l)
);
}
);
width = 374;
}
);
note = lacute;
unicode = 314;
},
{
glyphname = lcaron;
kernLeft = KO_ldot;
lastChange = "2025-10-13 04:32:50 +0000";
layers = (
{
layerId = m01;
shapes = (
{
closed = 1;
nodes = (
(27,668,l),
(46.333,691.333,o),
(74.333,707.667,o),
(111,717,c),
(111,132,ls),
(111,34,o),
(152,-15,o),
(234,-15,cs),
(287.333,-15,o),
(340.667,9.333,o),
(394,58,c),
(376,82,l),
(314.135,30.741,o),
(261,50.953,o),
(261,111,cs),
(261,704,ls),
(261,781.188,o),
(87.485,789.502,o),
(0,699,c)
);
},
{
closed = 1;
nodes = (
(378,586,o),
(363.333,556,o),
(334,522,c),
(356,500,l),
(422.667,560,o),
(461,641,o),
(461,701,cs),
(461,761,o),
(432.5,790,o),
(394.5,790,cs),
(356.5,790,o),
(327,760.5,o),
(327,722.5,cs),
(327,703.5,o),
(335.5,684.167,o),
(352.5,664.5,cs),
(369.5,644.833,o),
(378,627.333,o),
(378,612,cs)
);
}
);
width = 406;
}
);
note = lcaron;
unicode = 318;
},
{
glyphname = lcommaaccent;
kernLeft = KO_ldot;
kernRight = KO_d;
lastChange = "2025-10-13 04:32:50 +0000";
layers = (
{
layerId = m01;
shapes = (
{
closed = 1;
nodes = (
(27,668,l),
(46.333,691.333,o),
(74.333,707.667,o),
(111,717,c),
(111,132,ls),
(111,34,o),
(152,-15,o),
(234,-15,cs),
(287.333,-15,o),
(340.667,9.333,o),
(394,58,c),
(376,82,l),
(314.135,30.741,o),
(261,50.953,o),
(261,111,cs),
(261,704,ls),
(261,781.188,o),
(87.485,789.502,o),
(0,699,c)
);
},
{
closed = 1;
nodes = (
(169,-258,o),
(154.333,-288,o),
(125,-322,c),
(147,-344,l),
(213.667,-284,o),
(252,-203,o),
(252,-143,cs),
(252,-83,o),
(223.5,-54,o),
(185.5,-54,cs),
(147.5,-54,o),
(118,-83.5,o),
(118,-121.5,cs),
(118,-140.5,o),
(126.5,-159.833,o),
(143.5,-179.5,cs),
(160.5,-199.167,o),
(169,-216.667,o),
(169,-232,cs)
);
}
);
width = 374;
}
);
note = uni013C;
unicode = 316;
},
{
glyphname = ldot;
kernLeft = KO_ldot;
lastChange = "2025-10-13 06:11:45 +0000";
layers = (
{
layerId = m01;
shapes = (
{
closed = 1;
nodes = (
(27,668,l),
(46.333,691.333,o),
(74.333,707.667,o),
(111,717,c),
(111,132,ls),
(111,34,o),
(152,-15,o),
(234,-15,cs),
(287.333,-15,o),
(340.667,9.333,o),
(394,58,c),
(376,82,l),
(314.135,30.741,o),
(261,50.953,o),
(261,111,cs),
(261,704,ls),
(261,781.188,o),
(87.485,789.502,o),
(0,699,c)
);
},
{
closed = 1;
nodes = (
(337.5,357.5,l),
(367.702,327.298,o),
(416.298,327.298,o),
(446.5,357.5,cs),
(461.5,372.5,o),
(469,390.667,o),
(469,412,cs),
(469,454.667,o),
(434.667,489,o),
(392,489,cs),
(349.333,489,o),
(315,454.667,o),
(315,412,cs),
(315,390.667,o),
(322.5,372.5,o),
(337.5,357.5,c)
);
}
);
width = 475;
}
);
note = ldot;
unicode = 320;
userData = {
KernOnSpecialSpacing = {
R = NoKerning;
};
};
},
{
glyphname = lslash;
lastChange = "2025-10-13 04:32:50 +0000";
layers = (
{
layerId = m01;
shapes = (
{
closed = 1;
nodes = (
(27,668,l),
(46.333,691.333,o),
(74.333,707.667,o),
(111,717,c),
(111,380,l),
(15,331,l),
(34,293,l),
(111,332,l),
(111,132,ls),
(111,34,o),
(152,-15,o),
(234,-15,cs),
(287.333,-15,o),
(340.667,9.333,o),
(394,58,c),
(376,82,l),
(314.135,30.741,o),
(261,50.953,o),
(261,111,cs),
(261,408,l),
(358,458,l),
(339,496,l),
(261,456,l),
(261,704,ls),
(261,781.188,o),
(87.485,789.502,o),
(0,699,c)
);
}
);
width = 374;
}
);
note = lslash;
unicode = 322;
},
{
glyphname = m;
kernLeft = KO_n;
kernRight = KO_n;
lastChange = "2025-10-13 04:47:29 +0000";
layers = (
{
layerId = m01;
shapes = (
{
closed = 1;
nodes = (
(978,62,l),
(930,39,o),
(894,61,o),
(894,111,cs),
(894,368,ls),
(894,458.667,o),
(836.167,515,o),
(751.5,515,cs),
(666.833,515,o),
(622,494.333,o),
(570,437,c),
(547.333,489,o),
(502,515,o),
(434,515,cs),
(366,515,o),
(320,498,o),
(272,450,c),
(272,515,o),
(152,528,o),
(61,478,c),
(79,443,l),
(92,450,o),
(107,456,o),
(124,460,c),
(124,0,l),
(274,0,l),
(274,357,ls),
(274,414.333,o),
(324.5,454,o),
(366.5,454,cs),
(408.5,454,o),
(434,430.333,o),
(434,389,cs),
(434,0,l),
(584,0,l),
(584,357,ls),
(584,414.333,o),
(634.5,454,o),
(676.5,454,cs),
(718.5,454,o),
(744,430.333,o),
(744,389,cs),
(744,132,ls),
(744,34,o),
(785,-15,o),
(867,-15,cs),
(909,-15,o),
(951,0,o),
(993,30,c)
);
}
);
width = 1007;
}
);
note = m;
unicode = 109;
},
{
glyphname = n;
kernLeft = KO_n;
kernRight = KO_n;
lastChange = "2025-10-13 04:47:12 +0000";
layers = (
{
layerId = m01;
shapes = (
{
closed = 1;
nodes = (
(678,61,l),
(630,39,o),
(594,61,o),
(594,111,cs),
(594,368,ls),
(594,458.667,o),
(535.833,515,o),
(452.5,515,cs),
(369.167,515,o),
(322.667,498,o),
(272,450,c),
(272,515,o),
(150,531,o),
(59,481,c),
(77,446,l),
(90,453,o),
(107,459,o),
(124,463,c),
(124,0,l),
(274,0,l),
(274,357,ls),
(274,414.333,o),
(327.833,454,o),
(372.5,454,cs),
(417.167,454,o),
(444,430.333,o),
(444,389,cs),
(444,132,ls),
(444,34,o),
(485,-15,o),
(567,-15,cs),
(610,-15,o),
(652,1,o),
(695,32,c)
);
}
);
width = 707;
}
);
note = n;
unicode = 110;
},
{
glyphname = nacute;
kernLeft = KO_eng;
kernRight = KO_d;
lastChange = "2025-10-13 04:32:50 +0000";
layers = (
{
layerId = m01;
shapes = (
{
closed = 1;
nodes = (
(90,500,o),
(58.667,494,o),
(30,482,c),
(44,445,l),
(67.333,455,o),
(94,460,o),
(124,460,c),
(124,0,l),
(274,0,l),
(274,357,ls),
(274,414.333,o),
(327.833,454,o),
(372.5,454,cs),
(417.167,454,o),
(444,430.333,o),
(444,389,cs),
(444,132,ls),
(444,34,o),
(485,-15,o),
(567,-15,cs),
(620.333,-15,o),
(673.667,9.333,o),
(727,58,c),
(709,82,l),
(647.135,30.741,o),
(594,50.953,o),
(594,111,cs),
(594,368,ls),
(594,458.667,o),
(535.833,515,o),
(452.5,515,cs),
(369.167,515,o),
(322.667,498,o),
(272,450,c),
(228,483.333,o),
(178.667,500,o),
(124,500,cs)
);
},
{
closed = 1;
nodes = (
(483.667,662.667,o),
(504,682.333,o),
(504,713,cs),
(504,743.667,o),
(477.5,765,o),
(451.5,765,cs),
(425.5,765,o),
(407.833,753.833,o),
(396.5,742.5,cs),
(390.833,736.833,o),
(382.333,727.667,o),
(371,715,cs),
(252,583,l),
(273,559,l),
(421,632,l),
(421,632,l)
);
}
);
width = 707;
}
);
note = nacute;
unicode = 324;
},
{
glyphname = napostrophe;
lastChange = "2025-10-13 04:32:50 +0000";
layers = (
{
layerId = m01;
shapes = (
{
closed = 1;
nodes = (
(90,500,o),
(58.667,494,o),
(30,482,c),
(44,445,l),
(67.333,455,o),
(94,460,o),
(124,460,c),
(124,0,l),
(274,0,l),
(274,357,ls),
(274,414.333,o),
(327.833,454,o),
(372.5,454,cs),
(417.167,454,o),
(444,430.333,o),
(444,389,cs),
(444,132,ls),
(444,34,o),
(485,-15,o),
(567,-15,cs),
(620.333,-15,o),
(673.667,9.333,o),
(727,58,c),
(709,82,l),
(647.135,30.741,o),
(594,50.953,o),
(594,111,cs),
(594,368,ls),
(594,458.667,o),
(535.833,515,o),
(452.5,515,cs),
(369.167,515,o),
(322.667,498,o),
(272,450,c),
(228,483.333,o),
(178.667,500,o),
(124,500,cs)
);
},
{
closed = 1;
nodes = (
(1,586,o),
(-13.667,556,o),
(-43,522,c),
(-21,500,l),
(45.667,560,o),
(84,641,o),
(84,701,cs),
(84,761,o),
(55.5,790,o),
(17.5,790,cs),
(-20.5,790,o),
(-50,760.5,o),
(-50,722.5,cs),
(-50,703.5,o),
(-41.5,684.167,o),
(-24.5,664.5,cs),
(-7.5,644.833,o),
(1,627.333,o),
(1,612,cs)
);
}
);
width = 707;
}
);
note = napostrophe;
unicode = 329;
},
{
glyphname = ncaron;
kernLeft = KO_eng;
kernRight = KO_d;
lastChange = "2025-10-13 04:32:50 +0000";
layers = (
{
layerId = m01;
shapes = (
{
closed = 1;
nodes = (
(90,500,o),
(58.667,494,o),
(30,482,c),
(44,445,l),
(67.333,455,o),
(94,460,o),
(124,460,c),
(124,0,l),
(274,0,l),
(274,357,ls),
(274,414.333,o),
(327.833,454,o),
(372.5,454,cs),
(417.167,454,o),
(444,430.333,o),
(444,389,cs),
(444,132,ls),
(444,34,o),
(485,-15,o),
(567,-15,cs),
(620.333,-15,o),
(673.667,9.333,o),
(727,58,c),
(709,82,l),
(647.135,30.741,o),
(594,50.953,o),
(594,111,cs),
(594,368,ls),
(594,458.667,o),
(535.833,515,o),
(452.5,515,cs),
(369.167,515,o),
(322.667,498,o),
(272,450,c),
(228,483.333,o),
(178.667,500,o),
(124,500,cs)
);
},
{
closed = 1;
nodes = (
(527,741,l),
(506,765,l),
(365,670,l),
(357,670,l),
(216,765,l),
(195,741,l),
(303,597,ls),
(321.667,571.667,o),
(341,559,o),
(361,559,cs),
(381,559,o),
(400.333,571.667,o),
(419,597,cs)
);
}
);
width = 707;
}
);
note = ncaron;
unicode = 328;
},
{
glyphname = ncommaaccent;
kernLeft = KO_eng;
lastChange = "2025-10-13 04:32:50 +0000";
layers = (
{
layerId = m01;
shapes = (
{
closed = 1;
nodes = (
(90,500,o),
(58.667,494,o),
(30,482,c),
(44,445,l),
(67.333,455,o),
(94,460,o),
(124,460,c),
(124,0,l),
(274,0,l),
(274,357,ls),
(274,414.333,o),
(327.833,454,o),
(372.5,454,cs),
(417.167,454,o),
(444,430.333,o),
(444,389,cs),
(444,132,ls),
(444,34,o),
(485,-15,o),
(567,-15,cs),
(620.333,-15,o),
(673.667,9.333,o),
(727,58,c),
(709,82,l),
(647.135,30.741,o),
(594,50.953,o),
(594,111,cs),
(594,368,ls),
(594,458.667,o),
(535.833,515,o),
(452.5,515,cs),
(369.167,515,o),
(322.667,498,o),
(272,450,c),
(228,483.333,o),
(178.667,500,o),
(124,500,cs)
);
},
{
closed = 1;
nodes = (
(357,-258,o),
(342.333,-288,o),
(313,-322,c),
(335,-344,l),
(401.667,-284,o),
(440,-203,o),
(440,-143,cs),
(440,-83,o),
(411.5,-54,o),
(373.5,-54,cs),
(335.5,-54,o),
(306,-83.5,o),
(306,-121.5,cs),
(306,-140.5,o),
(314.5,-159.833,o),
(331.5,-179.5,cs),
(348.5,-199.167,o),
(357,-216.667,o),
(357,-232,cs)
);
}
);
width = 707;
}
);
note = uni0146;
unicode = 326;
},
{
glyphname = ntilde;
kernLeft = KO_eng;
kernRight = KO_d;
lastChange = "2025-10-13 04:32:50 +0000";
layers = (
{
layerId = m01;
shapes = (
{
closed = 1;
nodes = (
(90,500,o),
(58.667,494,o),
(30,482,c),
(44,445,l),
(67.333,455,o),
(94,460,o),
(124,460,c),
(124,0,l),
(274,0,l),
(274,357,ls),
(274,414.333,o),
(327.833,454,o),
(372.5,454,cs),
(417.167,454,o),
(444,430.333,o),
(444,389,cs),
(444,132,ls),
(444,34,o),
(485,-15,o),
(567,-15,cs),
(620.333,-15,o),
(673.667,9.333,o),
(727,58,c),
(709,82,l),
(647.135,30.741,o),
(594,50.953,o),
(594,111,cs),
(594,368,ls),
(594,458.667,o),
(535.833,515,o),
(452.5,515,cs),
(369.167,515,o),
(322.667,498,o),
(272,450,c),
(228,483.333,o),
(178.667,500,o),
(124,500,cs)
);
},
{
closed = 1;
nodes = (
(529.509,719.037,o),
(474.046,800.621,o),
(377,743,cs),
(292,695,ls),
(284.667,690.333,o),
(277,688,o),
(269,688,cs),
(250.333,688,o),
(241,701,o),
(241,727,cs),
(241,742,l),
(205,742,l),
(177.491,631.963,o),
(232.954,550.379,o),
(330,608,cs),
(415,656,ls),
(422.333,660.667,o),
(430,663,o),
(438,663,cs),
(456.667,663,o),
(466,650,o),
(466,624,cs),
(466,609,l),
(502,609,l),
(502,609,l)
);
}
);
width = 707;
}
);
note = ntilde;
unicode = 241;
},
{
glyphname = eng;
kernLeft = KO_eng;
kernRight = KO_eng;
lastChange = "2025-10-13 04:32:50 +0000";
layers = (
{
layerId = m01;
shapes = (
{
closed = 1;
nodes = (
(594,458.667,o),
(535.833,515,o),
(452.5,515,cs),
(369.167,515,o),
(322.667,498,o),
(272,450,c),
(228,483.333,o),
(178.667,500,o),
(124,500,cs),
(90,500,o),
(58.667,494,o),
(30,482,c),
(44,445,l),
(67.333,455,o),
(94,460,o),
(124,460,c),
(124,0,l),
(274,0,l),
(274,357,ls),
(274,414.333,o),
(327.833,454,o),
(372.5,454,cs),
(417.167,454,o),
(444,430.333,o),
(444,389,cs),
(444,-95,ls),
(444,-168.333,o),
(416,-205,o),
(360,-205,cs),
(321.333,-205,o),
(287.667,-192.667,o),
(259,-168,c),
(237,-199,l),
(275.667,-239,o),
(338.667,-265,o),
(404,-265,cs),
(537.333,-265,o),
(594,-192.333,o),
(594,-87,cs),
(594,368,l),
(594,368,l)
);
}
);
width = 707;
}
);
note = eng;
unicode = 331;
},
{
glyphname = o;
kernLeft = KO_e;
kernRight = KO_o;
lastChange = "2025-10-13 06:11:50 +0000";
layers = (
{
anchors = (
{
name = bottom;
pos = (330,0);
},
{
name = center;
pos = (330,250);
},
{
name = ogonek;
pos = (594,10);
},
{
name = top;
pos = (330,500);
},
{
name = topright;
pos = (640,500);
}
);
layerId = m01;
shapes = (
{
closed = 1;
nodes = (
(138.5,61.5,l),
(237.274,-41.306,o),
(422.726,-41.306,o),
(521.5,61.5,cs),
(570.5,112.5,o),
(595,175.333,o),
(595,250,cs),
(595,399.333,o),
(487.333,515,o),
(330,515,cs),
(172.667,515,o),
(65,399.333,o),
(65,250,cs),
(65,175.333,o),
(89.5,112.5,o),
(138.5,61.5,c)
);
},
{
closed = 1;
nodes = (
(248,410.5,l),
(285.716,494.686,o),
(376.284,494.686,o),
(414,410.5,cs),
(432.667,368.833,o),
(442,315.333,o),
(442,250,cs),
(442,119.333,o),
(404.333,27,o),
(331,27,cs),
(257.667,27,o),
(220,119.333,o),
(220,250,cs),
(220,315.333,o),
(229.333,368.833,o),
(248,410.5,c)
);
}
);
width = 660;
}
);
note = o;
unicode = 111;
userData = {
KernOnName = o;
};
},
{
glyphname = oacute;
kernLeft = KO_e;
kernRight = KO_b;
lastChange = "2025-10-13 04:32:50 +0000";
layers = (
{
layerId = m01;
shapes = (
{
closed = 1;
nodes = (
(138.5,61.5,l),
(237.274,-41.306,o),
(422.726,-41.306,o),
(521.5,61.5,cs),
(570.5,112.5,o),
(595,175.333,o),
(595,250,cs),
(595,399.333,o),
(487.333,515,o),
(330,515,cs),
(172.667,515,o),
(65,399.333,o),
(65,250,cs),
(65,175.333,o),
(89.5,112.5,o),
(138.5,61.5,c)
);
},
{
closed = 1;
nodes = (
(248,410.5,l),
(285.716,494.686,o),
(376.284,494.686,o),
(414,410.5,cs),
(432.667,368.833,o),
(442,315.333,o),
(442,250,cs),
(442,119.333,o),
(404.333,27,o),
(331,27,cs),
(257.667,27,o),
(220,119.333,o),
(220,250,cs),
(220,315.333,o),
(229.333,368.833,o),
(248,410.5,c)
);
},
{
closed = 1;
nodes = (
(473.667,662.667,o),
(494,682.333,o),
(494,713,cs),
(494,743.667,o),
(467.5,765,o),
(441.5,765,cs),
(415.5,765,o),
(397.833,753.833,o),
(386.5,742.5,cs),
(380.833,736.833,o),
(372.333,727.667,o),
(361,715,cs),
(242,583,l),
(263,559,l),
(411,632,l),
(411,632,l)
);
}
);
width = 660;
}
);
note = oacute;
unicode = 243;
},
{
glyphname = obreve;
kernLeft = KO_e;
kernRight = KO_b;
lastChange = "2025-10-13 04:32:50 +0000";
layers = (
{
layerId = m01;
shapes = (
{
closed = 1;
nodes = (
(138.5,61.5,l),
(237.274,-41.306,o),
(422.726,-41.306,o),
(521.5,61.5,cs),
(570.5,112.5,o),
(595,175.333,o),
(595,250,cs),
(595,399.333,o),
(487.333,515,o),
(330,515,cs),
(172.667,515,o),
(65,399.333,o),
(65,250,cs),
(65,175.333,o),
(89.5,112.5,o),
(138.5,61.5,c)
);
},
{
closed = 1;
nodes = (
(248,410.5,l),
(285.716,494.686,o),
(376.284,494.686,o),
(414,410.5,cs),
(432.667,368.833,o),
(442,315.333,o),
(442,250,cs),
(442,119.333,o),
(404.333,27,o),
(331,27,cs),
(257.667,27,o),
(220,119.333,o),
(220,250,cs),
(220,315.333,o),
(229.333,368.833,o),
(248,410.5,c)
);
},
{
closed = 1;
nodes = (
(268,688,o),
(240.667,715.333,o),
(208,760,c),
(164,731,l),
(197.333,670.333,o),
(226.333,628.167,o),
(251,604.5,cs),
(275.667,580.833,o),
(302,569,o),
(330,569,cs),
(358,569,o),
(384.333,580.833,o),
(409,604.5,cs),
(433.667,628.167,o),
(462.667,670.333,o),
(496,731,c),
(451,760,l),
(400.332,689.627,o),
(353.212,651.384,o),
(290,678,cs)
);
}
);
width = 660;
}
);
note = obreve;
unicode = 335;
},
{
glyphname = ocircumflex;
kernLeft = KO_e;
kernRight = KO_b;
lastChange = "2025-10-13 06:11:50 +0000";
layers = (
{
layerId = m01;
shapes = (
{
closed = 1;
nodes = (
(138.5,61.5,l),
(237.274,-41.306,o),
(422.726,-41.306,o),
(521.5,61.5,cs),
(570.5,112.5,o),
(595,175.333,o),
(595,250,cs),
(595,399.333,o),
(487.333,515,o),
(330,515,cs),
(172.667,515,o),
(65,399.333,o),
(65,250,cs),
(65,175.333,o),
(89.5,112.5,o),
(138.5,61.5,c)
);
},
{
closed = 1;
nodes = (
(248,410.5,l),
(285.716,494.686,o),
(376.284,494.686,o),
(414,410.5,cs),
(432.667,368.833,o),
(442,315.333,o),
(442,250,cs),
(442,119.333,o),
(404.333,27,o),
(331,27,cs),
(257.667,27,o),
(220,119.333,o),
(220,250,cs),
(220,315.333,o),
(229.333,368.833,o),
(248,410.5,c)
);
},
{
closed = 1;
nodes = (
(164,583,l),
(185,559,l),
(326,654,l),
(334,654,l),
(475,559,l),
(496,583,l),
(388,727,ls),
(369.333,752.333,o),
(350,765,o),
(330,765,cs),
(310,765,o),
(290.667,752.333,o),
(272,727,cs)
);
}
);
width = 660;
}
);
note = ocircumflex;
unicode = 244;
userData = {
KernOnName = ocircumflex;
};
},
{
glyphname = odieresis;
kernLeft = KO_e;
kernRight = KO_b;
lastChange = "2025-10-13 06:11:50 +0000";
layers = (
{
layerId = m01;
shapes = (
{
closed = 1;
nodes = (
(138.5,61.5,l),
(237.274,-41.306,o),
(422.726,-41.306,o),
(521.5,61.5,cs),
(570.5,112.5,o),
(595,175.333,o),
(595,250,cs),
(595,399.333,o),
(487.333,515,o),
(330,515,cs),
(172.667,515,o),
(65,399.333,o),
(65,250,cs),
(65,175.333,o),
(89.5,112.5,o),
(138.5,61.5,c)
);
},
{
closed = 1;
nodes = (
(248,410.5,l),
(285.716,494.686,o),
(376.284,494.686,o),
(414,410.5,cs),
(432.667,368.833,o),
(442,315.333,o),
(442,250,cs),
(442,119.333,o),
(404.333,27,o),
(331,27,cs),
(257.667,27,o),
(220,119.333,o),
(220,250,cs),
(220,315.333,o),
(229.333,368.833,o),
(248,410.5,c)
);
},
{
closed = 1;
nodes = (
(161.5,616,l),
(191.704,586.467,o),
(238.296,586.467,o),
(268.5,616,cs),
(283.5,630.667,o),
(291,648.667,o),
(291,670,cs),
(291,712.667,o),
(256.333,746,o),
(215,746,cs),
(173.667,746,o),
(139,712.667,o),
(139,670,cs),
(139,648.667,o),
(146.5,630.667,o),
(161.5,616,c)
);
},
{
closed = 1;
nodes = (
(391.5,616,l),
(421.704,586.467,o),
(468.296,586.467,o),
(498.5,616,cs),
(513.5,630.667,o),
(521,648.667,o),
(521,670,cs),
(521,712.667,o),
(486.333,746,o),
(445,746,cs),
(403.667,746,o),
(369,712.667,o),
(369,670,cs),
(369,648.667,o),
(376.5,630.667,o),
(391.5,616,c)
);
}
);
width = 660;
}
);
note = odieresis;
unicode = 246;
userData = {
KernOnName = odieresis;
};
},
{
glyphname = ograve;
kernLeft = KO_e;
kernRight = KO_b;
lastChange = "2025-10-13 04:32:50 +0000";
layers = (
{
layerId = m01;
shapes = (
{
closed = 1;
nodes = (
(138.5,61.5,l),
(237.274,-41.306,o),
(422.726,-41.306,o),
(521.5,61.5,cs),
(570.5,112.5,o),
(595,175.333,o),
(595,250,cs),
(595,399.333,o),
(487.333,515,o),
(330,515,cs),
(172.667,515,o),
(65,399.333,o),
(65,250,cs),
(65,175.333,o),
(89.5,112.5,o),
(138.5,61.5,c)
);
},
{
closed = 1;
nodes = (
(248,410.5,l),
(285.716,494.686,o),
(376.284,494.686,o),
(414,410.5,cs),
(432.667,368.833,o),
(442,315.333,o),
(442,250,cs),
(442,119.333,o),
(404.333,27,o),
(331,27,cs),
(257.667,27,o),
(220,119.333,o),
(220,250,cs),
(220,315.333,o),
(229.333,368.833,o),
(248,410.5,c)
);
},
{
closed = 1;
nodes = (
(314.333,740.333,o),
(307.5,748.667,o),
(289.5,758,cs),
(280.5,762.667,o),
(269.5,765,o),
(256.5,765,cs),
(230.5,765,o),
(204,743.667,o),
(204,713,cs),
(204,682.333,o),
(224.333,662.667,o),
(287,632,cs),
(435,559,l),
(456,583,l),
(337,715,l),
(337,715,l)
);
}
);
width = 660;
}
);
note = ograve;
unicode = 242;
},
{
glyphname = ohungarumlaut;
kernLeft = KO_e;
kernRight = KO_b;
lastChange = "2025-10-13 04:32:50 +0000";
layers = (
{
layerId = m01;
shapes = (
{
closed = 1;
nodes = (
(138.5,61.5,l),
(237.274,-41.306,o),
(422.726,-41.306,o),
(521.5,61.5,cs),
(570.5,112.5,o),
(595,175.333,o),
(595,250,cs),
(595,399.333,o),
(487.333,515,o),
(330,515,cs),
(172.667,515,o),
(65,399.333,o),
(65,250,cs),
(65,175.333,o),
(89.5,112.5,o),
(138.5,61.5,c)
);
},
{
closed = 1;
nodes = (
(248,410.5,l),
(285.716,494.686,o),
(376.284,494.686,o),
(414,410.5,cs),
(432.667,368.833,o),
(442,315.333,o),
(442,250,cs),
(442,119.333,o),
(404.333,27,o),
(331,27,cs),
(257.667,27,o),
(220,119.333,o),
(220,250,cs),
(220,315.333,o),
(229.333,368.833,o),
(248,410.5,c)
);
},
{
closed = 1;
nodes = (
(176,582,l),
(200,559,l),
(325,650,ls),
(357,673.333,o),
(373,696.333,o),
(373,719,cs),
(373,763.994,o),
(301.75,800.846,o),
(249,710,cs)
);
},
{
closed = 1;
nodes = (
(366,582,l),
(390,559,l),
(515,650,ls),
(547,673.333,o),
(563,696.333,o),
(563,719,cs),
(563,763.994,o),
(491.75,800.846,o),
(439,710,cs)
);
}
);
width = 660;
}
);
note = ohungarumlaut;
unicode = 337;
},
{
glyphname = omacron;
kernLeft = KO_e;
kernRight = KO_b;
lastChange = "2025-10-13 06:11:50 +0000";
layers = (
{
layerId = m01;
shapes = (
{
closed = 1;
nodes = (
(138.5,61.5,l),
(237.274,-41.306,o),
(422.726,-41.306,o),
(521.5,61.5,cs),
(570.5,112.5,o),
(595,175.333,o),
(595,250,cs),
(595,399.333,o),
(487.333,515,o),
(330,515,cs),
(172.667,515,o),
(65,399.333,o),
(65,250,cs),
(65,175.333,o),
(89.5,112.5,o),
(138.5,61.5,c)
);
},
{
closed = 1;
nodes = (
(248,410.5,l),
(285.716,494.686,o),
(376.284,494.686,o),
(414,410.5,cs),
(432.667,368.833,o),
(442,315.333,o),
(442,250,cs),
(442,119.333,o),
(404.333,27,o),
(331,27,cs),
(257.667,27,o),
(220,119.333,o),
(220,250,cs),
(220,315.333,o),
(229.333,368.833,o),
(248,410.5,c)
);
},
{
closed = 1;
nodes = (
(477,612,l),
(477,700,l),
(183,700,l),
(183,612,l),
(183,612,l)
);
}
);
width = 660;
}
);
note = omacron;
unicode = 333;
userData = {
KernOnName = omacron;
};
},
{
glyphname = oslash;
kernLeft = KO_e;
kernRight = KO_b;
lastChange = "2025-10-13 04:32:50 +0000";
layers = (
{
layerId = m01;
shapes = (
{
closed = 1;
nodes = (
(595,366,o),
(528.667,464,o),
(422,500,c),
(471,678,l),
(421,678,l),
(376,511,l),
(356,513.667,o),
(340.667,515,o),
(330,515,cs),
(172.667,515,o),
(65,399.333,o),
(65,250,cs),
(65,132.667,o),
(130.333,34.667,o),
(237,0,c),
(189,-181,l),
(238,-181,l),
(284,-11,l),
(304,-13.667,o),
(319.333,-15,o),
(330,-15,cs),
(487.333,-15,o),
(595,100.667,o),
(595,250,cs)
);
},
{
closed = 1;
nodes = (
(319.667,27,o),
(308,29.667,o),
(296,35,c),
(403,430,l),
(457.212,347.987,o),
(450.641,171.288,o),
(414,89.5,cs),
(395.333,47.833,o),
(367.667,27,o),
(331,27,cs)
);
},
{
closed = 1;
nodes = (
(341,473,o),
(351.667,470.667,o),
(363,466,c),
(257,72,l),
(206.412,151.3,o),
(210.482,326.754,o),
(248,410.5,cs),
(266.667,452.167,o),
(294.333,473,o),
(331,473,cs)
);
}
);
width = 660;
}
);
note = oslash;
unicode = 248;
},
{
glyphname = oslashacute;
kernLeft = KO_e;
kernRight = KO_b;
lastChange = "2025-10-13 04:32:50 +0000";
layers = (
{
layerId = m01;
shapes = (
{
closed = 1;
nodes = (
(595,359.333,o),
(536.667,451.667,o),
(442,493,c),
(471,572,l),
(421,572,l),
(398,507,l),
(374.667,512.333,o),
(352,515,o),
(330,515,cs),
(172.667,515,o),
(65,399.333,o),
(65,250,cs),
(65,140.667,o),
(122.333,48.333,o),
(217,7,c),
(189,-72,l),
(238,-72,l),
(261,-7,l),
(284.333,-12.333,o),
(307.333,-15,o),
(330,-15,cs),
(487.333,-15,o),
(595,100.667,o),
(595,250,cs)
);
},
{
closed = 1;
nodes = (
(311,27,o),
(294,33,o),
(280,45,c),
(413,412,l),
(451.945,327.396,o),
(451.771,173.811,o),
(414,89.5,cs),
(395.333,47.833,o),
(367.667,27,o),
(331,27,cs)
);
},
{
closed = 1;
nodes = (
(349.667,473,o),
(365.667,467.333,o),
(379,456,c),
(247,90,l),
(210.635,168.118,o),
(210.346,326.451,o),
(248,410.5,cs),
(266.667,452.167,o),
(294.333,473,o),
(331,473,cs)
);
},
{
closed = 1;
nodes = (
(445.667,662.667,o),
(466,682.333,o),
(466,713,cs),
(466,743.667,o),
(439.5,765,o),
(413.5,765,cs),
(387.5,765,o),
(369.833,753.833,o),
(358.5,742.5,cs),
(352.833,736.833,o),
(344.333,727.667,o),
(333,715,cs),
(214,583,l),
(235,559,l),
(383,632,l),
(383,632,l)
);
}
);
width = 660;
}
);
note = oslashacute;
unicode = 511;
},
{
glyphname = oe;
kernLeft = KO_e;
kernRight = KO_ae;
lastChange = "2025-10-13 04:32:50 +0000";
layers = (
{
layerId = m01;
shapes = (
{
closed = 1;
nodes = (
(653,207,l),
(672.333,202.333,o),
(692.333,200,o),
(713,200,cs),
(834.333,200,o),
(915,286,o),
(915,370,cs),
(915,454,o),
(844.333,515,o),
(727,515,cs),
(639.667,515,o),
(570.333,490.333,o),
(519,441,c),
(420.14,539.86,o),
(238.006,542.068,o),
(138.5,438.5,cs),
(89.5,387.5,o),
(65,324.667,o),
(65,250,cs),
(65,100.667,o),
(173.167,-15,o),
(328.5,-15,cs),
(406.167,-15,o),
(469.333,9.333,o),
(518,58,c),
(566.667,9.333,o),
(628.333,-15,o),
(703,-15,cs),
(796.333,-15,o),
(873.667,32,o),
(919,104,c),
(891,122,l),
(846.333,72,o),
(792,47,o),
(728,47,cs),
(641.333,47,o),
(590,128.5,o),
(590,254.5,cs),
(590,380.5,o),
(653.5,461,o),
(707.5,461,cs),
(761.5,461,o),
(787,427.833,o),
(787,368.5,cs),
(787,309.167,o),
(737.667,239,o),
(651,231,c)
);
},
{
closed = 1;
nodes = (
(248,410.5,l),
(285.544,494.304,o),
(377.457,494.801,o),
(417.5,412,cs),
(437.167,371.333,o),
(447,317.333,o),
(447,250,cs),
(447,115.333,o),
(406.667,27,o),
(332,27,cs),
(257.333,27,o),
(220,119.333,o),
(220,250,cs),
(220,315.333,o),
(229.333,368.833,o),
(248,410.5,c)
);
}
);
width = 974;
}
);
note = oe;
unicode = 339;
},
{
glyphname = p;
kernLeft = KO_n;
kernRight = KO_b;
lastChange = "2025-10-13 04:44:18 +0000";
layers = (
{
layerId = m01;
shapes = (
{
closed = 1;
nodes = (
(473,98,l),
(435.236,22.472,o),
(340.523,22.507,o),
(299.5,98.5,cs),
(279.167,136.167,o),
(269,186.667,o),
(269,250,cs),
(269,376.667,o),
(310.833,458,o),
(387.5,458,cs),
(464.167,458,o),
(501,378,o),
(501,250,cs),
(501,186,o),
(491.667,135.333,o),
(473,98,c)
);
},
{
closed = 1;
nodes = (
(274,512,o),
(152,528,o),
(61,478,c),
(79,443,l),
(92,450,o),
(107,456,o),
(124,460,c),
(124,-250,l),
(274,-250,l),
(274,62,l),
(308,10.667,o),
(353.667,-15,o),
(411,-15,cs),
(565.667,-15,o),
(656,96.5,o),
(656,250.5,cs),
(656,404.5,o),
(574.333,515,o),
(421,515,cs),
(364.333,515,o),
(309,491,o),
(274,447,c)
);
}
);
width = 721;
}
);
note = p;
unicode = 112;
},
{
glyphname = thorn;
kernLeft = KO_thorn;
kernRight = KO_b;
lastChange = "2025-10-13 04:32:50 +0000";
layers = (
{
layerId = m01;
shapes = (
{
closed = 1;
nodes = (
(346.333,515,o),
(297.333,488.667,o),
(262,436,c),
(261,704,ls),
(261,781.188,o),
(87.485,789.502,o),
(0,699,c),
(27,668,l),
(45.667,691.333,o),
(73.667,708,o),
(111,718,c),
(111,-250,l),
(262,-250,l),
(262,62,l),
(296,10.667,o),
(341.667,-15,o),
(399,-15,cs),
(553.667,-15,o),
(644,96.5,o),
(644,250.5,cs),
(644,404.5,o),
(562.333,515,o),
(409,515,cs)
);
},
{
closed = 1;
nodes = (
(461,98,l),
(423.236,22.472,o),
(328.523,22.507,o),
(287.5,98.5,cs),
(267.167,136.167,o),
(257,186.667,o),
(257,250,cs),
(257,376.667,o),
(298.833,458,o),
(375.5,458,cs),
(452.167,458,o),
(489,378,o),
(489,250,cs),
(489,186,o),
(479.667,135.333,o),
(461,98,c)
);
}
);
width = 709;
}
);
note = thorn;
unicode = 254;
},
{
glyphname = q;
kernLeft = KO_a;
kernRight = KO_q;
lastChange = "2025-10-13 04:32:50 +0000";
layers = (
{
layerId = m01;
shapes = (
{
closed = 1;
nodes = (
(447,500,l),
(447,444,l),
(415,491.333,o),
(369.333,515,o),
(310,515,cs),
(155.333,515,o),
(65,403.5,o),
(65,249.5,cs),
(65,95.5,o),
(146.667,-15,o),
(300,-15,cs),
(362.667,-15,o),
(411.667,11.333,o),
(447,64,c),
(447,-250,l),
(597,-250,l),
(597,500,l),
(597,500,l)
);
},
{
closed = 1;
nodes = (
(248,402,l),
(285.764,477.528,o),
(380.477,477.493,o),
(421.5,401.5,cs),
(441.833,363.833,o),
(452,313.333,o),
(452,250,cs),
(452,123.333,o),
(410.167,42,o),
(333.5,42,cs),
(256.833,42,o),
(220,122,o),
(220,250,cs),
(220,314,o),
(229.333,364.667,o),
(248,402,c)
);
}
);
width = 697;
}
);
note = q;
unicode = 113;
},
{
glyphname = r;
kernLeft = KO_r;
kernRight = KO_r;
lastChange = "2025-10-13 04:48:17 +0000";
layers = (
{
layerId = m01;
shapes = (
{
closed = 1;
nodes = (
(505,61,l),
(458,40,o),
(423,62,o),
(423,111,cs),
(423,458,ls),
(423,496,o),
(413,515,o),
(393,515,cs),
(384.333,515,o),
(370.333,510,o),
(351,500,cs),
(291.667,470.667,o),
(235.667,456,o),
(183,456,cs),
(164,456,l),
(164,504,o),
(130.833,538,o),
(87.5,538,cs),
(44.167,538,o),
(10,503.833,o),
(10,460.5,cs),
(10,417.167,o),
(44.333,384,o),
(95,384,c),
(93.667,318.667,o),
(83.667,262.333,o),
(65,215,c),
(106,203,l),
(136,264.333,o),
(153.667,325.667,o),
(159,387,c),
(203.667,391.667,o),
(241.667,400.333,o),
(273,413,c),
(273,132,ls),
(273,34,o),
(314,-15,o),
(396,-15,cs),
(438,-15,o),
(481,0,o),
(523,31,c)
);
}
);
width = 536;
}
);
note = r;
unicode = 114;
},
{
glyphname = racute;
kernLeft = KO_r;
kernRight = KO_d;
lastChange = "2025-10-13 04:32:50 +0000";
layers = (
{
layerId = m01;
shapes = (
{
closed = 1;
nodes = (
(384.333,515,o),
(370.333,510,o),
(351,500,cs),
(291.667,470.667,o),
(235.667,456,o),
(183,456,cs),
(164,456,l),
(164,504,o),
(130.833,538,o),
(87.5,538,cs),
(44.167,538,o),
(10,503.833,o),
(10,460.5,cs),
(10,417.167,o),
(44.333,384,o),
(95,384,c),
(93.667,318.667,o),
(83.667,262.333,o),
(65,215,c),
(106,203,l),
(136,264.333,o),
(153.667,325.667,o),
(159,387,c),
(203.667,391.667,o),
(241.667,400.333,o),
(273,413,c),
(273,132,ls),
(273,34,o),
(314,-15,o),
(396,-15,cs),
(449.333,-15,o),
(502.667,9.333,o),
(556,58,c),
(538,82,l),
(476.135,30.741,o),
(423,50.953,o),
(423,111,cs),
(423,458,ls),
(423,496,o),
(413,515,o),
(393,515,cs)
);
},
{
closed = 1;
nodes = (
(398.667,662.667,o),
(419,682.333,o),
(419,713,cs),
(419,743.667,o),
(392.5,765,o),
(366.5,765,cs),
(340.5,765,o),
(322.833,753.833,o),
(311.5,742.5,cs),
(305.833,736.833,o),
(297.333,727.667,o),
(286,715,cs),
(167,583,l),
(188,559,l),
(336,632,l),
(336,632,l)
);
}
);
width = 536;
}
);
note = racute;
unicode = 341;
},
{
glyphname = rcaron;
kernLeft = KO_r;
kernRight = KO_d;
lastChange = "2025-10-13 04:32:50 +0000";
layers = (
{
layerId = m01;
shapes = (
{
closed = 1;
nodes = (
(384.333,515,o),
(370.333,510,o),
(351,500,cs),
(291.667,470.667,o),
(235.667,456,o),
(183,456,cs),
(164,456,l),
(164,504,o),
(130.833,538,o),
(87.5,538,cs),
(44.167,538,o),
(10,503.833,o),
(10,460.5,cs),
(10,417.167,o),
(44.333,384,o),
(95,384,c),
(93.667,318.667,o),
(83.667,262.333,o),
(65,215,c),
(106,203,l),
(136,264.333,o),
(153.667,325.667,o),
(159,387,c),
(203.667,391.667,o),
(241.667,400.333,o),
(273,413,c),
(273,132,ls),
(273,34,o),
(314,-15,o),
(396,-15,cs),
(449.333,-15,o),
(502.667,9.333,o),
(556,58,c),
(538,82,l),
(476.135,30.741,o),
(423,50.953,o),
(423,111,cs),
(423,458,ls),
(423,496,o),
(413,515,o),
(393,515,cs)
);
},
{
closed = 1;
nodes = (
(439,741,l),
(418,765,l),
(277,670,l),
(269,670,l),
(128,765,l),
(107,741,l),
(215,597,ls),
(233.667,571.667,o),
(253,559,o),
(273,559,cs),
(293,559,o),
(312.333,571.667,o),
(331,597,cs)
);
}
);
width = 536;
}
);
note = rcaron;
unicode = 345;
},
{
glyphname = rcommaaccent;
kernLeft = KO_r;
kernRight = KO_d;
lastChange = "2025-10-13 04:32:50 +0000";
layers = (
{
layerId = m01;
shapes = (
{
closed = 1;
nodes = (
(384.333,515,o),
(370.333,510,o),
(351,500,cs),
(291.667,470.667,o),
(235.667,456,o),
(183,456,cs),
(164,456,l),
(164,504,o),
(130.833,538,o),
(87.5,538,cs),
(44.167,538,o),
(10,503.833,o),
(10,460.5,cs),
(10,417.167,o),
(44.333,384,o),
(95,384,c),
(93.667,318.667,o),
(83.667,262.333,o),
(65,215,c),
(106,203,l),
(136,264.333,o),
(153.667,325.667,o),
(159,387,c),
(203.667,391.667,o),
(241.667,400.333,o),
(273,413,c),
(273,132,ls),
(273,34,o),
(314,-15,o),
(396,-15,cs),
(449.333,-15,o),
(502.667,9.333,o),
(556,58,c),
(538,82,l),
(476.135,30.741,o),
(423,50.953,o),
(423,111,cs),
(423,458,ls),
(423,496,o),
(413,515,o),
(393,515,cs)
);
},
{
closed = 1;
nodes = (
(203,-258,o),
(188.333,-288,o),
(159,-322,c),
(181,-344,l),
(247.667,-284,o),
(286,-203,o),
(286,-143,cs),
(286,-83,o),
(257.5,-54,o),
(219.5,-54,cs),
(181.5,-54,o),
(152,-83.5,o),
(152,-121.5,cs),
(152,-140.5,o),
(160.5,-159.833,o),
(177.5,-179.5,cs),
(194.5,-199.167,o),
(203,-216.667,o),
(203,-232,cs)
);
}
);
width = 536;
}
);
note = uni0157;
unicode = 343;
},
{
glyphname = s;
kernLeft = KO_s;
kernRight = KO_s;
lastChange = "2025-10-13 04:32:50 +0000";
layers = (
{
layerId = m01;
shapes = (
{
closed = 1;
nodes = (
(139,344.667,o),
(95.667,267,o),
(45,185,c),
(70,163,l),
(221,352,l),
(266.333,285.333,o),
(289,221.333,o),
(289,160,cs),
(289,82.667,o),
(241,47,o),
(173,47,cs),
(139,47,o),
(107.333,58.667,o),
(78,82,c),
(55,58,l),
(88.333,16.667,o),
(161,-15,o),
(225,-15,cs),
(365,-15,o),
(444,64.833,o),
(444,165.5,cs),
(444,266.167,o),
(383.333,336,o),
(274,416,c),
(313.91,461.059,o),
(313.464,504.536,o),
(282.5,535.5,cs),
(267.5,550.5,o),
(249.333,558,o),
(228,558,cs),
(185.333,558,o),
(151,522.667,o),
(151,484,cs),
(151,464.667,o),
(159,442.667,o),
(175,418,c)
);
}
);
width = 474;
}
);
note = s;
unicode = 115;
},
{
glyphname = sacute;
kernLeft = KO_s;
kernRight = KO_s;
lastChange = "2025-10-13 04:32:50 +0000";
layers = (
{
layerId = m01;
shapes = (
{
closed = 1;
nodes = (
(139,344.667,o),
(95.667,267,o),
(45,185,c),
(70,163,l),
(221,352,l),
(266.333,285.333,o),
(289,221.333,o),
(289,160,cs),
(289,82.667,o),
(241,47,o),
(173,47,cs),
(139,47,o),
(107.333,58.667,o),
(78,82,c),
(55,58,l),
(88.333,16.667,o),
(161,-15,o),
(225,-15,cs),
(365,-15,o),
(444,64.833,o),
(444,165.5,cs),
(444,266.167,o),
(383.333,336,o),
(274,416,c),
(313.91,461.059,o),
(313.464,504.536,o),
(282.5,535.5,cs),
(267.5,550.5,o),
(249.333,558,o),
(228,558,cs),
(185.333,558,o),
(151,522.667,o),
(151,484,cs),
(151,464.667,o),
(159,442.667,o),
(175,418,c)
);
},
{
closed = 1;
nodes = (
(340.667,662.667,o),
(361,682.333,o),
(361,713,cs),
(361,743.667,o),
(334.5,765,o),
(308.5,765,cs),
(282.5,765,o),
(264.833,753.833,o),
(253.5,742.5,cs),
(247.833,736.833,o),
(239.333,727.667,o),
(228,715,cs),
(109,583,l),
(130,559,l),
(278,632,l),
(278,632,l)
);
}
);
width = 474;
}
);
note = sacute;
unicode = 347;
},
{
glyphname = scaron;
kernLeft = KO_s;
kernRight = KO_s;
lastChange = "2025-10-13 04:32:50 +0000";
layers = (
{
layerId = m01;
shapes = (
{
closed = 1;
nodes = (
(139,344.667,o),
(95.667,267,o),
(45,185,c),
(70,163,l),
(221,352,l),
(266.333,285.333,o),
(289,221.333,o),
(289,160,cs),
(289,82.667,o),
(241,47,o),
(173,47,cs),
(139,47,o),
(107.333,58.667,o),
(78,82,c),
(55,58,l),
(88.333,16.667,o),
(161,-15,o),
(225,-15,cs),
(365,-15,o),
(444,64.833,o),
(444,165.5,cs),
(444,266.167,o),
(383.333,336,o),
(274,416,c),
(313.91,461.059,o),
(313.464,504.536,o),
(282.5,535.5,cs),
(267.5,550.5,o),
(249.333,558,o),
(228,558,cs),
(185.333,558,o),
(151,522.667,o),
(151,484,cs),
(151,464.667,o),
(159,442.667,o),
(175,418,c)
);
},
{
closed = 1;
nodes = (
(400,761,l),
(379,785,l),
(238,690,l),
(230,690,l),
(89,785,l),
(68,761,l),
(176,617,ls),
(194.667,591.667,o),
(214,579,o),
(234,579,cs),
(254,579,o),
(273.333,591.667,o),
(292,617,cs)
);
}
);
width = 474;
}
);
note = scaron;
unicode = 353;
},
{
glyphname = scedilla;
kernLeft = KO_s;
kernRight = KO_s;
lastChange = "2025-10-13 04:32:50 +0000";
layers = (
{
layerId = m01;
shapes = (
{
closed = 1;
nodes = (
(139,344.667,o),
(95.667,267,o),
(45,185,c),
(70,163,l),
(221,352,l),
(266.333,285.333,o),
(289,221.333,o),
(289,160,cs),
(289,82.667,o),
(241,47,o),
(173,47,cs),
(139,47,o),
(107.333,58.667,o),
(78,82,c),
(55,58,l),
(84.333,20.667,o),
(148,-8.667,o),
(208,-14,c),
(171,-93,l),
(193,-110,l),
(290.629,-110,o),
(286.321,-233,o),
(202,-233,cs),
(197.333,-233,o),
(192.333,-232.333,o),
(187,-231,c),
(222.267,-205.53,o),
(201.2,-155,o),
(163.5,-155,cs),
(141.5,-155,o),
(123,-173.333,o),
(123,-196,cs),
(123,-240,o),
(169.667,-265,o),
(235,-265,cs),
(300.333,-265,o),
(353,-219.667,o),
(353,-165,cs),
(353,-110.333,o),
(310.667,-70,o),
(248,-70,cs),
(232,-70,o),
(218.333,-72.333,o),
(207,-77,c),
(237,-15,l),
(369,-9.667,o),
(444,68.333,o),
(444,167,cs),
(444,265.667,o),
(383.333,336,o),
(274,416,c),
(313.91,461.059,o),
(313.464,504.536,o),
(282.5,535.5,cs),
(267.5,550.5,o),
(249.333,558,o),
(228,558,cs),
(185.333,558,o),
(151,522.667,o),
(151,484,cs),
(151,464.667,o),
(159,442.667,o),
(175,418,c)
);
}
);
width = 474;
}
);
note = scedilla;
unicode = 351;
},
{
glyphname = scircumflex;
kernLeft = KO_s;
kernRight = KO_s;
lastChange = "2025-10-13 04:32:50 +0000";
layers = (
{
layerId = m01;
shapes = (
{
closed = 1;
nodes = (
(139,344.667,o),
(95.667,267,o),
(45,185,c),
(70,163,l),
(221,352,l),
(266.333,285.333,o),
(289,221.333,o),
(289,160,cs),
(289,82.667,o),
(241,47,o),
(173,47,cs),
(139,47,o),
(107.333,58.667,o),
(78,82,c),
(55,58,l),
(88.333,16.667,o),
(161,-15,o),
(225,-15,cs),
(365,-15,o),
(444,64.833,o),
(444,165.5,cs),
(444,266.167,o),
(383.333,336,o),
(274,416,c),
(313.91,461.059,o),
(313.464,504.536,o),
(282.5,535.5,cs),
(267.5,550.5,o),
(249.333,558,o),
(228,558,cs),
(185.333,558,o),
(151,522.667,o),
(151,484,cs),
(151,464.667,o),
(159,442.667,o),
(175,418,c)
);
},
{
closed = 1;
nodes = (
(65,583,l),
(86,559,l),
(227,654,l),
(235,654,l),
(376,559,l),
(397,583,l),
(289,727,ls),
(270.333,752.333,o),
(251,765,o),
(231,765,cs),
(211,765,o),
(191.667,752.333,o),
(173,727,cs)
);
}
);
width = 474;
}
);
note = scircumflex;
unicode = 349;
},
{
glyphname = scommaaccent;
kernLeft = KO_s;
kernRight = KO_s;
lastChange = "2025-10-13 04:32:50 +0000";
layers = (
{
layerId = m01;
shapes = (
{
closed = 1;
nodes = (
(139,344.667,o),
(95.667,267,o),
(45,185,c),
(70,163,l),
(221,352,l),
(266.333,285.333,o),
(289,221.333,o),
(289,160,cs),
(289,82.667,o),
(241,47,o),
(173,47,cs),
(139,47,o),
(107.333,58.667,o),
(78,82,c),
(55,58,l),
(88.333,16.667,o),
(161,-15,o),
(225,-15,cs),
(365,-15,o),
(444,64.833,o),
(444,165.5,cs),
(444,266.167,o),
(383.333,336,o),
(274,416,c),
(313.91,461.059,o),
(313.464,504.536,o),
(282.5,535.5,cs),
(267.5,550.5,o),
(249.333,558,o),
(228,558,cs),
(185.333,558,o),
(151,522.667,o),
(151,484,cs),
(151,464.667,o),
(159,442.667,o),
(175,418,c)
);
},
{
closed = 1;
nodes = (
(225,-258,o),
(210.333,-288,o),
(181,-322,c),
(203,-344,l),
(269.667,-284,o),
(308,-203,o),
(308,-143,cs),
(308,-83,o),
(279.5,-54,o),
(241.5,-54,cs),
(203.5,-54,o),
(174,-83.5,o),
(174,-121.5,cs),
(174,-140.5,o),
(182.5,-159.833,o),
(199.5,-179.5,cs),
(216.5,-199.167,o),
(225,-216.667,o),
(225,-232,cs)
);
}
);
width = 474;
}
);
note = uni0219;
unicode = 537;
},
{
glyphname = germandbls;
kernLeft = KO_f;
lastChange = "2025-10-13 04:32:50 +0000";
layers = (
{
layerId = m01;
shapes = (
{
closed = 1;
nodes = (
(552,666.333,o),
(495.667,715,o),
(353,715,cs),
(210.333,715,o),
(121,633,o),
(121,489,cs),
(121,486,l),
(39,486,l),
(39,445,l),
(121,445,l),
(121,0,l),
(271,0,l),
(271,499,ls),
(271,555.667,o),
(278.667,597.5,o),
(294,624.5,cs),
(309.333,651.5,o),
(328.333,665,o),
(351,665,cs),
(396.333,665,o),
(419,638.833,o),
(419,591.5,cs),
(419,567.833,o),
(405.667,534.833,o),
(379,492.5,cs),
(352.333,450.167,o),
(339,415.667,o),
(339,389,cs),
(339,348.333,o),
(356.667,310,o),
(392,274,cs),
(422.667,244.667,o),
(453.833,218.333,o),
(474.5,181,cs),
(484.833,162.333,o),
(490,141.333,o),
(490,118,cs),
(490,71.333,o),
(462,37,o),
(402,37,cs),
(372,37,o),
(343,45,o),
(315,61,c),
(297,30,l),
(378.832,-30.368,o),
(527.435,-28.804,o),
(592,25,cs),
(624,51.667,o),
(640,90,o),
(640,140,cs),
(640,194.667,o),
(604.333,237.333,o),
(559,264,cs),
(536.333,277.333,o),
(513.667,290,o),
(491,302,cs),
(437,329.333,o),
(410,358.667,o),
(410,390,cs),
(410,416,o),
(433.667,445.667,o),
(481,479,cs),
(517,504.333,o),
(552,549,o),
(552,597,cs)
);
}
);
width = 655;
}
);
note = germandbls;
unicode = 223;
},
{
glyphname = t;
kernLeft = KO_t;
kernRight = KO_t;
lastChange = "2025-10-13 04:48:33 +0000";
layers = (
{
layerId = m01;
shapes = (
{
closed = 1;
nodes = (
(359,64,l),
(309,38,o),
(271,60,o),
(271,111,cs),
(271,445,l),
(384,445,l),
(384,486,l),
(271,486,l),
(271,630,l),
(121,630,l),
(121,486,l),
(39,486,l),
(39,445,l),
(121,445,l),
(121,445,l),
(121,132,ls),
(121,34,o),
(162,-15,o),
(244,-15,cs),
(288,-15,o),
(333,2,o),
(377,35,c)
);
}
);
width = 424;
}
);
note = t;
unicode = 116;
},
{
glyphname = tbar;
lastChange = "2025-10-13 04:32:50 +0000";
layers = (
{
layerId = m01;
shapes = (
{
closed = 1;
nodes = (
(121,132,ls),
(121,34,o),
(162,-15,o),
(244,-15,cs),
(297.333,-15,o),
(350.667,9.333,o),
(404,58,c),
(386,82,l),
(324.135,30.741,o),
(271,50.953,o),
(271,111,cs),
(271,273,l),
(386,273,l),
(386,318,l),
(271,318,l),
(271,445,l),
(384,445,l),
(384,486,l),
(271,486,l),
(271,630,l),
(121,630,l),
(121,486,l),
(39,486,l),
(39,445,l),
(121,445,l),
(121,318,l),
(6,318,l),
(6,273,l),
(121,273,l),
(121,273,l)
);
}
);
width = 424;
}
);
note = tbar;
unicode = 359;
},
{
glyphname = tcaron;
kernLeft = KO_t;
kernRight = KO_tcaron;
lastChange = "2025-10-13 04:32:50 +0000";
layers = (
{
layerId = m01;
shapes = (
{
closed = 1;
nodes = (
(121,132,ls),
(121,34,o),
(162,-15,o),
(244,-15,cs),
(297.333,-15,o),
(350.667,9.333,o),
(404,58,c),
(386,82,l),
(324.135,30.741,o),
(271,50.953,o),
(271,111,cs),
(271,445,l),
(353,445,l),
(353,486,l),
(271,486,l),
(271,630,l),
(121,630,l),
(121,486,l),
(39,486,l),
(39,445,l),
(121,445,l),
(121,445,l)
);
},
{
closed = 1;
nodes = (
(378,586,o),
(363.333,556,o),
(334,522,c),
(356,500,l),
(422.667,560,o),
(461,641,o),
(461,701,cs),
(461,761,o),
(432.5,790,o),
(394.5,790,cs),
(356.5,790,o),
(327,760.5,o),
(327,722.5,cs),
(327,703.5,o),
(335.5,684.167,o),
(352.5,664.5,cs),
(369.5,644.833,o),
(378,627.333,o),
(378,612,cs)
);
}
);
width = 424;
}
);
note = tcaron;
unicode = 357;
},
